<?xml version="1.0" encoding="UTF-8"?>
<svg version="1.1" xmlns="http://www.w3.org/2000/svg" width="553" height="550">
<path d="M0 0 C3.50751867 0.01316047 7.01502484 0.00855704 10.52256131 0.00629318 C16.57530871 0.00473286 22.62795783 0.01401054 28.68068051 0.03100669 C37.43149469 0.05556292 46.18226216 0.06321879 54.93310705 0.06697067 C69.13652068 0.07350934 83.33988213 0.0933997 97.54326749 0.1218785 C111.32679351 0.14948643 125.11030527 0.17068689 138.89385343 0.18340194 C140.17187332 0.1845842 140.17187332 0.1845842 141.47571179 0.18579034 C145.75072747 0.18970593 150.02574324 0.19349694 154.30075908 0.19722605 C189.67215972 0.22824133 225.04349978 0.28100592 260.41484952 0.34819686 C260.41484952 1.00819686 260.41484952 1.66819686 260.41484952 2.34819686 C266.72753555 2.72371852 266.72753555 2.72371852 272.41484952 0.34819686 C272.74484952 1.33819686 273.07484952 2.32819686 273.41484952 3.34819686 C276.01458963 4.40174451 278.48436733 5.25467608 281.16484952 6.03569686 C281.88156827 6.26063827 282.59828702 6.48557968 283.33672452 6.71733749 C287.1251531 7.86291929 290.4129775 8.63967179 294.41484952 8.34819686 C294.41484952 9.00819686 294.41484952 9.66819686 294.41484952 10.34819686 C296.6427695 11.47572335 298.87210839 12.60027825 301.10234952 13.72319686 C302.04110929 14.19886093 302.04110929 14.19886093 302.99883389 14.68413436 C305.71151048 16.0475739 308.3985292 17.34188151 311.23125577 18.43804061 C314.34169297 19.7345198 316.0611725 21.94102718 318.41484952 24.34819686 C322.07496471 27.33805757 325.81356231 30.23306374 329.69219327 32.93413436 C330.54490811 33.6340953 330.54490811 33.6340953 331.41484952 34.34819686 C331.41484952 35.00819686 331.41484952 35.66819686 331.41484952 36.34819686 C332.40484952 36.67819686 333.39484952 37.00819686 334.41484952 37.34819686 C336.96277774 39.81871967 339.1491863 42.61941211 341.41484952 45.34819686 C342.36424405 46.43294296 342.36424405 46.43294296 343.33281827 47.53960311 C354.3656739 60.55440885 361.62006882 76.24050507 366.10234952 92.59819686 C366.40640714 93.6864476 366.40640714 93.6864476 366.71660733 94.79668319 C370.95863178 111.14689012 370.70865752 127.72402031 370.67629886 144.48816907 C370.67172359 148.00289013 370.67878296 151.51759227 370.6842587 155.03230941 C370.69310084 161.89626163 370.69125397 168.76016983 370.68543342 175.62412369 C370.68089639 181.20808556 370.6803128 186.79203519 370.68248105 192.37599838 C370.68278752 193.17406573 370.68309398 193.97213309 370.68340974 194.7943843 C370.68404926 196.41619806 370.68469769 198.03801181 370.68535492 199.65982556 C370.69104304 214.82844937 370.68452424 229.9970489 370.67375419 245.16566873 C370.66482006 258.15002618 370.66637253 271.13434786 370.67559171 284.11870468 C370.68632126 299.23712553 370.69049386 314.35552518 370.68436718 329.47394931 C370.68373016 331.08943132 370.68310141 332.70491333 370.68248105 334.32039535 C370.6821725 335.11501613 370.68186395 335.90963691 370.68154605 336.72833711 C370.67982714 342.29847747 370.68271675 347.86860426 370.68744016 353.43874252 C370.69307893 360.23705393 370.69147007 367.03531923 370.68087867 373.83362544 C370.67566196 377.29490001 370.67349592 380.756098 370.68017697 384.21737182 C370.73065723 418.701472 370.73065723 418.701472 366.10234952 433.09819686 C365.88433682 433.80299179 365.66632413 434.50778671 365.44170499 435.23393905 C355.51996333 466.57551551 334.81891688 492.06553872 305.67363858 507.49028671 C299.78288769 510.39954104 293.62999508 512.55501118 287.41484952 514.66069686 C285.97444303 515.14929183 285.97444303 515.14929183 284.50493741 515.64775741 C271.39558133 519.88743056 258.04363966 521.92887303 244.34697843 523.02886093 C243.18768004 523.12372244 243.18768004 523.12372244 242.00496149 523.22050035 C219.1203247 525.02929649 196.17622002 524.65338506 173.23949504 524.48338115 C166.86779424 524.43939562 160.49601584 524.41318783 154.12423062 524.38463485 C143.45572145 524.33438325 132.78734119 524.27258184 122.11895108 524.20220077 C111.20069446 524.13019185 100.28243968 524.06752861 89.36406827 524.01567733 C88.35080846 524.01086269 88.35080846 524.01086269 87.31707875 524.00595078 C85.95567792 523.99948981 84.59427707 523.99303098 83.23287622 523.98657431 C82.56089789 523.98338713 81.88891957 523.98019995 81.19657826 523.97691619 C80.52600303 523.97374039 79.85542779 523.97056458 79.16453209 523.96729253 C68.01705957 523.91418478 56.86963015 523.85286014 45.72220397 523.79086673 C41.96262445 523.77020561 38.20304082 523.75047508 34.44345593 523.73081863 C28.52179564 523.69928555 22.60018436 523.66277661 16.67857671 523.62258613 C14.52248355 523.60858746 12.36638032 523.59604121 10.21026921 523.58515251 C-5.93368753 523.50195426 -22.16081061 523.34493006 -38.21015048 521.41069686 C-39.28522861 521.29951522 -39.28522861 521.29951522 -40.38202548 521.18608749 C-42.12685924 520.98208126 -43.85925134 520.67581792 -45.58515048 520.34819686 C-45.91515048 519.68819686 -46.24515048 519.02819686 -46.58515048 518.34819686 C-48.47605845 518.117133 -50.36786481 517.89179798 -52.26288486 517.69731796 C-56.31102138 517.08873562 -60.0245477 515.61567542 -63.83515048 514.16069686 C-65.09065707 513.6855162 -65.09065707 513.6855162 -66.37152743 513.20073593 C-96.28982944 501.68725639 -119.57210463 481.23048281 -133.58515048 452.34819686 C-135.4645008 448.09338137 -137.08507284 443.75043475 -138.58515048 439.34819686 C-139.24515048 439.34819686 -139.90515048 439.34819686 -140.58515048 439.34819686 C-140.68827548 438.06944686 -140.79140048 436.79069686 -140.89765048 435.47319686 C-141.28369131 431.45053951 -141.91671289 427.53457286 -142.68074572 423.56738079 C-144.22856742 415.31287315 -144.90858176 407.19856932 -145.17081332 398.8069371 C-145.21068484 397.62748991 -145.25055636 396.44804273 -145.29163611 395.23285472 C-145.67184242 383.13673583 -145.72632578 371.04687286 -145.71454501 358.94585311 C-145.71590535 356.5423596 -145.71768879 354.1388663 -145.71985507 351.73537338 C-145.72435425 345.29734286 -145.72267129 338.85932865 -145.71947598 332.42129791 C-145.71767838 328.37976924 -145.71804079 324.33824257 -145.71896625 320.29671371 C-145.71911948 319.61987787 -145.71927271 318.94304203 -145.71943059 318.24569601 C-145.7197504 316.86951617 -145.72007462 315.49333634 -145.72040318 314.11715651 C-145.72323565 301.29733235 -145.72000632 288.47751541 -145.71460281 275.65769243 C-145.71013683 264.72477103 -145.71091339 253.79186026 -145.71552157 242.85893905 C-145.72090715 230.07617762 -145.72296117 217.29342246 -145.71990931 204.51066005 C-145.71959086 203.14033338 -145.71927648 201.7700067 -145.71896625 200.39968002 C-145.71881197 199.72594457 -145.71865769 199.05220912 -145.71849874 198.35805744 C-145.71764546 193.67411477 -145.71912108 188.99017739 -145.7214458 184.30623519 C-145.7243722 177.96939651 -145.72226295 171.63257755 -145.71655154 165.29574096 C-145.71524916 162.99465232 -145.71557402 160.69356197 -145.71781421 158.39247406 C-145.72858666 146.18505276 -145.57587953 133.99644074 -145.15128207 121.79570663 C-145.11411739 120.67762839 -145.07695272 119.55955015 -145.03866184 118.40759075 C-143.98204165 90.90908003 -133.88309967 68.03054845 -117.58515048 46.34819686 C-117.03472079 45.55800155 -116.48429111 44.76780624 -115.91718173 43.95366561 C-115.47761142 43.42386093 -115.03804111 42.89405624 -114.58515048 42.34819686 C-113.92515048 42.34819686 -113.26515048 42.34819686 -112.58515048 42.34819686 C-112.25063876 41.51675155 -112.25063876 41.51675155 -111.90936923 40.66850936 C-101.78016763 22.91999683 -75.23692118 11.80225026 -56.77265048 6.03569686 C-56.05246737 5.80527694 -55.33228427 5.57485702 -54.59027743 5.33745468 C-36.73770348 0.11791926 -18.44602596 -0.08712513 0 0 Z M-87.58515048 45.34819686 C-88.51714267 46.14999374 -89.44913486 46.95179061 -90.40936923 47.77788436 C-94.08703941 50.96800281 -94.08703941 50.96800281 -97.58515048 54.34819686 C-97.58515048 55.00819686 -97.58515048 55.66819686 -97.58515048 56.34819686 C-99.07015048 56.84319686 -99.07015048 56.84319686 -100.58515048 57.34819686 C-102.27228297 59.31402087 -103.78046127 61.24145905 -105.27265048 63.34819686 C-105.71109286 63.9668663 -106.14953525 64.58553573 -106.60126376 65.22295272 C-118.59994326 82.72519471 -124.93054141 103.16584397 -124.84584689 124.35764205 C-124.84967244 125.39720639 -124.85349799 126.43677072 -124.85743946 127.507837 C-124.8676719 130.95492077 -124.86379596 134.40183493 -124.85980868 137.84892929 C-124.86416062 140.33540138 -124.86934537 142.82187213 -124.87529635 145.30834091 C-124.88726336 151.34031935 -124.88984377 157.37223236 -124.88749609 163.40421667 C-124.88570626 168.31320968 -124.88747676 173.22218924 -124.89172053 178.13118064 C-124.89231572 178.83236359 -124.89291091 179.53354654 -124.89352414 180.25597746 C-124.89473601 181.68089662 -124.89595015 183.10581578 -124.89716651 184.53073493 C-124.90802168 197.86857768 -124.90588948 211.2063951 -124.89978167 224.54423926 C-124.89461731 236.71172634 -124.90585885 248.87913325 -124.92487989 261.04660448 C-124.94431394 273.57552151 -124.95250437 286.10440072 -124.94875664 298.63333291 C-124.94685263 305.65311836 -124.94925324 312.67283566 -124.96347117 319.69260871 C-124.97671821 326.29928668 -124.97404977 332.90583176 -124.96106029 339.51251876 C-124.95870758 341.92583733 -124.96138187 344.33916733 -124.96968341 346.75247276 C-125.06666635 377.15831452 -119.44356622 403.25370305 -98.58515048 426.34819686 C-97.82589267 427.18995468 -97.06663486 428.03171249 -96.28436923 428.89897811 C-87.06998349 438.59595034 -75.23102049 447.66454131 -62.58515048 452.34819686 C-61.67120517 452.72718124 -60.75725986 453.10616561 -59.81561923 453.49663436 C-47.80179508 458.33917709 -35.98791231 461.34912557 -23.11130404 462.4453038 C-22.11219693 462.5304045 -21.11308982 462.61550521 -20.08370674 462.70318472 C-8.57179411 463.60671791 2.91771185 463.62921017 14.45830655 463.60698593 C16.87094596 463.60970453 19.28358454 463.61327028 21.69622159 463.61760604 C27.5067834 463.62569702 33.31728675 463.62462701 39.12785019 463.61878076 C43.85872269 463.61422211 48.58958076 463.61366927 53.32045484 463.61582839 C53.99956497 463.61613486 54.67867511 463.61644133 55.37836435 463.61675708 C56.75890471 463.61739667 58.13944507 463.6180451 59.51998542 463.61870226 C72.39493803 463.62437385 85.26986193 463.61789744 98.14480983 463.60710153 C109.14222671 463.59816486 120.13960136 463.59972522 131.13701749 463.60893905 C143.97609735 463.61969116 156.81515222 463.62382906 169.65423596 463.61771452 C171.02844921 463.61707757 172.40266247 463.61644882 173.77687573 463.61582839 C174.45263541 463.61551984 175.12839508 463.61521129 175.82463232 463.61489339 C180.53940459 463.6131815 185.25416072 463.61604855 189.96893048 463.6207875 C196.33690873 463.62661663 202.70480814 463.6224635 209.07277799 463.61099899 C211.39250806 463.60838213 213.71224491 463.6090657 216.03197217 463.61352432 C253.04147198 463.67803395 288.94270708 459.38493054 317.41484952 433.34819686 C318.25402921 432.59022811 319.09320889 431.83225936 319.95781827 431.05132186 C338.29122969 413.65589893 348.92453405 390.45403011 350.00441861 365.21834457 C350.04400815 364.35584567 350.08359769 363.49334677 350.12438691 362.60471153 C350.5555997 352.33868809 350.55517172 342.07406941 350.54424405 331.80083358 C350.54560313 329.62022009 350.54738589 327.43960682 350.54955411 325.25899398 C350.55406766 319.39964666 350.55236433 313.54031718 350.54917502 307.6809696 C350.54662036 301.5128448 350.54899748 295.34472139 350.55056119 289.17659652 C350.55237361 278.82607904 350.55000071 268.47556872 350.54522061 258.12505233 C350.53977691 246.20074976 350.5415452 234.27646428 350.54704702 222.35216212 C350.5516012 212.06536161 350.55221753 201.77856622 350.54960835 191.49176502 C350.5480586 185.36914696 350.54781586 179.2465369 350.55114484 173.12391937 C350.55405731 167.36666848 350.55198652 161.60943941 350.54625058 155.85219085 C350.54494107 153.75373515 350.54528585 151.65527758 350.54751325 149.55682266 C350.55685354 139.85443099 350.50211299 130.16991102 350.00051236 120.47859848 C349.96596609 119.77566347 349.93141982 119.07272846 349.8958267 118.34849238 C349.3129989 108.52014128 347.76002028 97.27993677 343.41484952 88.34819686 C342.42484952 88.01819686 341.43484952 87.68819686 340.41484952 87.34819686 C340.08484952 86.35819686 339.75484952 85.36819686 339.41484952 84.34819686 C340.07484952 84.01819686 340.73484952 83.68819686 341.41484952 83.34819686 C336.84313175 74.22907898 332.15647715 66.08332752 325.41484952 58.34819686 C324.93660733 57.7384703 324.45836514 57.12874374 323.96563077 56.50054061 C315.95638509 46.42587341 303.95863728 37.67025005 292.31328702 32.23882186 C291.09018622 31.66502149 289.88414202 31.05255159 288.70391202 30.39507186 C269.09949752 19.60836345 247.17806954 20.05059977 225.49981046 20.07353866 C222.77821283 20.07027569 220.05662354 20.06406466 217.33503079 20.05805099 C210.7361722 20.04536524 204.13735441 20.04350264 197.53848568 20.04585125 C192.16854641 20.04764163 186.79861942 20.04586943 181.42868161 20.04162681 C180.6614497 20.04103162 179.89421778 20.04043643 179.10373642 20.03982321 C177.54457805 20.03861133 175.98541969 20.03739719 174.42626134 20.03618083 C159.8360591 20.02532868 145.24588004 20.02745662 130.65567651 20.03356568 C117.34441973 20.03873156 104.0332362 20.02748392 90.72199389 20.00846746 C77.01440643 19.98903675 63.30685353 19.98084228 49.59925222 19.98459071 C41.91939006 19.98649499 34.23959019 19.98409124 26.55973935 19.96987617 C20.02089914 19.95789435 13.48215957 19.95663287 6.9433178 19.96866634 C3.61539551 19.97450813 0.28780544 19.97412343 -3.04012752 19.96366394 C-33.94283609 19.87360111 -63.70581812 23.95036242 -87.58515048 45.34819686 Z " fill="#468CF0" transform="translate(166.58515048027039,14.651803135871887)"/>
<path d="M0 0 C0.33 0 0.66 0 1 0 C1.07686265 6.57951259 1.12893606 13.15890694 1.16479492 19.73876953 C1.17976387 21.97123542 1.20014629 24.2036725 1.22631836 26.43603516 C1.36630297 38.69429512 1.43045405 50.13869687 -2 62 C-2.18296631 62.74314453 -2.36593262 63.48628906 -2.55444336 64.25195312 C-10.06449664 94.67358083 -31.30433891 118.92290904 -57.44921875 135.1875 C-64.91182176 139.58533134 -72.81240134 142.53854899 -81 145.3125 C-81.960271 145.63822998 -82.92054199 145.96395996 -83.90991211 146.29956055 C-97.01926819 150.5392337 -110.37120986 152.58067616 -124.06787109 153.68066406 C-125.22716948 153.77552558 -125.22716948 153.77552558 -126.40988803 153.87230349 C-149.29452482 155.68109963 -172.23862949 155.30518819 -195.17535448 155.13518429 C-201.54705528 155.09119876 -207.91883368 155.06499096 -214.2906189 155.03643799 C-224.95912807 154.98618638 -235.62750833 154.92438498 -246.29589844 154.85400391 C-257.21415506 154.78199499 -268.13240984 154.71933174 -279.05078125 154.66748047 C-279.72628779 154.66427071 -280.40179433 154.66106094 -281.09777077 154.65775391 C-282.4591716 154.65129295 -283.82057245 154.64483412 -285.1819733 154.63837744 C-285.85395163 154.63519027 -286.52592995 154.63200309 -287.21827126 154.62871933 C-287.88884649 154.62554352 -288.55942173 154.62236771 -289.25031743 154.61909567 C-300.39778995 154.56598791 -311.54521937 154.50466328 -322.69264555 154.44266987 C-326.45222507 154.42200875 -330.2118087 154.40227822 -333.97139359 154.38262177 C-339.89305388 154.35108868 -345.81466516 154.31457974 -351.73627281 154.27438927 C-353.89236597 154.26039059 -356.0484692 154.24784435 -358.20458031 154.23695564 C-374.34853705 154.15375739 -390.57566013 153.99673319 -406.625 152.0625 C-407.34171875 151.98837891 -408.0584375 151.91425781 -408.796875 151.83789062 C-410.54170876 151.6338844 -412.27410086 151.32762105 -414 151 C-414.33 150.34 -414.66 149.68 -415 149 C-416.89090797 148.76893613 -418.78271433 148.54360111 -420.67773438 148.34912109 C-424.7258709 147.74053875 -428.43939722 146.26747855 -432.25 144.8125 C-433.08700439 144.49571289 -433.92400879 144.17892578 -434.78637695 143.85253906 C-464.70467896 132.33905953 -487.98695415 111.88228595 -502 83 C-503.87935032 78.74518451 -505.49992236 74.40223789 -507 70 C-507.66 70 -508.32 70 -509 70 C-509.103125 68.72125 -509.20625 67.4425 -509.3125 66.125 C-509.6982343 62.10553678 -510.33062571 58.19265819 -511.09350586 54.22851562 C-512.72381192 45.54138326 -513.41571652 36.95626078 -513.75 28.125 C-513.79447266 27.00875244 -513.83894531 25.89250488 -513.88476562 24.74243164 C-514.10585857 17.42414679 -513.76564158 10.28016702 -513 3 C-512.34 3 -511.68 3 -511 3 C-510.81566406 4.26070313 -510.63132812 5.52140625 -510.44140625 6.8203125 C-505.24538372 39.27821681 -489.38509514 66.08945025 -463.296875 86.0703125 C-458.92126008 89.43831546 -458.92126008 89.43831546 -453.8984375 91.5 C-452 92 -452 92 -450.66796875 93.3515625 C-448.25469003 95.73658269 -445.3573707 96.9738828 -442.3125 98.375 C-441.65693115 98.67809082 -441.0013623 98.98118164 -440.32592773 99.29345703 C-427.09607979 105.23505245 -414.28300451 107.77157297 -399.85546875 108.71875 C-397 109 -397 109 -394 110 C-392.41552671 110.09298396 -390.82741386 110.12910814 -389.24021626 110.13142776 C-387.76213079 110.13718948 -387.76213079 110.13718948 -386.25418502 110.1430676 C-385.16880814 110.14220112 -384.08343127 110.14133463 -382.96516418 110.14044189 C-381.81416109 110.14341302 -380.663158 110.14638414 -379.47727603 110.1494453 C-376.27688835 110.15663274 -373.07653334 110.15930519 -369.87613881 110.16004276 C-366.42594941 110.16189257 -362.97577166 110.16943994 -359.52558899 110.17617798 C-351.97534796 110.18976972 -344.42511223 110.19578844 -336.874861 110.20018864 C-332.15613775 110.20295186 -327.43741655 110.20718958 -322.71869469 110.21169281 C-309.64432943 110.22389078 -296.56996581 110.23418631 -283.49559498 110.2375679 C-282.23983812 110.23789725 -282.23983812 110.23789725 -280.95871244 110.23823325 C-280.11955886 110.23845153 -279.28040528 110.23866981 -278.4158228 110.2388947 C-276.71544762 110.23933816 -275.01507244 110.23978473 -273.31469727 110.24023438 C-272.47125614 110.2404558 -271.62781502 110.24067723 -270.75881507 110.24090537 C-257.1189527 110.24484589 -243.47914401 110.26227467 -229.83930234 110.2855939 C-215.82245416 110.30936314 -201.80563282 110.32177243 -187.78876418 110.32293582 C-179.9243555 110.32384991 -172.06001658 110.32953396 -164.19562721 110.34775543 C-157.49214645 110.36323237 -150.78875699 110.36823278 -144.08526174 110.36001733 C-140.67057438 110.35613629 -137.25621835 110.35857844 -133.84152985 110.37107468 C-120.22892096 110.41794422 -107.25159886 110.3682998 -94 107 C-92.16676288 106.54979933 -92.16676288 106.54979933 -90.29649067 106.09050369 C-60.39283393 98.46599131 -33.19253482 79.37694887 -17 53 C-14.0050314 47.817562 -11.43319154 42.46505705 -9 37 C-8.71108887 36.36368652 -8.42217773 35.72737305 -8.12451172 35.07177734 C-3.07893208 23.73303671 -1.32212018 12.28246065 0 0 Z " fill="#1D42BB" transform="translate(535,384)"/>
<path d="M0 0 C1.75821662 1.60283148 3.37136718 3.26136572 5 5 C4.46427368 5.68606323 4.46427368 5.68606323 3.91772461 6.38598633 C-2.80489417 15.01914153 -9.40436162 23.57897974 -15 33 C-18.51007574 31.69537008 -21.53427289 30.13681102 -24.6875 28.125 C-42.63281925 17.2626639 -65.93646643 14.69454892 -86.48828125 18.0859375 C-94.32327907 20.1253029 -102.76076189 23.18111159 -107.3125 30.25 C-110.48746106 36.5246266 -111.28543833 42.89740943 -109.1640625 49.66796875 C-104.46785925 60.08471489 -96.71193235 63.37965695 -86.48095703 67.35888672 C-77.28969999 70.80647366 -67.80669458 73.44977077 -58.40283203 76.24731445 C-25.30785812 86.125744 -25.30785812 86.125744 -14 95 C-12.66388672 96.01900391 -12.66388672 96.01900391 -11.30078125 97.05859375 C4.01607872 109.11565815 12.64110443 122.5927228 15 142 C16.22145084 157.14993053 12.12388954 170.91297812 3 183 C2.44828125 183.74121094 1.8965625 184.48242188 1.328125 185.24609375 C-12.71746424 202.56298476 -36.21567784 208.98346987 -57.48046875 211.625 C-90.80617957 214.85399266 -128.57173167 209.89689415 -155.24829102 188.21337891 C-162.5367002 182.04473182 -162.5367002 182.04473182 -163.98046875 178.7890625 C-164 177 -164 177 -162.1875 174.75 C-160 173 -160 173 -158 173 C-157.773125 172.443125 -157.54625 171.88625 -157.3125 171.3125 C-155.61427198 168.32038397 -153.49235804 166.38399465 -151 164 C-149.59984208 162.62940396 -148.20425612 161.25412675 -146.8125 159.875 C-146.13832031 159.21242188 -145.46414063 158.54984375 -144.76953125 157.8671875 C-142.82446642 155.92056683 -142.82446642 155.92056683 -141 153 C-137.75502096 154.44383337 -135.45868851 156.27387322 -132.8125 158.625 C-123.54715216 166.16081624 -111.59003005 171.2662337 -100 174 C-99.67 173.34 -99.34 172.68 -99 172 C-98.67 172.66 -98.34 173.32 -98 174 C-81.76491754 177.59801358 -61.19766227 178.39066326 -46.375 170.125 C-40.54341015 166.2213662 -37.49663475 162.16663879 -35.48046875 155.4609375 C-34.31566653 149.49487733 -35.08150559 144.05515954 -38.0625 138.75 C-44.69644691 129.29471935 -55.9250675 125.12134048 -66.5 121.6875 C-67.40000732 121.39045166 -68.30001465 121.09340332 -69.22729492 120.78735352 C-76.21129074 118.51086195 -83.25056209 116.45655596 -90.3125 114.4375 C-114.73892017 107.39842606 -136.52587943 99.12551637 -151 77 C-159.42520221 61.43791533 -160.99532663 44.66143943 -156.03125 27.6875 C-151.6814728 15.22597614 -144.20923653 6.19637444 -134 -2 C-133.32710938 -2.54269531 -132.65421875 -3.08539063 -131.9609375 -3.64453125 C-121.01395885 -11.65400018 -107.23549179 -15.86524326 -94 -18 C-93.00097656 -18.18175781 -92.00195312 -18.36351562 -90.97265625 -18.55078125 C-60.22519015 -22.02763337 -25.69155024 -18.39681368 0 0 Z " fill="#173FCA" transform="translate(442,159)"/>
<path d="M0 0 C50.16 0 100.32 0 152 0 C152 10.89 152 21.78 152 33 C116.03 33 80.06 33 43 33 C43.33 52.8 43.66 72.6 44 93 C74.36 93 104.72 93 136 93 C136 104.22 136 115.44 136 127 C121.37125777 128.12528786 121.37125777 128.12528786 115.25708008 128.12939453 C114.58849472 128.13114685 113.91990936 128.13289917 113.23106384 128.13470459 C111.07719118 128.13901426 108.92340436 128.13622553 106.76953125 128.1328125 C105.24265019 128.13348844 103.71576924 128.13446086 102.18888855 128.13571167 C99.01304077 128.13717369 95.83722139 128.13508186 92.66137695 128.13037109 C88.61701364 128.12466001 84.57271652 128.12797108 80.5283556 128.13394356 C77.3840028 128.13757734 74.23966541 128.13639795 71.09531212 128.13381577 C69.60476358 128.13315504 68.11421359 128.13394457 66.62366676 128.13629532 C64.53398618 128.1388703 62.4444093 128.13491484 60.35473633 128.12939453 C59.17261063 128.12859894 57.99048492 128.12780334 56.77253723 128.12698364 C52.16895445 127.972027 47.58333032 127.45833303 43 127 C43 147.79 43 168.58 43 190 C78.97 190 114.94 190 152 190 C152 201.55 152 213.1 152 225 C135.57771447 225.02270732 119.15544266 225.04107168 102.73314571 225.05181217 C95.10537587 225.0569351 87.47761658 225.06389996 79.84985352 225.07543945 C73.18966446 225.08551024 66.52948306 225.0918824 59.8692866 225.09408849 C56.35353652 225.09537491 52.83780831 225.09832559 49.32206535 225.10573006 C32.85155404 225.13911104 16.44791957 224.8942717 0 224 C-0.81402109 218.30700972 -1.14312167 212.80738269 -1.12698364 207.06123352 C-1.12854363 206.1962964 -1.13010362 205.33135929 -1.13171089 204.44021195 C-1.13567885 201.56079095 -1.13254764 198.68142328 -1.12939453 195.80200195 C-1.13075041 193.73014292 -1.13253139 191.65828412 -1.13470459 189.58642578 C-1.13925588 183.97310043 -1.13749905 178.3597935 -1.1343255 172.74646783 C-1.13179103 166.86981167 -1.13414238 160.99315707 -1.13571167 155.11650085 C-1.13752975 145.25173662 -1.13513606 135.38697989 -1.13037109 125.5222168 C-1.12492465 114.11481957 -1.12669536 102.7074402 -1.1321975 91.3000434 C-1.13673351 81.50370516 -1.13737692 71.70737229 -1.13475883 61.91103333 C-1.13319933 56.06084188 -1.13299346 50.21065883 -1.13629532 44.36046791 C-1.13918125 38.86360206 -1.137185 33.36675929 -1.13140106 27.86989594 C-1.13007755 25.85145544 -1.13046067 23.83301301 -1.13266373 21.81457329 C-1.13539109 19.06229438 -1.13197462 16.31008971 -1.12698364 13.55781555 C-1.12921436 12.75684663 -1.13144509 11.9558777 -1.13374341 11.13063699 C-1.11990844 7.20459549 -0.77770027 3.88850135 0 0 Z " fill="#18191A" transform="translate(112,143)"/>
<path d="M0 0 C0.33 0 0.66 0 1 0 C1.1773051 10.30963377 1.34323628 20.6193825 1.49477577 30.92942905 C1.56550143 35.71714195 1.64009707 40.50472845 1.72363281 45.29223633 C1.80415261 49.91514982 1.87438143 54.53811706 1.93757248 59.16129875 C1.96343306 60.92232937 1.99295889 62.68331022 2.02626419 64.44421577 C2.07239166 66.91663457 2.10531037 69.38891163 2.13525391 71.86157227 C2.1517952 72.58446442 2.16833649 73.30735657 2.18537903 74.05215454 C2.22404985 78.71296773 1.37891721 82.56839664 0 87 C0 88.03125 0 89.0625 0 90.125 C0 93.30770939 -0.70344243 95.11876095 -2 98 C-2.4640625 99.3921875 -2.4640625 99.3921875 -2.9375 100.8125 C-5.02363985 107.07091955 -6.9187768 112.73390555 -11 118 C-11.66 118 -12.32 118 -13 118 C-13.3403125 119.546875 -13.3403125 119.546875 -13.6875 121.125 C-14.88861035 125.36777109 -16.93564546 127.8590366 -20 131 C-20.66 131 -21.32 131 -22 131 C-22.27199219 131.58523438 -22.54398437 132.17046875 -22.82421875 132.7734375 C-26.30439187 139.36379855 -32.00834285 144.01558716 -37.8125 148.5 C-38.38782471 148.94553223 -38.96314941 149.39106445 -39.5559082 149.85009766 C-43.73784569 153 -43.73784569 153 -46 153 C-46 153.99 -46 154.98 -46 156 C-47.051875 156.1546875 -47.051875 156.1546875 -48.125 156.3125 C-51.44459091 157.10631522 -53.9625467 158.42502422 -57 160 C-63.54324759 163.13424612 -70.05471008 165.89656934 -77 168 C-78.175625 168.37125 -79.35125 168.7425 -80.5625 169.125 C-84.40094052 170.10205759 -88.06454883 170.55567487 -92 171 C-92.77601563 171.16371094 -93.55203125 171.32742188 -94.3515625 171.49609375 C-98.35792488 172.25836624 -102.3889498 172.44119657 -106.453125 172.71875 C-108.93230144 172.72389452 -108.93230144 172.72389452 -110 174 C-111.38186991 174.0973584 -112.76868497 174.12555416 -114.15398026 174.12584114 C-115.50564077 174.12975276 -115.50564077 174.12975276 -116.88460755 174.13374341 C-117.88603972 174.13151268 -118.88747189 174.12928196 -119.91925049 174.12698364 C-120.97421715 174.12854363 -122.0291838 174.13010362 -123.11611915 174.13171089 C-126.68061673 174.13572598 -130.24507235 174.13252924 -133.80957031 174.12939453 C-136.35329717 174.13074838 -138.89702383 174.13252822 -141.44075012 174.13470459 C-147.65133925 174.13880553 -153.86191263 174.13818514 -160.07250199 174.13529195 C-165.12011047 174.13303755 -170.16771556 174.13272556 -175.2153244 174.13381577 C-176.29118359 174.13404561 -176.29118359 174.13404561 -177.3887773 174.13428011 C-178.84569011 174.13459982 -180.30260292 174.13492404 -181.75951573 174.1352527 C-195.43935007 174.13810803 -209.11917772 174.13482006 -222.79901096 174.12945233 C-234.53967603 174.12498806 -246.28033121 174.12575702 -258.02099609 174.13037109 C-271.64422988 174.13572249 -285.26745778 174.13782931 -298.89069247 174.13475883 C-300.34359916 174.13444027 -301.79650585 174.1341259 -303.24941254 174.13381577 C-303.96431855 174.13366149 -304.67922456 174.13350721 -305.41579439 174.13334826 C-310.45592134 174.13248452 -315.49604458 174.133943 -320.53617096 174.13629532 C-327.32238182 174.1393928 -334.10857111 174.13718744 -340.89478111 174.13140106 C-343.38892015 174.13007643 -345.88306076 174.13046258 -348.37719917 174.13266373 C-351.77575916 174.13538692 -355.17425882 174.13197957 -358.57281494 174.12698364 C-359.56532422 174.12921436 -360.5578335 174.13144509 -361.58041883 174.13374341 C-362.49195682 174.13113566 -363.40349482 174.12852791 -364.34265518 174.12584114 C-365.12699503 174.12567879 -365.91133488 174.12551644 -366.71944261 174.12534916 C-369.22359726 173.98771014 -371.55114769 173.52953123 -374 173 C-375.68481335 172.78972283 -377.37260766 172.60204902 -379.0625 172.4375 C-379.89910156 172.35371094 -380.73570312 172.26992188 -381.59765625 172.18359375 C-383.72644064 172.02090616 -385.86500814 172 -388 172 C-390.26171875 171.23046875 -390.26171875 171.23046875 -392.6875 170.1875 C-396.62468184 168.54700757 -400.5618659 167.10840461 -404.6171875 165.79296875 C-409.11379404 164.29655706 -413.55319779 162.63742063 -418 161 C-418 160.34 -418 159.68 -418 159 C-418.9075 158.71125 -419.815 158.4225 -420.75 158.125 C-423.32202908 157.23468224 -425.61346766 156.28505587 -428 155 C-428 154.34 -428 153.68 -428 153 C-428.721875 152.938125 -429.44375 152.87625 -430.1875 152.8125 C-433.88345746 151.74477896 -435.36347213 149.76513898 -438 147 C-438.94875 146.401875 -439.8975 145.80375 -440.875 145.1875 C-445.64567189 141.84802968 -450.1312478 137.6062566 -452 132 C-452.99 132 -453.98 132 -455 132 C-455.268125 131.21625 -455.53625 130.4325 -455.8125 129.625 C-456.84814432 126.71885077 -456.84814432 126.71885077 -460 125 C-460.144375 124.38125 -460.28875 123.7625 -460.4375 123.125 C-460.84180606 120.83587569 -460.84180606 120.83587569 -462.87890625 119.24609375 C-465.37374307 116.60423156 -466.27377162 114.34691201 -467.5 110.9375 C-467.92023438 109.77734375 -468.34046875 108.6171875 -468.7734375 107.421875 C-469.17820312 106.29265625 -469.58296875 105.1634375 -470 104 C-470.36351562 103.09765625 -470.72703125 102.1953125 -471.1015625 101.265625 C-477.56105482 84.99362146 -477.38667942 68.72964613 -477.1875 51.5 C-477.17241699 49.21224845 -477.15873503 46.92448722 -477.14648438 44.63671875 C-477.11378636 39.09093072 -477.06387749 33.54551208 -477 28 C-476.67 28 -476.34 28 -476 28 C-475.98018066 28.84369141 -475.96036133 29.68738281 -475.93994141 30.55664062 C-474.92654491 71.8315519 -473.5734642 107.98472273 -443 139 C-442.29359375 139.71929687 -441.5871875 140.43859375 -440.859375 141.1796875 C-436.20018359 145.60769766 -431.03700965 149.07217269 -425.625 152.5 C-424.92221924 152.94617676 -424.21943848 153.39235352 -423.49536133 153.85205078 C-419.54276417 156.35072674 -419.54276417 156.35072674 -415 157 C-415 157.66 -415 158.32 -415 159 C-386.44337819 168.86501481 -359.66550898 170.15309725 -329.59912109 170.14526367 C-327.25544685 170.14826562 -324.9117731 170.15167047 -322.56809998 170.15544128 C-316.27692761 170.16417537 -309.98576889 170.16661473 -303.69459105 170.16725707 C-299.08326954 170.16809401 -294.47195097 170.17100418 -289.86063052 170.17409355 C-277.4328971 170.18236176 -265.00517078 170.18614 -252.5774347 170.18542381 C-251.87609024 170.18538386 -251.17474577 170.1853439 -250.45214844 170.18530273 C-249.74992533 170.18526185 -249.04770223 170.18522097 -248.32419963 170.18517885 C-236.93611513 170.18477211 -225.54806364 170.19435777 -214.15998869 170.2084411 C-202.39911775 170.22286822 -190.63826287 170.229708 -178.87738287 170.22884732 C-172.30142522 170.2285178 -165.72549806 170.2313577 -159.14954758 170.24202538 C-152.96542882 170.25178685 -146.78138293 170.25173102 -140.59726143 170.24450874 C-138.34525634 170.24347318 -136.09324651 170.24576356 -133.84124947 170.2518692 C-96.99204739 170.34520713 -61.34539586 165.85498568 -33 140 C-32.23429687 139.31550781 -31.46859375 138.63101563 -30.6796875 137.92578125 C-12.81868677 121.09163248 -2.50272917 97.76012833 -1.40234375 73.3359375 C-1.3624231 72.49248779 -1.32250244 71.64903809 -1.28137207 70.7800293 C-0.74700263 57.86217895 -0.9325629 44.9254448 -1 32 C-1.02695983 26.79167748 -1.04652133 21.58336808 -1.0625 16.375 C-1.07494751 14.59706055 -1.07494751 14.59706055 -1.08764648 12.78320312 C-1.09094971 11.68685547 -1.09425293 10.59050781 -1.09765625 9.4609375 C-1.10551147 8.01920166 -1.10551147 8.01920166 -1.11352539 6.54833984 C-1.00932409 4.2093007 -0.66591426 2.23639223 0 0 Z " fill="#2754CE" transform="translate(517,307)"/>
<path d="M0 0 C92.4 0 184.8 0 280 0 C280 0.33 280 0.66 280 1 C278.35 1 276.7 1 275 1 C275 1.66 275 2.32 275 3 C274.11796402 2.99666908 274.11796402 2.99666908 273.21810913 2.99327087 C267.08600473 2.97111021 260.95391175 2.9560484 254.82177734 2.94506836 C252.53466327 2.94004636 250.24755239 2.93322753 247.96044922 2.92456055 C244.66893727 2.91240155 241.37746785 2.90675027 238.0859375 2.90234375 C236.55747696 2.89460182 236.55747696 2.89460182 234.99813843 2.88670349 C230.19569793 2.88632586 225.73320113 3.09958386 221 4 C217.68078871 3.86368742 214.40394071 3.61581929 211.09765625 3.31640625 C210.42863281 3.26355469 209.75960937 3.21070313 209.0703125 3.15625 C208.48008301 3.10275391 207.88985352 3.04925781 207.28173828 2.99414062 C204.81878537 2.94455878 204.81878537 2.94455878 201.69421387 3.5 C195.67994801 4.26603948 189.66224668 4.07654187 183.61083984 4.00585938 C182.26966248 3.99405928 180.92848077 3.98274553 179.58729553 3.97187805 C176.71339599 3.94761987 173.8395538 3.92008009 170.96570969 3.88996887 C166.41839799 3.84246889 161.87103751 3.80314431 157.32363892 3.76501465 C147.67403202 3.68296197 138.0245173 3.59190587 128.375 3.5 C117.9489303 3.40074965 107.52285914 3.30310983 97.09668314 3.2156148 C92.57898397 3.17739867 88.0613714 3.13408706 83.54375815 3.08683014 C80.73229599 3.05846138 77.92080867 3.03444252 75.1092968 3.01158714 C73.19011399 2.99466733 71.27097975 2.97249282 69.35185242 2.95014954 C68.20242661 2.94166489 67.05300079 2.93318024 65.8687439 2.92443848 C64.87438009 2.91484352 63.88001629 2.90524857 62.85552025 2.89536285 C59.82930287 3.00625499 56.97778732 3.4659196 54 4 C52.3010391 4.05935421 50.59979878 4.07184865 48.90014648 4.03759766 C47.93572128 4.02072906 46.97129608 4.00386047 45.97764587 3.98648071 C44.95248367 3.9625827 43.92732147 3.93868469 42.87109375 3.9140625 C41.27020653 3.88220352 41.27020653 3.88220352 39.63697815 3.84970093 C37.38691565 3.80356194 35.13690863 3.75464433 32.88696289 3.703125 C29.44623983 3.62519794 26.00542592 3.55805285 22.56445312 3.4921875 C20.37498632 3.44595605 18.18553254 3.39910213 15.99609375 3.3515625 C14.4553141 3.32178818 14.4553141 3.32178818 12.88340759 3.29141235 C11.92213455 3.26823944 10.96086151 3.24506653 9.97045898 3.22119141 C8.70853981 3.19335068 8.70853981 3.19335068 7.42112732 3.16494751 C4.87787485 2.99167981 2.48626853 2.55211135 0 2 C0 1.34 0 0.68 0 0 Z " fill="#55A6FA" transform="translate(140,15)"/>
<path d="M0 0 C0.33 0 0.66 0 1 0 C2.12579415 43.43567723 2.12476505 86.85854945 2.07202661 130.30545986 C2.06059662 139.89769076 2.0552882 149.48992261 2.05032361 159.08215868 C2.04003052 178.72144686 2.02258653 198.36072229 2 218 C1.5359375 217.0409375 1.5359375 217.0409375 1.0625 216.0625 C0.1654837 214.06389179 0.1654837 214.06389179 -1 213 C-1.1000766 210.28599055 -1.13439795 207.59735843 -1.12698364 204.88282776 C-1.12854363 204.02175492 -1.13010362 203.16068208 -1.13171089 202.27351612 C-1.1357247 199.36535116 -1.13252976 196.45723768 -1.12939453 193.54907227 C-1.13074841 191.47337819 -1.13252827 189.39768435 -1.13470459 187.32199097 C-1.13928076 181.6671316 -1.13748853 176.01229039 -1.1343255 170.3574307 C-1.13180251 164.452637 -1.1341393 158.5478449 -1.13571167 152.64305115 C-1.13753369 142.72386393 -1.13512637 132.80468414 -1.13037109 122.88549805 C-1.12492991 111.40263827 -1.12668996 99.91979626 -1.1321975 88.43693691 C-1.1367295 78.59577646 -1.1373787 68.75462136 -1.13475883 58.9134602 C-1.13319634 53.02804869 -1.13300149 47.14264555 -1.13629532 41.25723457 C-1.13917524 35.72435674 -1.13719609 30.19150189 -1.13140106 24.65862656 C-1.13007405 22.6228063 -1.13046658 20.58698413 -1.13266373 18.55116463 C-1.13537757 15.78213523 -1.13199116 13.01318047 -1.12698364 10.24415588 C-1.12921436 9.4296736 -1.13144509 8.61519131 -1.13374341 7.77602774 C-1.11414993 2.22829987 -1.11414993 2.22829987 0 0 Z " fill="#202225" transform="translate(112,146)"/>
<path d="M0 0 C35.97 0 71.94 0 109 0 C109 10.89 109 21.78 109 33 C84.70092879 34.00415972 60.44752898 34.15606241 36.13012695 34.13037109 C30.64256672 34.1246501 25.15505518 34.12798446 19.66749668 34.13394356 C15.35428008 34.13759861 11.04107457 34.1363886 6.72785759 34.13381577 C4.70658296 34.13316139 2.68530723 34.13392094 0.66403389 34.13629532 C-13.58193932 34.14938204 -27.77258244 33.72824275 -42 33 C-42 32.34 -42 31.68 -42 31 C7.5 31 57 31 108 31 C108 21.43 108 11.86 108 2 C104.83494873 2.01047363 101.66989746 2.02094727 98.40893555 2.03173828 C87.96748281 2.06483445 77.5260278 2.08695224 67.08453655 2.10362434 C60.75204895 2.11407459 54.41961495 2.12825644 48.0871582 2.15087891 C41.97934757 2.17256301 35.87158859 2.18455927 29.76374245 2.18975449 C27.43007404 2.19345822 25.09640856 2.20069038 22.76276207 2.21146011 C19.5015279 2.22591603 16.24050894 2.22798041 12.97924805 2.22705078 C12.00820633 2.23424133 11.03716461 2.24143188 10.03669739 2.24884033 C8.70528214 2.24471634 8.70528214 2.24471634 7.3469696 2.24050903 C6.18965851 2.24327441 6.18965851 2.24327441 5.0089674 2.24609566 C3 2 3 2 0 0 Z " fill="#050608" transform="translate(154,334)"/>
<path d="M0 0 C0.66 0.33 1.32 0.66 2 1 C3.46439033 1.09307849 4.93297096 1.12373802 6.40031624 1.12304783 C7.33088156 1.12503888 8.26144688 1.12702993 9.22021115 1.12908131 C10.76396099 1.12471205 10.76396099 1.12471205 12.33889771 1.12025452 C13.97079837 1.12153615 13.97079837 1.12153615 15.63566673 1.12284368 C19.3054674 1.12449954 22.97522303 1.11897536 26.64501953 1.11352539 C29.26597085 1.11324352 31.88692226 1.11340126 34.50787354 1.1139679 C40.16311236 1.11449301 45.81833967 1.11134747 51.47357559 1.10573006 C59.65016216 1.09761342 67.82674315 1.09499967 76.00333332 1.09374207 C89.26833865 1.0915518 102.53333784 1.08489241 115.79833984 1.07543945 C128.68636036 1.06626467 141.57437922 1.05918416 154.46240234 1.05493164 C155.25641772 1.05466892 156.0504331 1.05440619 156.86850955 1.05413551 C160.85173122 1.0528305 164.83495291 1.05156679 168.8181746 1.05032361 C201.87878754 1.0399518 234.93939295 1.02233418 268 1 C268.33 1.66 268.66 2.32 269 3 C266.41002403 4.29498798 264.51949017 4.14240718 261.6177063 4.16494751 C260.47023045 4.17618432 259.32275459 4.18742113 258.14050674 4.19899845 C256.87098034 4.20632213 255.60145393 4.2136458 254.29345703 4.22119141 C252.9422358 4.23239403 251.59101788 4.24400094 250.23980331 4.25598049 C246.52875434 4.28747166 242.81768656 4.31249782 239.10658026 4.33614087 C235.9503314 4.35686429 232.79411017 4.38082591 229.63788378 4.40469462 C220.24682165 4.47543823 210.85570884 4.53544947 201.46455383 4.59233475 C197.03233326 4.61922031 192.60012484 4.64771978 188.16791773 4.67673129 C123.7683233 5.09726444 59.39584787 4.85807617 -5 4 C-5.33 3.34 -5.66 2.68 -6 2 C-4.02 2 -2.04 2 0 2 C0 1.34 0 0.68 0 0 Z " fill="#54A2F9" transform="translate(148,31)"/>
<path d="M0 0 C0.33 0 0.66 0 1 0 C1.1773051 10.30963377 1.34323628 20.6193825 1.49477577 30.92942905 C1.56550143 35.71714195 1.64009707 40.50472845 1.72363281 45.29223633 C1.80415261 49.91514982 1.87438143 54.53811706 1.93757248 59.16129875 C1.96343306 60.92232937 1.99295889 62.68331022 2.02626419 64.44421577 C2.07239166 66.91663457 2.10531037 69.38891163 2.13525391 71.86157227 C2.1517952 72.58446442 2.16833649 73.30735657 2.18537903 74.05215454 C2.22404985 78.71296773 1.37891721 82.56839664 0 87 C0 88.03125 0 89.0625 0 90.125 C0 93.30770939 -0.70344243 95.11876095 -2 98 C-2.309375 98.928125 -2.61875 99.85625 -2.9375 100.8125 C-5.02363985 107.07091955 -6.9187768 112.73390555 -11 118 C-11.66 118 -12.32 118 -13 118 C-13.226875 119.03125 -13.45375 120.0625 -13.6875 121.125 C-14.88861035 125.36777109 -16.93564546 127.8590366 -20 131 C-20.66 131 -21.32 131 -22 131 C-22.27199219 131.58523438 -22.54398437 132.17046875 -22.82421875 132.7734375 C-26.30439187 139.36379855 -32.00834285 144.01558716 -37.8125 148.5 C-38.38782471 148.94553223 -38.96314941 149.39106445 -39.5559082 149.85009766 C-43.73784569 153 -43.73784569 153 -46 153 C-46 153.99 -46 154.98 -46 156 C-46.721875 156.12375 -47.44375 156.2475 -48.1875 156.375 C-50.95721894 156.9904931 -53.3970354 157.88444374 -56 159 C-56.66 158.34 -57.32 157.68 -58 157 C-57.11699219 156.52691406 -56.23398437 156.05382812 -55.32421875 155.56640625 C-47.16929542 151.10923418 -39.93702319 146.24762958 -33 140 C-32.23171875 139.31421875 -31.4634375 138.6284375 -30.671875 137.921875 C-12.82279409 121.07134408 -2.50305487 97.76735753 -1.40234375 73.3359375 C-1.3624231 72.49248779 -1.32250244 71.64903809 -1.28137207 70.7800293 C-0.74700263 57.86217895 -0.9325629 44.9254448 -1 32 C-1.02695983 26.79167748 -1.04652133 21.58336808 -1.0625 16.375 C-1.07079834 15.18970703 -1.07909668 14.00441406 -1.08764648 12.78320312 C-1.09260132 11.13868164 -1.09260132 11.13868164 -1.09765625 9.4609375 C-1.10289307 8.49978027 -1.10812988 7.53862305 -1.11352539 6.54833984 C-1.00932409 4.2093007 -0.66591426 2.23639223 0 0 Z " fill="#2A57D0" transform="translate(517,307)"/>
<path d="M0 0 C50.16 0 100.32 0 152 0 C152 10.89 152 21.78 152 33 C116.03 33 80.06 33 43 33 C43 53.46 43 73.92 43 95 C42.67 95 42.34 95 42 95 C41.39735967 73.99734337 40.80954487 53.0135493 41 32 C40.34 31.67 39.68 31.34 39 31 C75.96 31.33 112.92 31.66 151 32 C151 21.77 151 11.54 151 1 C101.17 1 51.34 1 0 1 C0 0.67 0 0.34 0 0 Z " fill="#282B32" transform="translate(112,143)"/>
<path d="M0 0 C0.33 0 0.66 0 1 0 C1.13182547 22.12632931 1.26226655 44.25266642 1.39115143 66.37901306 C1.45105364 76.65746437 1.51137405 86.93591287 1.57275391 97.21435547 C1.62638133 106.19479625 1.6791479 115.17524165 1.73096704 124.15569305 C1.75831839 128.89096955 1.7860418 133.62624307 1.81480408 138.36151123 C1.84192632 142.83304089 1.86812019 147.30457487 1.89338398 151.77611542 C1.90320492 153.51139176 1.9132118 155.24666706 1.92341137 156.98194122 C1.97953667 166.69963361 2.00504517 176.4164384 1.97827148 186.13427734 C1.9762364 187.04696097 1.97420131 187.9596446 1.97210455 188.89998531 C1.96226972 193.25295292 1.94773006 197.60578412 1.92328644 201.95869446 C1.89560584 209.25047802 1.94337924 216.4654708 2.7768631 223.72175598 C3.14556245 227.48620321 3.06195429 231.22078837 3 235 C2.01 235 1.02 235 0 235 C-0.98246928 230.89891152 -1.12675484 227.06564868 -1.12939453 222.85400391 C-1.13112419 222.14074416 -1.13285385 221.42748442 -1.13463593 220.69261074 C-1.13902471 218.28723842 -1.1360178 215.88193592 -1.1328125 213.4765625 C-1.13383328 211.72228474 -1.13517565 209.96800715 -1.1368103 208.21372986 C-1.1395558 203.37127134 -1.13495058 198.52884408 -1.12857056 193.68638992 C-1.1250015 190.62628331 -1.12337879 187.56618144 -1.12231445 184.506073 C-1.09602506 123.00291798 -0.52115421 61.50055692 0 0 Z " fill="#4484E8" transform="translate(22,152)"/>
<path d="M0 0 C3.24497904 1.44383337 5.54131149 3.27387322 8.1875 5.625 C17.45284784 13.16081624 29.40996995 18.2662337 41 21 C41.33 20.34 41.66 19.68 42 19 C42.495 19.99 42.495 19.99 43 21 C45.5315866 21.63801836 47.99839502 22.16687368 50.5625 22.625 C51.27341797 22.7590625 51.98433594 22.893125 52.71679688 23.03125 C54.47642553 23.36191847 56.23804548 23.68195767 58 24 C58 24.33 58 24.66 58 25 C36.95678182 26.08844232 16.59408046 16.55241756 1 3 C0.23816406 3.83402344 -0.52367187 4.66804688 -1.30859375 5.52734375 C-7.39794639 12.17162278 -13.55277166 18.69929958 -20 25 C-8.52191568 40.98733174 11.82428454 47.91177817 30 53 C30 53.33 30 53.66 30 54 C13.28008808 53.58483289 -3.32522042 44.3840054 -15.875 33.75 C-16.47626709 33.24267334 -17.07753418 32.73534668 -17.69702148 32.21264648 C-20.59074652 29.65139738 -22.55931692 27.90706715 -23 24 C-21.1875 21.75 -21.1875 21.75 -19 20 C-18.34 20 -17.68 20 -17 20 C-16.773125 19.443125 -16.54625 18.88625 -16.3125 18.3125 C-14.61427198 15.32038397 -12.49235804 13.38399465 -10 11 C-8.59984208 9.62940396 -7.20425612 8.25412675 -5.8125 6.875 C-5.13832031 6.21242188 -4.46414063 5.54984375 -3.76953125 4.8671875 C-1.82446642 2.92056683 -1.82446642 2.92056683 0 0 Z " fill="#19339A" transform="translate(301,312)"/>
<path d="M0 0 C64.02 0 128.04 0 194 0 C194 0.66 194 1.32 194 2 C193.11796402 1.99666908 193.11796402 1.99666908 192.21810913 1.99327087 C186.08600473 1.97111021 179.95391175 1.9560484 173.82177734 1.94506836 C171.53466327 1.94004636 169.24755239 1.93322753 166.96044922 1.92456055 C163.66893727 1.91240155 160.37746785 1.90675027 157.0859375 1.90234375 C155.55747696 1.89460182 155.55747696 1.89460182 153.99813843 1.88670349 C153.03759552 1.88662796 152.07705261 1.88655243 151.08740234 1.88647461 C150.24801117 1.884254 149.40862 1.88203339 148.54379272 1.87974548 C145.95036773 1.94111158 145.95036773 1.94111158 143.25056076 2.53405762 C139.82264178 3.02542291 136.89088363 2.89321529 133.44723511 2.57533264 C126.5665732 2.01380634 119.74534766 1.82989408 112.84423828 1.79467773 C111.61324402 1.78477814 110.38224976 1.77487854 109.11395264 1.76467896 C105.78844699 1.73879353 102.46296149 1.71681051 99.13741922 1.69667697 C95.64341772 1.67456259 92.14945615 1.64730043 88.65548706 1.62062073 C82.06152221 1.57103325 75.46753479 1.52597093 68.87352645 1.48259836 C61.35699433 1.43293271 53.84050233 1.37812494 46.32400918 1.32291877 C30.88271001 1.20962097 15.44137371 1.10267169 0 1 C0 0.67 0 0.34 0 0 Z " fill="#4199FE" transform="translate(221,16)"/>
<path d="M0 0 C0.495 1.485 0.495 1.485 1 3 C-14.83342339 22.51816017 -36.93689546 30.57617678 -61.48046875 33.625 C-75.25722668 34.95985676 -89.23505605 34.38621733 -102.9375 32.625 C-103.93217285 32.49899414 -104.9268457 32.37298828 -105.95166016 32.24316406 C-111.13186279 31.50901978 -111.13186279 31.50901978 -113 31 C-113.33 30.34 -113.66 29.68 -114 29 C-113.1735498 29.06421143 -112.34709961 29.12842285 -111.49560547 29.19458008 C-81.6535104 31.76165805 -81.6535104 31.76165805 -52 29 C-50.53916315 28.75071158 -49.0782196 28.50204779 -47.6171875 28.25390625 C-29.28541983 24.90086637 -12.79776912 16.32622567 -1.0625 1.5625 C-0.711875 1.046875 -0.36125 0.53125 0 0 Z " fill="#1A36AA" transform="translate(446,337)"/>
<path d="M0 0 C0.33 0 0.66 0 1 0 C1.40405987 5.21237234 0.03039197 9.04279782 -2.125 13.6875 C-2.44629883 14.39374512 -2.76759766 15.09999023 -3.09863281 15.82763672 C-4.04939339 17.89326046 -5.02036102 19.94794141 -6 22 C-6.69996094 23.48306641 -6.69996094 23.48306641 -7.4140625 24.99609375 C-20.65589311 51.05384813 -45.67558352 70.48819605 -72.73046875 80.50390625 C-75.21060202 81.04603521 -76.62520695 80.82435345 -79 80 C-78.195625 79.70609375 -78.195625 79.70609375 -77.375 79.40625 C-61.68059785 73.41759655 -46.57749333 65.68248954 -34.2890625 54.11328125 C-32 52 -32 52 -29.55078125 50.14453125 C-26.42400115 47.51573756 -24.04932847 44.59941009 -21.5625 41.375 C-21.08022949 40.75399414 -20.59795898 40.13298828 -20.10107422 39.49316406 C-16.31462016 34.54920618 -12.95456772 29.48836108 -10 24 C-9.57332031 23.2265625 -9.14664063 22.453125 -8.70703125 21.65625 C-5.03860714 14.70317537 -2.51616608 7.43072027 0 0 Z " fill="#1A36A5" transform="translate(530,448)"/>
<path d="M0 0 C0.75958008 0.0093457 1.51916016 0.01869141 2.30175781 0.02832031 C3.16784668 0.03283203 4.03393555 0.03734375 4.92626953 0.04199219 C6.32643311 0.07389648 6.32643311 0.07389648 7.75488281 0.10644531 C9.19565186 0.12288086 9.19565186 0.12288086 10.66552734 0.13964844 C21.45463735 0.30018509 32.22889053 0.82429755 43.00488281 1.35644531 C43.00488281 11.91644531 43.00488281 22.47644531 43.00488281 33.35644531 C37.95094391 33.40239021 32.89773144 33.44220529 27.84375 33.46630859 C26.124975 33.47635801 24.40621706 33.48999976 22.6875 33.50732422 C20.2151264 33.53161922 17.74297912 33.54293899 15.27050781 33.55175781 C14.5036969 33.56208038 13.73688599 33.57240295 12.94683838 33.58303833 C8.81685259 33.5839043 6.80109709 33.25455245 3.00488281 31.35644531 C15.87488281 31.35644531 28.74488281 31.35644531 42.00488281 31.35644531 C42.00488281 22.11644531 42.00488281 12.87644531 42.00488281 3.35644531 C26.49488281 3.35644531 10.98488281 3.35644531 -4.99511719 3.35644531 C-1.99511719 0.35644531 -1.99511719 0.35644531 0 0 Z " fill="#06060A" transform="translate(203.9951171875,235.6435546875)"/>
<path d="M0 0 C0.66 0.66 1.32 1.32 2 2 C0.21326795 3.5058745 -1.57953508 5.0045485 -3.375 6.5 C-4.37273437 7.3353125 -5.37046875 8.170625 -6.3984375 9.03125 C-9 11 -9 11 -11 11 C-11.33 11.99 -11.66 12.98 -12 14 C-13.53125 15.4375 -13.53125 15.4375 -15.5 17 C-23.72744134 23.9719072 -30.80755254 33.20651725 -36.0625 42.625 C-37.82435549 45.6940386 -39.71566234 48.3077449 -42 51 C-43 48 -43 48 -41.4453125 44.84765625 C-40.68454894 43.57825538 -39.91018566 42.31694141 -39.125 41.0625 C-38.71950928 40.40241943 -38.31401855 39.74233887 -37.89624023 39.06225586 C-33.99402361 32.80863611 -29.87884713 26.53898712 -25 21 C-24.34 21 -23.68 21 -23 21 C-22.78472656 20.45085938 -22.56945312 19.90171875 -22.34765625 19.3359375 C-20.54620014 16.21341357 -18.09091765 14.00904558 -15.4375 11.625 C-14.90608398 11.14184326 -14.37466797 10.65868652 -13.82714844 10.16088867 C-9.50953174 6.30494875 -4.97211587 2.97573602 0 0 Z " fill="#51A1F7" transform="translate(77,36)"/>
<path d="M0 0 C0.33 0 0.66 0 1 0 C1.1773051 10.30963377 1.34323628 20.6193825 1.49477577 30.92942905 C1.56550143 35.71714195 1.64009707 40.50472845 1.72363281 45.29223633 C1.80415261 49.91514982 1.87438143 54.53811706 1.93757248 59.16129875 C1.96343306 60.92232937 1.99295889 62.68331022 2.02626419 64.44421577 C2.07239166 66.91663457 2.10531037 69.38891163 2.13525391 71.86157227 C2.16006584 72.94591049 2.16006584 72.94591049 2.18537903 74.05215454 C2.23512753 80.04810945 1.34751479 84.97872782 -2 90 C-1.96970703 89.31151978 -1.93941406 88.62303955 -1.90820312 87.91369629 C-1.10279247 69.09419217 -0.89906443 50.3365001 -1 31.5 C-1.0266215 26.36458592 -1.04649904 21.22920678 -1.0625 16.09375 C-1.07079834 14.93355347 -1.07909668 13.77335693 -1.08764648 12.57800293 C-1.09094971 11.50747681 -1.09425293 10.43695068 -1.09765625 9.33398438 C-1.10289307 8.39695679 -1.10812988 7.4599292 -1.11352539 6.49450684 C-1.00811884 4.17839624 -0.65668289 2.21593956 0 0 Z " fill="#3C71D9" transform="translate(517,307)"/>
<path d="M0 0 C2.5459446 2.5459446 2.86074854 4.59974468 3.8125 8.0625 C8.63013394 23.98163822 18.63074876 35.12536317 33.09765625 43.03515625 C42.94141635 48.12590621 53.45546105 51.6618778 64 55 C64 55.33 64 55.66 64 56 C47.92600979 55.42592892 28.40609757 46.11731803 16.796875 34.99609375 C7.82827113 25.03314467 -0.26058869 13.81120034 0 0 Z " fill="#1532AA" transform="translate(285,215)"/>
<path d="M0 0 C5.85696186 0.45402805 9.68456627 2.14716662 14.625 5.25 C15.26695312 5.63285156 15.90890625 6.01570312 16.5703125 6.41015625 C20.59871375 8.87837751 23.79115127 11.53296804 27 15 C26.64284912 15.45737549 26.28569824 15.91475098 25.91772461 16.38598633 C19.19510583 25.01914153 12.59563838 33.57897974 7 43 C3.42892597 41.66959987 0.29773358 40.07110473 -2.9375 38.0625 C-6.55911068 35.84839123 -10.16544372 33.81636876 -14 32 C-14 31.34 -14 30.68 -14 30 C-8.69853843 31.43282745 -4.28938765 34.00425205 0.4140625 36.7578125 C3.12279443 38.28866443 3.12279443 38.28866443 7 38 C8.80423224 35.9026178 10.29599871 33.91651048 11.8125 31.625 C12.2461084 30.99319824 12.6797168 30.36139648 13.12646484 29.71044922 C14.00680556 28.42649714 14.88183882 27.1388895 15.75146484 25.84765625 C17.50766861 23.24872193 19.31690515 20.68800206 21.125 18.125 C22.08405432 16.75050279 23.04270136 15.37572057 24 14 C23.26136719 13.72800781 22.52273438 13.45601562 21.76171875 13.17578125 C19.14975099 12.06375537 17.11737714 10.82642765 14.8125 9.1875 C10.09916071 5.95798975 5.16017814 3.43465608 0 1 C0 0.67 0 0.34 0 0 Z " fill="#1837B0" transform="translate(420,149)"/>
<path d="M0 0 C0.33 0 0.66 0 1 0 C1.98573079 16.33496733 2.08165165 32.61448188 1.96289062 48.97265625 C1.91832316 56.61512615 1.88535487 64.15903912 2.77514648 71.76391602 C3.15215319 75.51310645 3.0617146 79.23540963 3 83 C2.01 83 1.02 83 0 83 C-1.05441557 78.73487466 -1.10111951 74.63473821 -1.02172852 70.2722168 C-1.01212097 69.51070816 -1.00251343 68.74919952 -0.99261475 67.96461487 C-0.95975787 65.4593848 -0.91937535 62.95433644 -0.87890625 60.44921875 C-0.8545921 58.70759208 -0.8307492 56.96595877 -0.80735779 55.22431946 C-0.74464565 50.64908261 -0.67554278 46.07396385 -0.60510254 41.49884033 C-0.53430261 36.82675537 -0.4695555 32.15458694 -0.40429688 27.48242188 C-0.27545051 18.32152284 -0.13985166 9.16073717 0 0 Z " fill="#3E78E2" transform="translate(22,304)"/>
<path d="M0 0 C-0.70125 0.4846875 -1.4025 0.969375 -2.125 1.46875 C-15.59842994 10.98802115 -25.37881335 21.44351681 -29 38 C-29.96864038 44.96868319 -30.514864 51.98327688 -31 59 C-31.33 59 -31.66 59 -32 59 C-34.26319207 43.73874539 -31.11907911 29.02398748 -22.3125 16.25 C-7.76947674 -2.58982558 -7.76947674 -2.58982558 0 0 Z " fill="#1834A6" transform="translate(316,155)"/>
<path d="M0 0 C2.02284095 0.04997404 4.04324302 0.06153502 6.06665039 0.06713867 C13.06536254 0.15345727 19.4380929 0.63654114 26.19360352 2.48706055 C26.19360352 2.81706055 26.19360352 3.14706055 26.19360352 3.48706055 C25.39365967 3.44629395 24.59371582 3.40552734 23.76953125 3.36352539 C-5.30208266 1.16455877 -5.30208266 1.16455877 -31.80639648 11.48706055 C-34.02937774 14.08658761 -35.28571342 16.39138432 -36.80639648 19.48706055 C-37.46639648 19.48706055 -38.12639648 19.48706055 -38.80639648 19.48706055 C-37.83297705 13.92466381 -34.9184447 10.94513054 -30.69604492 7.49707031 C-21.35499484 0.99953185 -11.10674999 -0.27851789 0 0 Z " fill="#1533AD" transform="translate(369.806396484375,173.512939453125)"/>
<path d="M0 0 C0.74378906 0.06058594 1.48757812 0.12117188 2.25390625 0.18359375 C19.03152325 1.47113224 35.8099653 2.23027499 52.63842773 1.87524414 C53.99883179 1.85772095 53.99883179 1.85772095 55.38671875 1.83984375 C56.18295654 1.82300537 56.97919434 1.80616699 57.79956055 1.78881836 C60.27485022 2.02637806 61.82127895 2.84563966 64 4 C57.48978174 4.16945799 50.97937396 4.32910513 44.46875 4.48217773 C42.25743256 4.53529714 40.04616637 4.59059963 37.83496094 4.64819336 C34.64269053 4.73095059 31.45031358 4.80565709 28.2578125 4.87890625 C27.28135773 4.90594131 26.30490295 4.93297638 25.29885864 4.96083069 C19.12163591 5.09286278 13.13150616 4.76316161 7 4 C7 3.34 7 2.68 7 2 C4.69 1.67 2.38 1.34 0 1 C0 0.67 0 0.34 0 0 Z " fill="#2951C7" transform="translate(126,475)"/>
<path d="M0 0 C2.08898613 -0.00221005 4.17746278 -0.02047896 6.26635742 -0.03930664 C7.5818457 -0.04124023 8.89733398 -0.04317383 10.25268555 -0.04516602 C11.45449463 -0.0492749 12.65630371 -0.05338379 13.89453125 -0.05761719 C16.7644043 0.18530273 16.7644043 0.18530273 18.7644043 2.18530273 C17.88405518 2.19988525 17.00370605 2.21446777 16.09667969 2.22949219 C-5.71189021 2.48190834 -5.71189021 2.48190834 -27.2512207 5.56420898 C-30.2355957 6.18530273 -30.2355957 6.18530273 -34.2355957 6.18530273 C-34.2355957 5.52530273 -34.2355957 4.86530273 -34.2355957 4.18530273 C-32.04877411 3.70304943 -29.86110315 3.2246469 -27.6730957 2.74780273 C-26.45493164 2.4809668 -25.23676758 2.21413086 -23.98168945 1.93920898 C-15.94499619 0.32181399 -8.16472824 -0.00097049 0 0 Z " fill="#1839B3" transform="translate(368.235595703125,139.814697265625)"/>
<path d="M0 0 C1.03125 0.804375 2.0625 1.60875 3.125 2.4375 C16.72320403 12.55875519 31.07993605 20.19469704 47 26 C47 26.33 47 26.66 47 27 C31.89631467 26.40769861 12.63440646 14.45863115 2 4 C0.734375 1.765625 0.734375 1.765625 0 0 Z " fill="#1A36A6" transform="translate(61,502)"/>
<path d="M0 0 C0.33 0.66 0.66 1.32 1 2 C1.66 2 2.32 2 3 2 C2.47994984 6.94047653 0.86850553 11.07020897 -1.02734375 15.609375 C-2.08707744 18.11381073 -2.08707744 18.11381073 -3 21.25 C-4.201171 24.55322025 -5.96393481 27.14950873 -8 30 C-8.66 29.01 -9.32 28.02 -10 27 C-9.05062832 24.37189808 -8.03111126 21.99929888 -6.8125 19.5 C-3.843898 13.11790422 -1.53394681 6.89545613 0 0 Z " fill="#3060D5" transform="translate(514,395)"/>
<path d="M0 0 C0.33 0 0.66 0 1 0 C1.01417969 0.75023437 1.02835937 1.50046875 1.04296875 2.2734375 C1.42834621 10.5434295 2.78609173 17.65231687 8.72265625 23.77734375 C13.87807487 27.9376713 19.92111023 30.47457888 26 33 C26 33.66 26 34.32 26 35 C16.16139761 32.15198352 7.19281816 27.79311192 1.68359375 18.8671875 C-0.94378315 13.61243369 -1.71443662 8.83261375 -1 3 C-0.67 2.01 -0.34 1.02 0 0 Z " fill="#1131B3" transform="translate(330,194)"/>
<path d="M0 0 C0.33 0 0.66 0 1 0 C1.02505615 0.85416504 1.0501123 1.70833008 1.07592773 2.58837891 C1.17294483 5.86672082 1.27141293 9.14501249 1.37094116 12.42327881 C1.41520014 13.88733573 1.45900539 15.35140644 1.50234985 16.81549072 C1.72175141 24.19882989 1.95467477 31.57713697 2.359375 38.953125 C2.41424072 39.96552246 2.46910645 40.97791992 2.52563477 42.02099609 C2.63158165 43.88904899 2.74631185 45.75662951 2.87084961 47.62353516 C2.99075422 49.74607529 3.00641624 51.87408547 3 54 C2.34 54.66 1.68 55.32 1 56 C-0.09080241 49.84394905 -0.12876053 43.83917721 -0.09765625 37.59765625 C-0.0962413 36.51995468 -0.09482635 35.44225311 -0.09336853 34.33189392 C-0.08779611 30.90873371 -0.07524868 27.48564025 -0.0625 24.0625 C-0.05748144 21.73372491 -0.05291915 19.40494878 -0.04882812 17.07617188 C-0.03783571 11.38409202 -0.02112514 5.69205078 0 0 Z " fill="#336ADB" transform="translate(40,335)"/>
<path d="M0 0 C10.5 3.5 10.5 3.5 21 7 C21.33 6.34 21.66 5.68 22 5 C22.33 5.66 22.66 6.32 23 7 C25.5315866 7.63801836 27.99839502 8.16687368 30.5625 8.625 C31.62887695 8.82609375 31.62887695 8.82609375 32.71679688 9.03125 C34.47642553 9.36191847 36.23804548 9.68195767 38 10 C38 10.33 38 10.66 38 11 C24.88355988 11.67843656 11.62123851 8.02483563 0 2 C0 1.34 0 0.68 0 0 Z " fill="#1733A4" transform="translate(321,326)"/>
<path d="M0 0 C0.66 0.33 1.32 0.66 2 1 C-6.51137777 8.94395258 -18.70591221 11.37945952 -30 11.125 C-31.16208984 11.11146484 -31.16208984 11.11146484 -32.34765625 11.09765625 C-34.23190843 11.07439388 -36.11599832 11.0385364 -38 11 C-38 10.67 -38 10.34 -38 10 C-37.12432373 9.88724731 -37.12432373 9.88724731 -36.23095703 9.7722168 C-33.52778027 9.41917604 -30.82646511 9.05339925 -28.125 8.6875 C-27.2071875 8.56955078 -26.289375 8.45160156 -25.34375 8.33007812 C-17.52954705 7.25700096 -9.84033449 5.84244031 -3 1.75 C-2.01 1.1725 -1.02 0.595 0 0 Z " fill="#1533AE" transform="translate(399,327)"/>
<path d="M0 0 C0.33 0 0.66 0 1 0 C1.34064639 3.31178954 1.67114622 6.62452037 2 9.9375 C2.14308594 11.32678711 2.14308594 11.32678711 2.2890625 12.74414062 C2.85741047 18.52911107 3.09538785 24.18730276 3 30 C2.01 30 1.02 30 0 30 C-0.89818596 26.23487702 -1.0571181 22.90422547 -0.87890625 19.04296875 C-0.83056641 17.93115234 -0.78222656 16.81933594 -0.73242188 15.67382812 C-0.67634766 14.52333984 -0.62027344 13.37285156 -0.5625 12.1875 C-0.51029297 11.01767578 -0.45808594 9.84785156 -0.40429688 8.64257812 C-0.27493908 5.76142726 -0.13998535 2.88065085 0 0 Z " fill="#386CD9" transform="translate(22,357)"/>
<path d="M0 0 C0.66 0 1.32 0 2 0 C2.39252444 2.37326315 2.76427274 4.74687214 3.125 7.125 C3.23714844 7.79015625 3.34929688 8.4553125 3.46484375 9.140625 C4.13081723 13.6692447 3.77089679 16.78920097 2 21 C1.67 21 1.34 21 1 21 C1 19.02 1 17.04 1 15 C0.34 15 -0.32 15 -1 15 C-0.67 10.05 -0.34 5.1 0 0 Z " fill="#2245B9" transform="translate(22,387)"/>
<path d="M0 0 C6.71198047 0.7090605 13.38380003 1.59113723 20.0625 2.5625 C21.02349609 2.70107422 21.98449219 2.83964844 22.97460938 2.98242188 C25.31659655 3.32032052 27.65838473 3.65953535 30 4 C30 4.33 30 4.66 30 5 C21.25492893 5.10621544 12.69980864 5.01286753 4 4 C4 3.34 4 2.68 4 2 C2.68 2 1.36 2 0 2 C0 1.34 0 0.68 0 0 Z " fill="#1A36A6" transform="translate(116,531)"/>
<path d="M0 0 C0.33 0 0.66 0 1 0 C1 12.87 1 25.74 1 39 C0.67 39 0.34 39 0 39 C-0.33 33.06 -0.66 27.12 -1 21 C-1.33 21 -1.66 21 -2 21 C-1.44210432 13.98475852 -0.81552077 6.99017804 0 0 Z " fill="#1333AF" transform="translate(535,384)"/>
<path d="M0 0 C3.06227331 2.85500153 5.21778844 5.73233903 7.375 9.3125 C10.25273931 13.94920308 13.32853642 17.97034485 17 22 C14 22 14 22 12.421875 20.63671875 C0 6.15420561 0 6.15420561 0 0 Z " fill="#1A36A6" transform="translate(37,472)"/>
<path d="M0 0 C0 0.66 0 1.32 0 2 C6.31268603 2.37552165 6.31268603 2.37552165 12 0 C12.33 1.32 12.66 2.64 13 4 C8.66305619 6.51822544 5.87178806 5.7121004 1.29296875 4.515625 C-1.88386116 3.80124417 -4.75652453 3.86197977 -8 4 C-8 3.34 -8 2.68 -8 2 C-2.25 0 -2.25 0 0 0 Z " fill="#59A6F6" transform="translate(427,15)"/>
<path d="M0 0 C9.35751021 2.31400469 18.330703 5.81887324 25 13 C21.56155538 12.32830384 18.91517087 10.96951355 15.875 9.25 C10.65595569 6.3419457 5.3638998 3.62959079 0 1 C0 0.67 0 0.34 0 0 Z " fill="#1432B0" transform="translate(377,279)"/>
<path d="M0 0 C-2.45883758 2.80655198 -5.07754107 4.23053833 -8.4375 5.8125 C-9.85869141 6.50279297 -9.85869141 6.50279297 -11.30859375 7.20703125 C-14 8 -14 8 -16.34765625 7.13671875 C-16.89292969 6.76160156 -17.43820313 6.38648438 -18 6 C-15.56781941 4.80036357 -13.13029422 3.61515562 -10.6875 2.4375 C-9.99720703 2.09525391 -9.30691406 1.75300781 -8.59570312 1.40039062 C-3.33984375 -1.11328125 -3.33984375 -1.11328125 0 0 Z " fill="#52A3F9" transform="translate(101,26)"/>
<path d="M0 0 C2.8125 -0.1875 2.8125 -0.1875 6 0 C7.03153965 0.96743266 8.02620847 1.97446109 9 3 C11.54385213 4.77698585 14.12860528 6.48089069 16.72265625 8.18359375 C19.02085888 10.01663701 19.9476072 11.29469648 21 14 C20.32195312 13.56429688 19.64390625 13.12859375 18.9453125 12.6796875 C13.291546 9.0619034 7.60314777 5.53900042 1.80078125 2.1640625 C1.20652344 1.77992188 0.61226563 1.39578125 0 1 C0 0.67 0 0.34 0 0 Z " fill="#1535B7" transform="translate(414,248)"/>
<path d="M0 0 C0.66 0 1.32 0 2 0 C2.6509259 1.24735567 3.29551669 2.49801832 3.9375 3.75 C4.29714844 4.44609375 4.65679687 5.1421875 5.02734375 5.859375 C7.02631058 10.25870761 7.26341659 14.17069583 7 19 C6.34 19.99 5.68 20.98 5 22 C4.89042969 21.05898438 4.78085937 20.11796875 4.66796875 19.1484375 C4.43013672 17.28058594 4.43013672 17.28058594 4.1875 15.375 C4.03667969 14.14523437 3.88585937 12.91546875 3.73046875 11.6484375 C2.99473252 7.97369077 1.75771523 5.28427888 0 2 C0 1.34 0 0.68 0 0 Z " fill="#1231B1" transform="translate(403,294)"/>
<path d="M0 0 C7.25469544 0.41854012 13.53919606 2.6817311 20 6 C20.33 6.66 20.66 7.32 21 8 C16.31196344 7.26951699 12.09114445 5.63363115 7.6875 3.9375 C6.94693359 3.65583984 6.20636719 3.37417969 5.44335938 3.08398438 C3.62757345 2.39281425 1.81360101 1.69688311 0 1 C0 0.67 0 0.34 0 0 Z " fill="#1434B6" transform="translate(391,239)"/>
<path d="M0 0 C4.54075781 4.14010271 7.71842138 8.82390176 11 14 C10.01 15.485 10.01 15.485 9 17 C8.401875 15.9275 7.80375 14.855 7.1875 13.75 C5.96441973 11.59546359 4.74978258 9.66935555 3.25 7.6875 C2 6 2 6 2 4 C1.34 4 0.68 4 0 4 C-0.33 3.01 -0.66 2.02 -1 1 C-0.67 0.67 -0.34 0.34 0 0 Z " fill="#519EF4" transform="translate(508,61)"/>
<path d="M0 0 C3.16115776 1.36983503 3.9927092 1.9890638 6 5 C6.99 5.33 7.98 5.66 9 6 C9 6.66 9 7.32 9 8 C8.01 8.33 7.02 8.66 6 9 C3.95703125 7.56640625 3.95703125 7.56640625 1.8125 5.5625 C1.09707031 4.90378906 0.38164062 4.24507812 -0.35546875 3.56640625 C-0.89816406 3.04949219 -1.44085938 2.53257813 -2 2 C-1.34 1.34 -0.68 0.68 0 0 Z " fill="#55A2F8" transform="translate(478,57)"/>
<path d="M0 0 C0.99 0.33 1.98 0.66 3 1 C0.14723863 3.93200474 -2.65079784 6.64315404 -6 9 C-6.66 8.34 -7.32 7.68 -8 7 C-6.74057614 5.80040625 -5.46704714 4.61560557 -4.1875 3.4375 C-3.12595703 2.44556641 -3.12595703 2.44556641 -2.04296875 1.43359375 C-1.36878906 0.96050781 -0.69460937 0.48742188 0 0 Z " fill="#54A4F9" transform="translate(82,54)"/>
<path d="M0 0 C2.62527189 -0.05382106 5.24944713 -0.09358313 7.875 -0.125 C8.62136719 -0.14175781 9.36773437 -0.15851563 10.13671875 -0.17578125 C12.09194461 -0.1933959 14.04742021 -0.10320189 16 0 C16.66 0.66 17.32 1.32 18 2 C11.565 2.495 11.565 2.495 5 3 C5 2.67 5 2.34 5 2 C3.35 1.67 1.7 1.34 0 1 C0 0.67 0 0.34 0 0 Z " fill="#294CBB" transform="translate(353,335)"/>
<path d="M0 0 C0.99 0.495 0.99 0.495 2 1 C2 1.66 2 2.32 2 3 C2.99 3 3.98 3 5 3 C5.99 5.31 6.98 7.62 8 10 C7.01 10 6.02 10 5 10 C0 4.88372093 0 4.88372093 0 0 Z " fill="#519FF7" transform="translate(490,68)"/>
<path d="M0 0 C4.23429756 1.31061591 8.07407404 2.94356259 12 5 C11.34 5.66 10.68 6.32 10 7 C6.37 5.35 2.74 3.7 -1 2 C-0.67 1.34 -0.34 0.68 0 0 Z " fill="#51A1F7" transform="translate(459,25)"/>
<path d="M0 0 C-4.64203897 2.53309233 -8.65155992 4.46515599 -14 5 C-10.47470999 0.64522999 -5.39743041 -1.75564769 0 0 Z " fill="#224DC8" transform="translate(461,466)"/>
<path d="M0 0 C-1 2 -1 2 -2.84765625 2.6328125 C-3.57855469 2.79523438 -4.30945313 2.95765625 -5.0625 3.125 C-5.79597656 3.29257812 -6.52945312 3.46015625 -7.28515625 3.6328125 C-7.85105469 3.75398438 -8.41695313 3.87515625 -9 4 C-9 3.34 -9 2.68 -9 2 C-9.66 1.67 -10.32 1.34 -11 1 C-6.87831311 -0.62950412 -4.29299643 -1.26264601 0 0 Z " fill="#2D5CD4" transform="translate(449,471)"/>
<path d="M0 0 C1.65 0 3.3 0 5 0 C4.4140625 6.15234375 4.4140625 6.15234375 4 8 C3.01 8.495 3.01 8.495 2 9 C2 7.02 2 5.04 2 3 C1.34 3 0.68 3 0 3 C0 2.01 0 1.02 0 0 Z " fill="#2A51C3" transform="translate(21,399)"/>
<path d="M0 0 C0.99 0.33 1.98 0.66 3 1 C-2.445 4.96 -2.445 4.96 -8 9 C-8 8.01 -8 7.02 -8 6 C-6.35546875 4.359375 -6.35546875 4.359375 -4.1875 2.75 C-3.47980469 2.20859375 -2.77210938 1.6671875 -2.04296875 1.109375 C-1.36878906 0.74328125 -0.69460938 0.3771875 0 0 Z " fill="#122EA8" transform="translate(313,154)"/>
<path d="M0 0 C1.60568666 0.28317926 3.20952047 0.57687791 4.8125 0.875 C6.15248047 1.11863281 6.15248047 1.11863281 7.51953125 1.3671875 C10 2 10 2 13 4 C7.73946963 4.31563182 4.55426184 3.66590937 0 1 C0 0.67 0 0.34 0 0 Z " fill="#132FAD" transform="translate(350,271)"/>
<path d="M0 0 C2.32472205 2.85306797 3.7508258 5.54074837 5 9 C4.01 9 3.02 9 2 9 C0.25 6.75 0.25 6.75 -1 4 C-0.6875 1.6875 -0.6875 1.6875 0 0 Z " fill="#52A0F5" transform="translate(520,78)"/>
<path d="M0 0 C-0.33 0.66 -0.66 1.32 -1 2 C-3.3140622 2.73075648 -5.64828869 3.40138258 -8 4 C-8 3.34 -8 2.68 -8 2 C-8.66 1.67 -9.32 1.34 -10 1 C-3.71428571 -1.42857143 -3.71428571 -1.42857143 0 0 Z " fill="#56A7F9" transform="translate(110,23)"/>
<path d="M0 0 C3.78717347 1.48781815 5.77407001 3.61988409 8 7 C7.67 7.99 7.34 8.98 7 10 C5.82739389 8.71372289 4.6620717 7.42080217 3.5 6.125 C2.8503125 5.40570313 2.200625 4.68640625 1.53125 3.9453125 C0 2 0 2 0 0 Z " fill="#1736B5" transform="translate(438,264)"/>
<path d="M0 0 C0.66 0.33 1.32 0.66 2 1 C-0.31 3.64 -2.62 6.28 -5 9 C-5.66 8.67 -6.32 8.34 -7 8 C-6.67 7.01 -6.34 6.02 -6 5 C-5.34 5 -4.68 5 -4 5 C-4 4.34 -4 3.68 -4 3 C-2 1.375 -2 1.375 0 0 Z " fill="#4FA0F8" transform="translate(70,66)"/>
<path d="M0 0 C2.97 0 5.94 0 9 0 C8.01 1.485 8.01 1.485 7 3 C5.0546875 3.29296875 5.0546875 3.29296875 2.875 3.1875 C1.59625 3.125625 0.3175 3.06375 -1 3 C-0.67 2.01 -0.34 1.02 0 0 Z " fill="#0C0D10" transform="translate(166,365)"/>
<path d="M0 0 C0.33 0.99 0.66 1.98 1 3 C-0.65 4.65 -2.3 6.3 -4 8 C-4.99 7.67 -5.98 7.34 -7 7 C-4.69 4.69 -2.38 2.38 0 0 Z " fill="#1F3B9E" transform="translate(297,317)"/>
<path d="M0 0 C0 0.33 0 0.66 0 1 C-1.41433206 1.2236337 -2.83167618 1.42826476 -4.25 1.625 C-5.03890625 1.74101562 -5.8278125 1.85703125 -6.640625 1.9765625 C-9.32152459 2.00319395 -10.72694089 1.36592084 -13 0 C-8.37078475 -1.0161692 -4.65537393 -0.83796731 0 0 Z " fill="#2040B5" transform="translate(355,142)"/>
<path d="M0 0 C0.66 0 1.32 0 2 0 C2.08159574 4.16138263 1.98248524 7.9472484 1 12 C0.67 12 0.34 12 0 12 C0 10.02 0 8.04 0 6 C-0.66 5.67 -1.32 5.34 -2 5 C-1.34 5 -0.68 5 0 5 C0 3.35 0 1.7 0 0 Z " fill="#53A6FC" transform="translate(23,146)"/>
<path d="M0 0 C0.66 0.33 1.32 0.66 2 1 C2.33 1.99 2.66 2.98 3 4 C0.36 4 -2.28 4 -5 4 C-5.33 3.34 -5.66 2.68 -6 2 C-4.02 2 -2.04 2 0 2 C0 1.34 0 0.68 0 0 Z " fill="#53A4FC" transform="translate(148,31)"/>
<path d="M0 0 C1.98 1.65 3.96 3.3 6 5 C5.67 5.99 5.34 6.98 5 8 C3.02 5.69 1.04 3.38 -1 1 C-0.67 0.67 -0.34 0.34 0 0 Z " fill="#213FAE" transform="translate(55,496)"/>
<path d="M0 0 C1.35622245 0.96873032 2.69417053 1.96434215 4 3 C1.83032311 3.95465783 0.43671207 4.14401212 -1.82421875 3.3984375 C-3.5684743 2.64129615 -5.28627131 1.82390802 -7 1 C-3.375 -1.125 -3.375 -1.125 0 0 Z " fill="#3060DB" transform="translate(128,475)"/>
<path d="M0 0 C7.75 0.75 7.75 0.75 10 3 C7.36 3 4.72 3 2 3 C2 2.34 2 1.68 2 1 C1.34 0.67 0.68 0.34 0 0 Z " fill="#234EC7" transform="translate(115,472)"/>
<path d="M0 0 C0.66 0 1.32 0 2 0 C1.52797514 4.24822374 -0.96655518 6.19989709 -4 9 C-2.80100302 5.9168649 -1.52299523 2.93720508 0 0 Z " fill="#1633AE" transform="translate(406,317)"/>
<path d="M0 0 C3.875 1.75 3.875 1.75 5 4 C4.4225 3.773125 3.845 3.54625 3.25 3.3125 C0.87827523 2.73494807 0.87827523 2.73494807 -1.25 4.4375 C-2.11625 5.2109375 -2.11625 5.2109375 -3 6 C-1.125 1.125 -1.125 1.125 0 0 Z " fill="#193193" transform="translate(301,312)"/>
<path d="M0 0 C2.78637633 4.1795645 1.79562512 6.14668677 1 11 C0.67 11 0.34 11 0 11 C-1.125 3.375 -1.125 3.375 0 0 Z " fill="#4697F8" transform="translate(40,127)"/>
<path d="M0 0 C2.475 0.495 2.475 0.495 5 1 C3.68 1.33 2.36 1.66 1 2 C0.67 1.34 0.34 0.68 0 0 Z " fill="#6EB1F2" transform="translate(441,41)"/>
<path d="M0 0 C1.98 0 3.96 0 6 0 C6 0.33 6 0.66 6 1 C4.02 1 2.04 1 0 1 C0 0.67 0 0.34 0 0 Z " fill="#6CAFF0" transform="translate(230,36)"/>
<path d="M0 0 C1.65 0 3.3 0 5 0 C5 0.33 5 0.66 5 1 C3.35 1 1.7 1 0 1 C0 0.67 0 0.34 0 0 Z " fill="#6CB0F2" transform="translate(406,36)"/>
<path d="M0 0 C1.65 0 3.3 0 5 0 C5 0.33 5 0.66 5 1 C3.35 1 1.7 1 0 1 C0 0.67 0 0.34 0 0 Z " fill="#6BAFF2" transform="translate(374,36)"/>
<path d="M0 0 C1.65 0 3.3 0 5 0 C5 0.33 5 0.66 5 1 C3.35 1 1.7 1 0 1 C0 0.67 0 0.34 0 0 Z " fill="#6AAEF0" transform="translate(151,36)"/>
<path d="M0 0 C0.99 0 1.98 0 3 0 C2.67 0.66 2.34 1.32 2 2 C1.34 1.34 0.68 0.68 0 0 Z " fill="#6AACF0" transform="translate(503,97)"/>
<path d="M0 0 C4 1 4 1 4 1 Z " fill="#6AAFF1" transform="translate(262,36)"/>
<path d="M0 0 C4 1 4 1 4 1 Z " fill="#6CAFF1" transform="translate(190,36)"/>
<path d="M0 0 C4 1 4 1 4 1 Z " fill="#69ADF0" transform="translate(144,36)"/>
<path d="M0 0 C4 1 4 1 4 1 Z " fill="#6DB0EB" transform="translate(127,15)"/>
<path d="M0 0 C3 1 3 1 3 1 Z " fill="#334FAD" transform="translate(141,538)"/>
<path d="M0 0 C0.66 0.66 1.32 1.32 2 2 C1.34 2 0.68 2 0 2 C0 1.34 0 0.68 0 0 Z " fill="#334EAE" transform="translate(74,515)"/>
<path d="" fill="#3856B3" transform="translate(0,0)"/>
<path d="M0 0 C0.99 0.495 0.99 0.495 2 1 C1.01 1.495 1.01 1.495 0 2 C0 1.34 0 0.68 0 0 Z " fill="#4C75D2" transform="translate(507,410)"/>
<path d="" fill="#4D78D8" transform="translate(0,0)"/>
<path d="M0 0 C3 1 3 1 3 1 Z " fill="#3351BA" transform="translate(368,372)"/>
<path d="M0 0 C0.99 0.495 0.99 0.495 2 1 C1.01 1.495 1.01 1.495 0 2 C0 1.34 0 0.68 0 0 Z " fill="#3150AD" transform="translate(301,160)"/>
<path d="M0 0 C3 1 3 1 3 1 Z " fill="#3C61C7" transform="translate(443,159)"/>
<path d="M0 0 C0.66 0.66 1.32 1.32 2 2 C1.34 2 0.68 2 0 2 C0 1.34 0 0.68 0 0 Z " fill="#6BAEF3" transform="translate(498,84)"/>
<path d="M0 0 C0.33 0.66 0.66 1.32 1 2 C0.34 1.67 -0.32 1.34 -1 1 C-0.67 0.67 -0.34 0.34 0 0 Z " fill="#6DAEEA" transform="translate(64,43)"/>
<path d="M0 0 C3 1 3 1 3 1 Z " fill="#6BAFF2" transform="translate(398,36)"/>
<path d="M0 0 C3 1 3 1 3 1 Z " fill="#6CAFF2" transform="translate(358,36)"/>
<path d="M0 0 C3 1 3 1 3 1 Z " fill="#6CAFF0" transform="translate(278,36)"/>
<path d="M0 0 C3 1 3 1 3 1 Z " fill="#6DB0F0" transform="translate(238,36)"/>
<path d="M0 0 C3 1 3 1 3 1 Z " fill="#6DAEF0" transform="translate(182,36)"/>
<path d="M0 0 C3 1 3 1 3 1 Z " fill="#6DAEEF" transform="translate(174,36)"/>
<path d="M0 0 C3 1 3 1 3 1 Z " fill="#6CAFF1" transform="translate(166,36)"/>
<path d="M0 0 C3 1 3 1 3 1 Z " fill="#6AAEF1" transform="translate(158,36)"/>
<path d="M0 0 C0.99 0.495 0.99 0.495 2 1 C1.01 1.495 1.01 1.495 0 2 C0 1.34 0 0.68 0 0 Z " fill="#6CADE9" transform="translate(78,32)"/>
<path d="M0 0 C0.66 0 1.32 0 2 0 C1.67 0.66 1.34 1.32 1 2 C0.67 1.34 0.34 0.68 0 0 Z " fill="#6CADEB" transform="translate(464,25)"/>
<path d="M0 0 C3 1 3 1 3 1 Z " fill="#6BADE9" transform="translate(428,15)"/>
<path d="M0 0 C2 1 2 1 2 1 Z " fill="#2F4CAC" transform="translate(114,533)"/>
<path d="M0 0 C2 1 2 1 2 1 Z " fill="#324EAD" transform="translate(453,530)"/>
<path d="M0 0 C2 1 2 1 2 1 Z " fill="#314EAD" transform="translate(89,524)"/>
<path d="M0 0 C2 1 2 1 2 1 Z " fill="#436CCE" transform="translate(431,472)"/>
<path d="M0 0 C2 1 2 1 2 1 Z " fill="#4369C9" transform="translate(125,472)"/>
<path d="M0 0 C2 1 2 1 2 1 Z " fill="#486FCF" transform="translate(471,455)"/>
<path d="" fill="#486FCE" transform="translate(0,0)"/>
<path d="M0 0 C2 1 2 1 2 1 Z " fill="#3253B6" transform="translate(344,370)"/>
<path d="M0 0 C2 1 2 1 2 1 Z " fill="#3453B3" transform="translate(341,370)"/>
<path d="" fill="#375AC4" transform="translate(0,0)"/>
<path d="M0 0 C2 1 2 1 2 1 Z " fill="#2C2E35" transform="translate(171,331)"/>
<path d="M0 0 C2 1 2 1 2 1 Z " fill="#2F3035" transform="translate(162,331)"/>
<path d="M0 0 C2 1 2 1 2 1 Z " fill="#303034" transform="translate(156,331)"/>
<path d="M0 0 C2 1 2 1 2 1 Z " fill="#324FB8" transform="translate(328,327)"/>
<path d="M0 0 C2 1 2 1 2 1 Z " fill="#2C4EC0" transform="translate(329,267)"/>
<path d="" fill="#609ADF" transform="translate(0,0)"/>
<path d="M0 0 C2 1 2 1 2 1 Z " fill="#2851C6" transform="translate(373,231)"/>
<path d="" fill="#304CA7" transform="translate(0,0)"/>
<path d="" fill="#324CA3" transform="translate(0,0)"/>
<path d="M0 0 C2 1 2 1 2 1 Z " fill="#2A4FCB" transform="translate(345,181)"/>
<path d="M0 0 C2 1 2 1 2 1 Z " fill="#375BBF" transform="translate(329,144)"/>
<path d="" fill="#69A8E8" transform="translate(0,0)"/>
<path d="" fill="#6DAAE5" transform="translate(0,0)"/>
<path d="" fill="#6BADF1" transform="translate(0,0)"/>
<path d="" fill="#6CAAE9" transform="translate(0,0)"/>
<path d="" fill="#6CA9EA" transform="translate(0,0)"/>
<path d="" fill="#6CAEF2" transform="translate(0,0)"/>
<path d="M0 0 C2 1 2 1 2 1 Z " fill="#6DAEF1" transform="translate(487,72)"/>
<path d="" fill="#6EAEEE" transform="translate(0,0)"/>
<path d="" fill="#6DABE8" transform="translate(0,0)"/>
<path d="" fill="#6CADEB" transform="translate(0,0)"/>
<path d="" fill="#6EB0F0" transform="translate(0,0)"/>
<path d="M0 0 C2 1 2 1 2 1 Z " fill="#72B2F0" transform="translate(99,48)"/>
<path d="M0 0 C2 1 2 1 2 1 Z " fill="#6BB0F4" transform="translate(449,44)"/>
<path d="M0 0 C2 1 2 1 2 1 Z " fill="#6AADF1" transform="translate(416,36)"/>
<path d="M0 0 C2 1 2 1 2 1 Z " fill="#6DAFF3" transform="translate(330,36)"/>
<path d="M0 0 C2 1 2 1 2 1 Z " fill="#6BB0F3" transform="translate(327,36)"/>
<path d="M0 0 C2 1 2 1 2 1 Z " fill="#6AAFF2" transform="translate(295,36)"/>
<path d="M0 0 C2 1 2 1 2 1 Z " fill="#6CAFF3" transform="translate(287,36)"/>
<path d="M0 0 C2 1 2 1 2 1 Z " fill="#6DB0F0" transform="translate(270,36)"/>
<path d="M0 0 C2 1 2 1 2 1 Z " fill="#6BAFF2" transform="translate(255,36)"/>
<path d="M0 0 C2 1 2 1 2 1 Z " fill="#6DAFF2" transform="translate(223,36)"/>
<path d="M0 0 C2 1 2 1 2 1 Z " fill="#6DAFEF" transform="translate(198,36)"/>
<path d="M0 0 C2 1 2 1 2 1 Z " fill="#6CB0F1" transform="translate(162,36)"/>
<path d="" fill="#374D8E" transform="translate(0,0)"/>
<path d="" fill="#424F72" transform="translate(0,0)"/>
<path d="" fill="#374D93" transform="translate(0,0)"/>
<path d="" fill="#354DA1" transform="translate(0,0)"/>
<path d="" fill="#2F4BAE" transform="translate(0,0)"/>
<path d="" fill="#344D98" transform="translate(0,0)"/>
<path d="" fill="#2F4DAE" transform="translate(0,0)"/>
<path d="" fill="#304DAE" transform="translate(0,0)"/>
<path d="" fill="#334DAD" transform="translate(0,0)"/>
<path d="" fill="#324CAD" transform="translate(0,0)"/>
<path d="" fill="#324CAB" transform="translate(0,0)"/>
<path d="" fill="#324DAB" transform="translate(0,0)"/>
<path d="" fill="#394D9F" transform="translate(0,0)"/>
<path d="" fill="#2F4AAD" transform="translate(0,0)"/>
<path d="" fill="#314EAD" transform="translate(0,0)"/>
<path d="" fill="#314DA5" transform="translate(0,0)"/>
<path d="" fill="#334EAD" transform="translate(0,0)"/>
<path d="" fill="#435079" transform="translate(0,0)"/>
<path d="" fill="#2F4BAB" transform="translate(0,0)"/>
<path d="" fill="#344EA9" transform="translate(0,0)"/>
<path d="" fill="#334DAD" transform="translate(0,0)"/>
<path d="" fill="#2E49AC" transform="translate(0,0)"/>
<path d="" fill="#43517C" transform="translate(0,0)"/>
<path d="" fill="#3350AF" transform="translate(0,0)"/>
<path d="" fill="#425180" transform="translate(0,0)"/>
<path d="" fill="#304DB0" transform="translate(0,0)"/>
<path d="" fill="#314FB0" transform="translate(0,0)"/>
<path d="" fill="#304CAE" transform="translate(0,0)"/>
<path d="" fill="#324CB0" transform="translate(0,0)"/>
<path d="" fill="#3551B1" transform="translate(0,0)"/>
<path d="" fill="#3551AE" transform="translate(0,0)"/>
<path d="" fill="#3551AF" transform="translate(0,0)"/>
<path d="" fill="#3652B5" transform="translate(0,0)"/>
<path d="" fill="#3551B1" transform="translate(0,0)"/>
<path d="" fill="#43548A" transform="translate(0,0)"/>
<path d="" fill="#43568F" transform="translate(0,0)"/>
<path d="" fill="#3551B3" transform="translate(0,0)"/>
<path d="" fill="#3550AD" transform="translate(0,0)"/>
<path d="" fill="#3754B2" transform="translate(0,0)"/>
<path d="" fill="#426ACD" transform="translate(0,0)"/>
<path d="" fill="#446BCD" transform="translate(0,0)"/>
<path d="" fill="#456DCD" transform="translate(0,0)"/>
<path d="" fill="#446DCD" transform="translate(0,0)"/>
<path d="" fill="#446ACA" transform="translate(0,0)"/>
<path d="" fill="#466CCD" transform="translate(0,0)"/>
<path d="" fill="#456BCC" transform="translate(0,0)"/>
<path d="" fill="#435893" transform="translate(0,0)"/>
<path d="" fill="#4469CE" transform="translate(0,0)"/>
<path d="" fill="#446BD0" transform="translate(0,0)"/>
<path d="" fill="#476DD0" transform="translate(0,0)"/>
<path d="" fill="#3552B3" transform="translate(0,0)"/>
<path d="" fill="#486AC8" transform="translate(0,0)"/>
<path d="" fill="#456BCD" transform="translate(0,0)"/>
<path d="" fill="#456DCC" transform="translate(0,0)"/>
<path d="" fill="#3653AD" transform="translate(0,0)"/>
<path d="" fill="#456DCC" transform="translate(0,0)"/>
<path d="" fill="#446CC8" transform="translate(0,0)"/>
<path d="" fill="#426BCA" transform="translate(0,0)"/>
<path d="" fill="#446CCB" transform="translate(0,0)"/>
<path d="" fill="#3653B6" transform="translate(0,0)"/>
<path d="" fill="#3855B2" transform="translate(0,0)"/>
<path d="" fill="#455996" transform="translate(0,0)"/>
<path d="" fill="#446ACE" transform="translate(0,0)"/>
<path d="" fill="#456FCF" transform="translate(0,0)"/>
<path d="" fill="#476DCA" transform="translate(0,0)"/>
<path d="" fill="#4870CD" transform="translate(0,0)"/>
<path d="" fill="#455A9A" transform="translate(0,0)"/>
<path d="" fill="#4670D1" transform="translate(0,0)"/>
<path d="" fill="#496ECC" transform="translate(0,0)"/>
<path d="" fill="#476ECC" transform="translate(0,0)"/>
<path d="" fill="#3C59B2" transform="translate(0,0)"/>
<path d="" fill="#3658B9" transform="translate(0,0)"/>
<path d="" fill="#4A6EC9" transform="translate(0,0)"/>
<path d="" fill="#3A57B1" transform="translate(0,0)"/>
<path d="" fill="#465B9E" transform="translate(0,0)"/>
<path d="" fill="#3D5BB8" transform="translate(0,0)"/>
<path d="" fill="#3A5BB4" transform="translate(0,0)"/>
<path d="" fill="#496EC7" transform="translate(0,0)"/>
<path d="" fill="#3C5AB4" transform="translate(0,0)"/>
<path d="" fill="#475EA2" transform="translate(0,0)"/>
<path d="" fill="#3F5DB8" transform="translate(0,0)"/>
<path d="" fill="#4470D4" transform="translate(0,0)"/>
<path d="" fill="#486DCC" transform="translate(0,0)"/>
<path d="" fill="#496ECF" transform="translate(0,0)"/>
<path d="" fill="#466ED4" transform="translate(0,0)"/>
<path d="" fill="#3C5BB7" transform="translate(0,0)"/>
<path d="" fill="#486FD3" transform="translate(0,0)"/>
<path d="" fill="#486FCC" transform="translate(0,0)"/>
<path d="" fill="#4A6EC4" transform="translate(0,0)"/>
<path d="" fill="#4860A6" transform="translate(0,0)"/>
<path d="" fill="#4961A4" transform="translate(0,0)"/>
<path d="" fill="#4A74D4" transform="translate(0,0)"/>
<path d="" fill="#4B63A8" transform="translate(0,0)"/>
<path d="" fill="#4B74D4" transform="translate(0,0)"/>
<path d="" fill="#4B6DBF" transform="translate(0,0)"/>
<path d="" fill="#4C68AE" transform="translate(0,0)"/>
<path d="" fill="#4364BC" transform="translate(0,0)"/>
<path d="" fill="#4975D6" transform="translate(0,0)"/>
<path d="" fill="#485D93" transform="translate(0,0)"/>
<path d="" fill="#4468BD" transform="translate(0,0)"/>
<path d="" fill="#4B6EBE" transform="translate(0,0)"/>
<path d="" fill="#4F6AB1" transform="translate(0,0)"/>
<path d="" fill="#4E78D2" transform="translate(0,0)"/>
<path d="" fill="#49588A" transform="translate(0,0)"/>
<path d="" fill="#4F6DB0" transform="translate(0,0)"/>
<path d="" fill="#4C6FBF" transform="translate(0,0)"/>
<path d="" fill="#4D6CBF" transform="translate(0,0)"/>
<path d="" fill="#5174CA" transform="translate(0,0)"/>
<path d="" fill="#5472B9" transform="translate(0,0)"/>
<path d="" fill="#5677BD" transform="translate(0,0)"/>
<path d="" fill="#507BD6" transform="translate(0,0)"/>
<path d="" fill="#4E7BDC" transform="translate(0,0)"/>
<path d="" fill="#587AC0" transform="translate(0,0)"/>
<path d="" fill="#527CD6" transform="translate(0,0)"/>
<path d="" fill="#517ED7" transform="translate(0,0)"/>
<path d="" fill="#496DBF" transform="translate(0,0)"/>
<path d="" fill="#3353BA" transform="translate(0,0)"/>
<path d="" fill="#3351BA" transform="translate(0,0)"/>
<path d="" fill="#3354B8" transform="translate(0,0)"/>
<path d="" fill="#597FC1" transform="translate(0,0)"/>
<path d="" fill="#3052BA" transform="translate(0,0)"/>
<path d="" fill="#3351B7" transform="translate(0,0)"/>
<path d="" fill="#373F56" transform="translate(0,0)"/>
<path d="" fill="#363D4D" transform="translate(0,0)"/>
<path d="" fill="#3A3D51" transform="translate(0,0)"/>
<path d="" fill="#384153" transform="translate(0,0)"/>
<path d="" fill="#5682D0" transform="translate(0,0)"/>
<path d="" fill="#3554BC" transform="translate(0,0)"/>
<path d="" fill="#5D80C4" transform="translate(0,0)"/>
<path d="" fill="#5481D2" transform="translate(0,0)"/>
<path d="" fill="#353F5E" transform="translate(0,0)"/>
<path d="" fill="#5887D3" transform="translate(0,0)"/>
<path d="" fill="#4268C1" transform="translate(0,0)"/>
<path d="" fill="#5F85C7" transform="translate(0,0)"/>
<path d="" fill="#5582D8" transform="translate(0,0)"/>
<path d="" fill="#5B8AD3" transform="translate(0,0)"/>
<path d="" fill="#4167C2" transform="translate(0,0)"/>
<path d="" fill="#6088C8" transform="translate(0,0)"/>
<path d="" fill="#5685DA" transform="translate(0,0)"/>
<path d="" fill="#3758C0" transform="translate(0,0)"/>
<path d="" fill="#5785D9" transform="translate(0,0)"/>
<path d="" fill="#5C8FD6" transform="translate(0,0)"/>
<path d="" fill="#324994" transform="translate(0,0)"/>
<path d="" fill="#334991" transform="translate(0,0)"/>
<path d="" fill="#4064C3" transform="translate(0,0)"/>
<path d="" fill="#39497C" transform="translate(0,0)"/>
<path d="" fill="#5E91D9" transform="translate(0,0)"/>
<path d="" fill="#394A80" transform="translate(0,0)"/>
<path d="" fill="#3150BA" transform="translate(0,0)"/>
<path d="" fill="#363D50" transform="translate(0,0)"/>
<path d="" fill="#363D4C" transform="translate(0,0)"/>
<path d="" fill="#353949" transform="translate(0,0)"/>
<path d="" fill="#343947" transform="translate(0,0)"/>
<path d="" fill="#30363F" transform="translate(0,0)"/>
<path d="" fill="#31343E" transform="translate(0,0)"/>
<path d="" fill="#323239" transform="translate(0,0)"/>
<path d="" fill="#2F3136" transform="translate(0,0)"/>
<path d="" fill="#3353BA" transform="translate(0,0)"/>
<path d="" fill="#304EB9" transform="translate(0,0)"/>
<path d="" fill="#3052BC" transform="translate(0,0)"/>
<path d="" fill="#3D60C4" transform="translate(0,0)"/>
<path d="" fill="#365BC5" transform="translate(0,0)"/>
<path d="" fill="#364D98" transform="translate(0,0)"/>
<path d="" fill="#5E93D9" transform="translate(0,0)"/>
<path d="" fill="#354D99" transform="translate(0,0)"/>
<path d="" fill="#3A5FC6" transform="translate(0,0)"/>
<path d="" fill="#648FCD" transform="translate(0,0)"/>
<path d="" fill="#333B4D" transform="translate(0,0)"/>
<path d="" fill="#364F9E" transform="translate(0,0)"/>
<path d="" fill="#375EC6" transform="translate(0,0)"/>
<path d="" fill="#6590CD" transform="translate(0,0)"/>
<path d="" fill="#3A5EC7" transform="translate(0,0)"/>
<path d="" fill="#5F92D8" transform="translate(0,0)"/>
<path d="" fill="#6298DB" transform="translate(0,0)"/>
<path d="" fill="#5E91DB" transform="translate(0,0)"/>
<path d="" fill="#375DCA" transform="translate(0,0)"/>
<path d="" fill="#385BCA" transform="translate(0,0)"/>
<path d="" fill="#5F91DB" transform="translate(0,0)"/>
<path d="" fill="#6592CD" transform="translate(0,0)"/>
<path d="" fill="#3A5CC8" transform="translate(0,0)"/>
<path d="" fill="#639ADD" transform="translate(0,0)"/>
<path d="" fill="#395FC9" transform="translate(0,0)"/>
<path d="" fill="#6794CC" transform="translate(0,0)"/>
<path d="" fill="#2A4BC6" transform="translate(0,0)"/>
<path d="" fill="#3D5ECA" transform="translate(0,0)"/>
<path d="" fill="#375BC8" transform="translate(0,0)"/>
<path d="" fill="#649CDE" transform="translate(0,0)"/>
<path d="" fill="#5F9AE5" transform="translate(0,0)"/>
<path d="" fill="#3C60CA" transform="translate(0,0)"/>
<path d="" fill="#6896D0" transform="translate(0,0)"/>
<path d="" fill="#3D60CC" transform="translate(0,0)"/>
<path d="" fill="#353C52" transform="translate(0,0)"/>
<path d="" fill="#649EDD" transform="translate(0,0)"/>
<path d="" fill="#2A4CC7" transform="translate(0,0)"/>
<path d="" fill="#3E63CC" transform="translate(0,0)"/>
<path d="" fill="#2B4ECC" transform="translate(0,0)"/>
<path d="" fill="#659FDF" transform="translate(0,0)"/>
<path d="" fill="#2B50C7" transform="translate(0,0)"/>
<path d="" fill="#2A4DC5" transform="translate(0,0)"/>
<path d="" fill="#5F99E9" transform="translate(0,0)"/>
<path d="" fill="#3F65CB" transform="translate(0,0)"/>
<path d="" fill="#6298DF" transform="translate(0,0)"/>
<path d="" fill="#2F50C0" transform="translate(0,0)"/>
<path d="" fill="#2E50C2" transform="translate(0,0)"/>
<path d="" fill="#2D323A" transform="translate(0,0)"/>
<path d="" fill="#649EE7" transform="translate(0,0)"/>
<path d="" fill="#426BCC" transform="translate(0,0)"/>
<path d="" fill="#6398DF" transform="translate(0,0)"/>
<path d="" fill="#6A9AD1" transform="translate(0,0)"/>
<path d="" fill="#385DD0" transform="translate(0,0)"/>
<path d="" fill="#67A1E2" transform="translate(0,0)"/>
<path d="" fill="#6299E1" transform="translate(0,0)"/>
<path d="" fill="#446DCC" transform="translate(0,0)"/>
<path d="" fill="#5F97E5" transform="translate(0,0)"/>
<path d="" fill="#629BE0" transform="translate(0,0)"/>
<path d="" fill="#355BCB" transform="translate(0,0)"/>
<path d="" fill="#69A2E1" transform="translate(0,0)"/>
<path d="" fill="#2F56CB" transform="translate(0,0)"/>
<path d="" fill="#4A71CC" transform="translate(0,0)"/>
<path d="" fill="#3256CB" transform="translate(0,0)"/>
<path d="" fill="#68A2E0" transform="translate(0,0)"/>
<path d="" fill="#2C53C9" transform="translate(0,0)"/>
<path d="" fill="#3C60CA" transform="translate(0,0)"/>
<path d="" fill="#649BE1" transform="translate(0,0)"/>
<path d="" fill="#6199E5" transform="translate(0,0)"/>
<path d="" fill="#2D52CA" transform="translate(0,0)"/>
<path d="" fill="#3451AE" transform="translate(0,0)"/>
<path d="" fill="#2B50CA" transform="translate(0,0)"/>
<path d="" fill="#2F4EB2" transform="translate(0,0)"/>
<path d="" fill="#333B48" transform="translate(0,0)"/>
<path d="" fill="#303339" transform="translate(0,0)"/>
<path d="" fill="#2E3034" transform="translate(0,0)"/>
<path d="" fill="#2C2F32" transform="translate(0,0)"/>
<path d="" fill="#304FB1" transform="translate(0,0)"/>
<path d="" fill="#304FB0" transform="translate(0,0)"/>
<path d="" fill="#2E2F32" transform="translate(0,0)"/>
<path d="" fill="#68A4E4" transform="translate(0,0)"/>
<path d="" fill="#67A3EB" transform="translate(0,0)"/>
<path d="" fill="#4C76CD" transform="translate(0,0)"/>
<path d="" fill="#2B51CE" transform="translate(0,0)"/>
<path d="" fill="#6C9CD4" transform="translate(0,0)"/>
<path d="" fill="#334FAD" transform="translate(0,0)"/>
<path d="" fill="#4F79CC" transform="translate(0,0)"/>
<path d="" fill="#304FAF" transform="translate(0,0)"/>
<path d="" fill="#69A6E2" transform="translate(0,0)"/>
<path d="" fill="#67A3E8" transform="translate(0,0)"/>
<path d="" fill="#67A4EA" transform="translate(0,0)"/>
<path d="" fill="#4F79CC" transform="translate(0,0)"/>
<path d="" fill="#6C9ED5" transform="translate(0,0)"/>
<path d="" fill="#2B52CF" transform="translate(0,0)"/>
<path d="" fill="#2B52CF" transform="translate(0,0)"/>
<path d="" fill="#67A1E3" transform="translate(0,0)"/>
<path d="" fill="#649FE7" transform="translate(0,0)"/>
<path d="" fill="#324EA8" transform="translate(0,0)"/>
<path d="" fill="#6AA7E1" transform="translate(0,0)"/>
<path d="" fill="#4E7ACC" transform="translate(0,0)"/>
<path d="" fill="#324FAE" transform="translate(0,0)"/>
<path d="" fill="#6D9ED5" transform="translate(0,0)"/>
<path d="" fill="#294FCC" transform="translate(0,0)"/>
<path d="" fill="#6AA7E5" transform="translate(0,0)"/>
<path d="" fill="#6D9FD6" transform="translate(0,0)"/>
<path d="" fill="#6AA6E5" transform="translate(0,0)"/>
<path d="" fill="#2C2B32" transform="translate(0,0)"/>
<path d="" fill="#2F55CA" transform="translate(0,0)"/>
<path d="" fill="#2F3031" transform="translate(0,0)"/>
<path d="" fill="#68A6E9" transform="translate(0,0)"/>
<path d="" fill="#4E78CD" transform="translate(0,0)"/>
<path d="" fill="#3B5CC9" transform="translate(0,0)"/>
<path d="" fill="#2A52CD" transform="translate(0,0)"/>
<path d="" fill="#6DA0D7" transform="translate(0,0)"/>
<path d="" fill="#2B50CB" transform="translate(0,0)"/>
<path d="" fill="#6D9FD6" transform="translate(0,0)"/>
<path d="" fill="#4167CC" transform="translate(0,0)"/>
<path d="" fill="#4166CA" transform="translate(0,0)"/>
<path d="" fill="#3453AC" transform="translate(0,0)"/>
<path d="" fill="#3C61C8" transform="translate(0,0)"/>
<path d="" fill="#517ACC" transform="translate(0,0)"/>
<path d="" fill="#6DA0D7" transform="translate(0,0)"/>
<path d="" fill="#6BA9E4" transform="translate(0,0)"/>
<path d="" fill="#69A7E9" transform="translate(0,0)"/>
<path d="" fill="#67A9EF" transform="translate(0,0)"/>
<path d="" fill="#517DCD" transform="translate(0,0)"/>
<path d="" fill="#6E9FD7" transform="translate(0,0)"/>
<path d="" fill="#68A4EA" transform="translate(0,0)"/>
<path d="" fill="#3D62C7" transform="translate(0,0)"/>
<path d="" fill="#4065CA" transform="translate(0,0)"/>
<path d="" fill="#557FCD" transform="translate(0,0)"/>
<path d="" fill="#6BA9E4" transform="translate(0,0)"/>
<path d="" fill="#3F66C8" transform="translate(0,0)"/>
<path d="" fill="#3E63C7" transform="translate(0,0)"/>
<path d="" fill="#6AA8EA" transform="translate(0,0)"/>
<path d="" fill="#5481CE" transform="translate(0,0)"/>
<path d="" fill="#6EA0D6" transform="translate(0,0)"/>
<path d="" fill="#516887" transform="translate(0,0)"/>
<path d="" fill="#375FC6" transform="translate(0,0)"/>
<path d="" fill="#365DC0" transform="translate(0,0)"/>
<path d="" fill="#375CBE" transform="translate(0,0)"/>
<path d="" fill="#3659BD" transform="translate(0,0)"/>
<path d="" fill="#67ABF0" transform="translate(0,0)"/>
<path d="" fill="#3D60BD" transform="translate(0,0)"/>
<path d="" fill="#6FA0D6" transform="translate(0,0)"/>
<path d="" fill="#69A6EA" transform="translate(0,0)"/>
<path d="" fill="#69A4E8" transform="translate(0,0)"/>
<path d="" fill="#3D5EC2" transform="translate(0,0)"/>
<path d="" fill="#6CA9E4" transform="translate(0,0)"/>
<path d="" fill="#6EA1D5" transform="translate(0,0)"/>
<path d="" fill="#6BA9EC" transform="translate(0,0)"/>
<path d="" fill="#69ACF2" transform="translate(0,0)"/>
<path d="" fill="#6BA9E7" transform="translate(0,0)"/>
<path d="" fill="#6CAAF3" transform="translate(0,0)"/>
<path d="" fill="#5F8FD2" transform="translate(0,0)"/>
<path d="" fill="#6FA0D5" transform="translate(0,0)"/>
<path d="" fill="#6CAAE8" transform="translate(0,0)"/>
<path d="" fill="#68AEF2" transform="translate(0,0)"/>
<path d="" fill="#6DACE8" transform="translate(0,0)"/>
<path d="" fill="#6392D4" transform="translate(0,0)"/>
<path d="" fill="#70A1D4" transform="translate(0,0)"/>
<path d="" fill="#6EADEE" transform="translate(0,0)"/>
<path d="" fill="#577092" transform="translate(0,0)"/>
<path d="" fill="#6BAAE9" transform="translate(0,0)"/>
<path d="" fill="#6CABEE" transform="translate(0,0)"/>
<path d="" fill="#6FAAEB" transform="translate(0,0)"/>
<path d="" fill="#6EACEF" transform="translate(0,0)"/>
<path d="" fill="#70A0D3" transform="translate(0,0)"/>
<path d="" fill="#6EB0EE" transform="translate(0,0)"/>
<path d="" fill="#6DACE8" transform="translate(0,0)"/>
<path d="" fill="#6EA8E7" transform="translate(0,0)"/>
<path d="" fill="#6FA8E7" transform="translate(0,0)"/>
<path d="" fill="#6F9FD0" transform="translate(0,0)"/>
<path d="" fill="#6CAAEC" transform="translate(0,0)"/>
<path d="" fill="#6BA9E7" transform="translate(0,0)"/>
<path d="" fill="#6BABEC" transform="translate(0,0)"/>
<path d="" fill="#6DAAEA" transform="translate(0,0)"/>
<path d="" fill="#6BA9E6" transform="translate(0,0)"/>
<path d="" fill="#70B0F1" transform="translate(0,0)"/>
<path d="" fill="#618CC2" transform="translate(0,0)"/>
<path d="" fill="#6F9DCC" transform="translate(0,0)"/>
<path d="" fill="#6DA8E6" transform="translate(0,0)"/>
<path d="" fill="#6CA9E8" transform="translate(0,0)"/>
<path d="" fill="#6EA9E3" transform="translate(0,0)"/>
<path d="" fill="#6AAEEE" transform="translate(0,0)"/>
<path d="" fill="#6BA9E7" transform="translate(0,0)"/>
<path d="" fill="#6CA9EA" transform="translate(0,0)"/>
<path d="" fill="#69A2DD" transform="translate(0,0)"/>
<path d="" fill="#6D9CC9" transform="translate(0,0)"/>
<path d="" fill="#69AEF4" transform="translate(0,0)"/>
<path d="" fill="#6CADEF" transform="translate(0,0)"/>
<path d="" fill="#6CA8E7" transform="translate(0,0)"/>
<path d="" fill="#6BADEF" transform="translate(0,0)"/>
<path d="" fill="#6AA7E3" transform="translate(0,0)"/>
<path d="" fill="#6CACE8" transform="translate(0,0)"/>
<path d="" fill="#69AAE6" transform="translate(0,0)"/>
<path d="" fill="#6CAEF2" transform="translate(0,0)"/>
<path d="" fill="#6DADF0" transform="translate(0,0)"/>
<path d="" fill="#6D9BC5" transform="translate(0,0)"/>
<path d="" fill="#6CAFF2" transform="translate(0,0)"/>
<path d="" fill="#6EADEE" transform="translate(0,0)"/>
<path d="" fill="#66A8EB" transform="translate(0,0)"/>
<path d="" fill="#6BABE8" transform="translate(0,0)"/>
<path d="" fill="#6BAEF2" transform="translate(0,0)"/>
<path d="" fill="#6DA7E5" transform="translate(0,0)"/>
<path d="" fill="#6D98C1" transform="translate(0,0)"/>
<path d="" fill="#6AAEF1" transform="translate(0,0)"/>
<path d="" fill="#6AACF2" transform="translate(0,0)"/>
<path d="" fill="#6AADF2" transform="translate(0,0)"/>
<path d="" fill="#6DABE6" transform="translate(0,0)"/>
<path d="" fill="#70ABE8" transform="translate(0,0)"/>
<path d="" fill="#6DACE8" transform="translate(0,0)"/>
<path d="" fill="#6D97BD" transform="translate(0,0)"/>
<path d="" fill="#6EAFF2" transform="translate(0,0)"/>
<path d="" fill="#6FB0F3" transform="translate(0,0)"/>
<path d="" fill="#6EAFF2" transform="translate(0,0)"/>
<path d="" fill="#6FB1F1" transform="translate(0,0)"/>
<path d="" fill="#6FADEA" transform="translate(0,0)"/>
<path d="" fill="#6CAAE7" transform="translate(0,0)"/>
<path d="" fill="#6EB3F4" transform="translate(0,0)"/>
<path d="" fill="#6CAFEF" transform="translate(0,0)"/>
<path d="" fill="#6CAFF4" transform="translate(0,0)"/>
<path d="" fill="#6D94B8" transform="translate(0,0)"/>
<path d="" fill="#70AFF1" transform="translate(0,0)"/>
<path d="" fill="#70B2F0" transform="translate(0,0)"/>
<path d="" fill="#6EADEC" transform="translate(0,0)"/>
<path d="" fill="#6D9EC9" transform="translate(0,0)"/>
<path d="" fill="#6EB1F0" transform="translate(0,0)"/>
<path d="" fill="#6C92B4" transform="translate(0,0)"/>
<path d="" fill="#6DAFF1" transform="translate(0,0)"/>
<path d="" fill="#6DACE8" transform="translate(0,0)"/>
<path d="" fill="#6BB2EF" transform="translate(0,0)"/>
<path d="" fill="#6EAFEC" transform="translate(0,0)"/>
<path d="" fill="#6BAEEA" transform="translate(0,0)"/>
<path d="" fill="#6CB1F0" transform="translate(0,0)"/>
<path d="" fill="#6CACEA" transform="translate(0,0)"/>
<path d="" fill="#6DB3F5" transform="translate(0,0)"/>
<path d="" fill="#6DAFF3" transform="translate(0,0)"/>
<path d="" fill="#6DAFF3" transform="translate(0,0)"/>
<path d="" fill="#6CB1F4" transform="translate(0,0)"/>
<path d="" fill="#6CAEF3" transform="translate(0,0)"/>
<path d="" fill="#6CB0F1" transform="translate(0,0)"/>
<path d="" fill="#6BAFF4" transform="translate(0,0)"/>
<path d="" fill="#6BB0F4" transform="translate(0,0)"/>
<path d="" fill="#6BAFF1" transform="translate(0,0)"/>
<path d="" fill="#6CB0F3" transform="translate(0,0)"/>
<path d="" fill="#6DB0EF" transform="translate(0,0)"/>
<path d="" fill="#6BB0F1" transform="translate(0,0)"/>
<path d="" fill="#6CAFF1" transform="translate(0,0)"/>
<path d="" fill="#6BAFF3" transform="translate(0,0)"/>
<path d="" fill="#6DB0F3" transform="translate(0,0)"/>
<path d="" fill="#6BAFF2" transform="translate(0,0)"/>
<path d="" fill="#6CB0F1" transform="translate(0,0)"/>
<path d="" fill="#6CAEF1" transform="translate(0,0)"/>
<path d="" fill="#6CB1F0" transform="translate(0,0)"/>
<path d="" fill="#6CAFF1" transform="translate(0,0)"/>
<path d="" fill="#6CAFF1" transform="translate(0,0)"/>
<path d="" fill="#6DAFF0" transform="translate(0,0)"/>
<path d="" fill="#6CAEEE" transform="translate(0,0)"/>
<path d="" fill="#6DAFF1" transform="translate(0,0)"/>
<path d="" fill="#69AEF1" transform="translate(0,0)"/>
<path d="" fill="#6A8FB0" transform="translate(0,0)"/>
<path d="" fill="#6DABE9" transform="translate(0,0)"/>
<path d="" fill="#6DADEC" transform="translate(0,0)"/>
<path d="" fill="#6AAAEC" transform="translate(0,0)"/>
<path d="" fill="#6CAAE7" transform="translate(0,0)"/>
<path d="" fill="#6BA8E5" transform="translate(0,0)"/>
<path d="" fill="#6BABEB" transform="translate(0,0)"/>
<path d="" fill="#6A8EAA" transform="translate(0,0)"/>
<path d="" fill="#6FAFEB" transform="translate(0,0)"/>
<path d="" fill="#6BADEA" transform="translate(0,0)"/>
<path d="" fill="#6CA9E5" transform="translate(0,0)"/>
<path d="" fill="#6DB0E9" transform="translate(0,0)"/>
<path d="" fill="#698AA5" transform="translate(0,0)"/>
<path d="" fill="#6CACF0" transform="translate(0,0)"/>
<path d="" fill="#6AACED" transform="translate(0,0)"/>
<path d="" fill="#70B0ED" transform="translate(0,0)"/>
<path d="" fill="#6FACEC" transform="translate(0,0)"/>
<path d="" fill="#6DADEC" transform="translate(0,0)"/>
<path d="" fill="#71B0EC" transform="translate(0,0)"/>
<path d="" fill="#6BACEA" transform="translate(0,0)"/>
<path d="" fill="#6BAFEA" transform="translate(0,0)"/>
<path d="" fill="#6D9FCF" transform="translate(0,0)"/>
<path d="" fill="#69859C" transform="translate(0,0)"/>
<path d="" fill="#698FAF" transform="translate(0,0)"/>
</svg>
