<?xml version="1.0" encoding="UTF-8"?>
<svg version="1.1" xmlns="http://www.w3.org/2000/svg" width="1027" height="184">
<path d="M0 0 C7.92 0 15.84 0 24 0 C24.02311843 17.32377402 24.04097893 34.6475419 24.05181217 51.97132778 C24.05697523 60.01450054 24.06401812 68.05766357 24.07543945 76.10083008 C24.08538598 83.1087296 24.09185335 90.11662208 24.09408849 97.12452847 C24.09539566 100.83743192 24.09848184 104.5503152 24.10573006 108.2632122 C24.11374332 112.40131411 24.11399116 116.53938061 24.11352539 120.67749023 C24.11712067 121.91754318 24.12071594 123.15759613 24.12442017 124.43522644 C24.1230455 125.55568359 24.12167084 126.67614075 24.12025452 127.83055115 C24.12117631 128.81041709 24.1220981 129.79028303 24.12304783 130.79984188 C24 133 24 133 23 134 C21.43827255 134.08685603 19.87270656 134.10702219 18.30859375 134.09765625 C17.36435547 134.09443359 16.42011719 134.09121094 15.44726562 134.08789062 C14.45404297 134.07951172 13.46082031 134.07113281 12.4375 134.0625 C11.44041016 134.05798828 10.44332031 134.05347656 9.41601562 134.04882812 C6.94395151 134.03700007 4.47200482 134.02051849 2 134 C1.01 130.535 1.01 130.535 0 127 C-0.47308594 127.39832031 -0.94617188 127.79664063 -1.43359375 128.20703125 C-11.02929786 135.89481758 -19.79524557 136.95186653 -32 136 C-43.19703287 134.05857898 -51.97609943 127.79287964 -58.6640625 118.75 C-68.56120088 103.53863461 -67.98115665 83.11634113 -64.4375 65.81640625 C-64.293125 65.21699219 -64.14875 64.61757812 -64 64 C-63.34 64 -62.68 64 -62 64 C-61.74089844 63.11183594 -61.48179687 62.22367188 -61.21484375 61.30859375 C-57.75771344 51.89319383 -49.90138552 45.2114082 -41 41 C-35.46297116 39.31284806 -30.39975805 38.61178545 -24.625 38.625 C-23.51463379 38.62741699 -23.51463379 38.62741699 -22.38183594 38.62988281 C-13.50418044 38.82785414 -7.91950587 41.4643953 -1 47 C-0.67 31.49 -0.34 15.98 0 0 Z M-35 63 C-43.00631479 71.67350769 -42.53348998 82.83516873 -42.13183594 93.98974609 C-41.61404798 101.88505357 -38.51487035 108.3631792 -33 114 C-27.59635257 117.80711524 -21.06890929 118.56328549 -14.6015625 117.66796875 C-8.36658256 116.01878464 -4.46623534 112.37472802 -1 107 C0.86424213 101.44674978 0.30244006 95.26459016 0.35009766 89.46582031 C0.36662055 87.99560679 0.39386287 86.52547239 0.43212891 85.05566406 C0.89233635 74.09386372 0.89233635 74.09386372 -3.66308594 64.39697266 C-7.92394291 59.94470392 -12.79347571 57.34293495 -18.9921875 56.9296875 C-25.2630039 57.14928807 -30.06804943 59.0768575 -35 63 Z " fill="#1C379E" transform="translate(761,30)"/>
<path d="M0 0 C16.18046721 -0.57023673 32.29256584 4.47881705 44.59765625 15.15625 C45.61504355 16.13855498 46.62361742 17.13094597 47.59765625 18.15625 C46.20248713 22.34175737 43.19833023 23.91216571 39.72265625 26.34375 C39.08457031 26.80716797 38.44648438 27.27058594 37.7890625 27.74804688 C32.98043423 31.15625 32.98043423 31.15625 29.59765625 31.15625 C27.58203125 29.94921875 27.58203125 29.94921875 25.34765625 28.34375 C16.38755411 22.26521671 7.78791806 20.38653377 -3.0625 21.40625 C-8.11918644 22.3776889 -12.21337557 24.16412987 -16.40234375 27.15625 C-18.87328281 31.0238068 -19.15627897 35.67317283 -18.40234375 40.15625 C-15.90558678 46.59178528 -12.28376009 48.41039698 -6.30078125 51.16796875 C1.31290088 54.39475132 9.2450054 56.90100939 17.11474609 59.42871094 C28.27759375 63.09447975 38.16155237 67.75835991 45.59765625 77.15625 C46.97265625 80.59375 46.97265625 80.59375 47.59765625 83.15625 C48.25765625 83.48625 48.91765625 83.81625 49.59765625 84.15625 C51.66347372 95.1050826 51.96727392 107.42434086 46.34375 117.375 C38.88770885 127.93941798 29.14777553 133.97745024 16.609375 136.61328125 C-1.6178866 139.45761792 -21.75085747 137.52746335 -37.40234375 127.15625 C-41.64493888 123.74808136 -45.55045659 119.99447798 -49.40234375 116.15625 C-49.02551177 113.69965814 -48.73984764 112.46148538 -46.86767578 110.76831055 C-46.22169434 110.36394775 -45.57571289 109.95958496 -44.91015625 109.54296875 C-43.85248047 108.8787793 -43.85248047 108.8787793 -42.7734375 108.20117188 C-41.66162109 107.52924805 -41.66162109 107.52924805 -40.52734375 106.84375 C-39.79386719 106.37646484 -39.06039063 105.90917969 -38.3046875 105.42773438 C-34.2101632 102.90315063 -34.2101632 102.90315063 -32.40234375 102.15625 C-29.40234375 103.15625 -29.40234375 103.15625 -27.21484375 105.40625 C-23.35547239 109.17985755 -18.98561334 113.15625 -13.40234375 113.15625 C-13.40234375 113.81625 -13.40234375 114.47625 -13.40234375 115.15625 C4.30533746 117.68869171 4.30533746 117.68869171 20.51171875 111.71484375 C24.06722595 108.0835082 25.63279955 104.50430759 25.796875 99.41796875 C25.4196317 95.13514777 24.56535592 92.35425895 21.59765625 89.15625 C12.86510664 83.06626917 2.31069959 80.31088277 -7.70263672 77.06420898 C-20.46032501 72.89664372 -33.97479075 67.71009508 -40.90234375 55.28125 C-45.16925 45.06898623 -45.46881269 34.20716973 -41.65234375 23.84375 C-37.43641049 14.38397043 -29.65098991 7.71885577 -20.078125 3.79296875 C-13.34720502 1.64313949 -7.02865175 0.45714808 0 0 Z " fill="#1B369C" transform="translate(351.40234375,28.84375)"/>
<path d="M0 0 C27.39 0 54.78 0 83 0 C83 0.66 83 1.32 83 2 C83.66 2 84.32 2 85 2 C85.02684312 4.81256281 85.04676188 7.62487241 85.0625 10.4375 C85.07087891 11.23994141 85.07925781 12.04238281 85.08789062 12.86914062 C85.0965143 14.91295221 85.0522815 16.95683902 85 19 C84 20 84 20 81.45005798 20.12025452 C79.74795921 20.1169236 79.74795921 20.1169236 78.01147461 20.11352539 C76.73022202 20.11344986 75.44896942 20.11337433 74.12889099 20.11329651 C72.72004152 20.10818909 71.31119244 20.10297309 69.90234375 20.09765625 C68.46887766 20.09579202 67.03541093 20.09436814 65.60194397 20.09336853 C61.82240043 20.08954372 58.0428951 20.07971377 54.2633667 20.06866455 C49.73212219 20.0566548 45.20086493 20.05204801 40.66960907 20.04621124 C33.77971278 20.03650198 26.88990038 20.0173452 20 20 C20 32.54 20 45.08 20 58 C23.88652344 57.91621094 27.77304687 57.83242187 31.77734375 57.74609375 C35.5236582 57.66878424 39.27000401 57.5932173 43.01635742 57.51782227 C45.62870016 57.46430998 48.24100618 57.40897387 50.85327148 57.35180664 C54.59871498 57.27015242 58.34423971 57.19496573 62.08984375 57.12109375 C63.26586655 57.09405869 64.44188934 57.06702362 65.65354919 57.03916931 C67.27511681 57.00902489 67.27511681 57.00902489 68.92944336 56.97827148 C69.88652695 56.95828598 70.84361053 56.93830048 71.82969666 56.91770935 C74 57 74 57 75 58 C75 63.61 75 69.22 75 75 C57.18 75.33 39.36 75.66 21 76 C21 80.62 21 85.24 21 90 C20.94569711 92.35206595 20.87818587 94.70399261 20.78125 97.0546875 C20.71357422 98.74658203 20.71357422 98.74658203 20.64453125 100.47265625 C20.59683594 101.59542969 20.54914062 102.71820313 20.5 103.875 C20.45230469 105.05191406 20.40460937 106.22882813 20.35546875 107.44140625 C20.23949404 110.29438415 20.12098367 113.14723089 20 116 C20.79957626 115.99777939 21.59915253 115.99555878 22.42295837 115.99327087 C29.94259639 115.97326908 37.46222159 115.95802645 44.98187923 115.94818783 C48.84820118 115.94295974 52.71450121 115.93586346 56.58081055 115.92456055 C60.30903401 115.913729 64.03723634 115.9077226 67.76547432 115.90512276 C69.19089656 115.90326899 70.61631759 115.89964929 72.04173088 115.89426994 C74.03163408 115.88705607 76.02155834 115.88659192 78.01147461 115.88647461 C79.14620712 115.884254 80.28093964 115.88203339 81.45005798 115.87974548 C84 116 84 116 85 117 C85 122.61 85 128.22 85 134 C56.29 134 27.58 134 -2 134 C-2 90.44 -2 46.88 -2 2 C-1.34 2 -0.68 2 0 2 C0 1.34 0 0.68 0 0 Z " fill="#030302" transform="translate(18,30)"/>
<path d="M0 0 C2.01822917 0.06510417 4.03645833 0.13020833 6.0546875 0.1953125 C6.0546875 0.5253125 6.0546875 0.8553125 6.0546875 1.1953125 C10.0146875 1.5253125 13.9746875 1.8553125 18.0546875 2.1953125 C18.0546875 46.7453125 18.0546875 91.2953125 18.0546875 137.1953125 C11.1246875 137.1953125 4.1946875 137.1953125 -2.9453125 137.1953125 C-3.6053125 136.5353125 -4.2653125 135.8753125 -4.9453125 135.1953125 C-4.9453125 133.8753125 -4.9453125 132.5553125 -4.9453125 131.1953125 C-5.574375 131.60523438 -6.2034375 132.01515625 -6.8515625 132.4375 C-17.4677254 139.12056641 -27.76278692 141.11470027 -40.234375 138.5078125 C-49.79326764 135.60384511 -55.76738159 130.82687422 -61.9453125 123.1953125 C-62.6053125 123.1953125 -63.2653125 123.1953125 -63.9453125 123.1953125 C-64.4403125 120.7203125 -64.4403125 120.7203125 -64.9453125 118.1953125 C-65.6053125 118.1953125 -66.2653125 118.1953125 -66.9453125 118.1953125 C-67.0690625 117.4321875 -67.1928125 116.6690625 -67.3203125 115.8828125 C-67.82634042 112.99264114 -67.82634042 112.99264114 -69.9453125 110.1953125 C-70.48447396 107.5351102 -70.67901348 104.90268587 -70.9453125 102.1953125 C-71.2753125 102.1953125 -71.6053125 102.1953125 -71.9453125 102.1953125 C-71.40672195 89.69434241 -70.48835589 77.47912031 -67.9453125 65.1953125 C-67.2853125 65.1953125 -66.6253125 65.1953125 -65.9453125 65.1953125 C-65.6565625 64.2465625 -65.3678125 63.2978125 -65.0703125 62.3203125 C-63.9453125 59.1953125 -63.9453125 59.1953125 -61.9453125 57.1953125 C-61.2028125 56.4321875 -60.4603125 55.6690625 -59.6953125 54.8828125 C-50.18575667 45.58938294 -41.45300448 42.23674762 -28.3203125 41.5703125 C-27.44890625 41.51875 -26.5775 41.4671875 -25.6796875 41.4140625 C-24.84695312 41.37023437 -24.01421875 41.32640625 -23.15625 41.28125 C-22.39618652 41.2404834 -21.63612305 41.1997168 -20.85302734 41.15771484 C-18.9453125 41.1953125 -18.9453125 41.1953125 -16.9453125 42.1953125 C-16.9453125 42.8553125 -16.9453125 43.5153125 -16.9453125 44.1953125 C-15.924375 44.288125 -15.924375 44.288125 -14.8828125 44.3828125 C-12.01727318 45.17540848 -10.60893629 46.01263627 -8.26171875 47.74609375 C-7.6385376 48.20282471 -7.01535645 48.65955566 -6.37329102 49.13012695 C-5.90205811 49.48163818 -5.4308252 49.83314941 -4.9453125 50.1953125 C-4.93722565 49.59840607 -4.92913879 49.00149963 -4.92080688 48.38650513 C-4.83494053 42.1899028 -4.73544557 35.99362702 -4.62792969 29.79736328 C-4.58957849 27.48296581 -4.5547366 25.16850748 -4.5234375 22.85400391 C-4.4779201 19.53265586 -4.41990407 16.21172909 -4.359375 12.890625 C-4.34782379 11.85100616 -4.33627258 10.81138733 -4.32437134 9.74026489 C-4.30450165 8.77941986 -4.28463196 7.81857483 -4.26416016 6.82861328 C-4.25083649 5.98033966 -4.23751282 5.13206604 -4.2237854 4.25808716 C-3.83869254 1.40553028 -2.90787845 0.29195567 0 0 Z M-39.6953125 64.2578125 C-47.99232976 75.09002948 -49.07018651 86.95428879 -47.9453125 100.1953125 C-46.50270041 107.64743436 -43.8978888 114.26606046 -37.9453125 119.1953125 C-31.96898203 122.90063739 -25.85231454 122.90717622 -18.9453125 122.1953125 C-15.52519978 121.11237383 -15.52519978 121.11237383 -12.9453125 119.1953125 C-12.0790625 118.6384375 -11.2128125 118.0815625 -10.3203125 117.5078125 C-4.82897228 112.16098123 -3.68827612 107.16648717 -3.4140625 99.6953125 C-3.39381146 97.5824069 -3.39885801 95.47223086 -3.42382812 93.359375 C-3.44527213 91.1993789 -3.42396353 89.04270731 -3.3984375 86.8828125 C-3.38005347 78.18835663 -3.9343319 72.03840796 -9.62109375 65.171875 C-14.39746825 61.22766121 -18.58610394 59.56044387 -24.8203125 58.8828125 C-30.40877898 59.44165915 -35.17754283 60.86948524 -39.6953125 64.2578125 Z M-67.9453125 67.1953125 C-66.9453125 69.1953125 -66.9453125 69.1953125 -66.9453125 69.1953125 Z " fill="#020201" transform="translate(178.9453125,26.8046875)"/>
<path d="M0 0 C7.59 0 15.18 0 23 0 C23.33 16.17 23.66 32.34 24 49 C25.98 47.35 27.96 45.7 30 44 C38.41563526 38.34522532 47.15234783 38.11465106 57 39 C65.3776002 40.81551127 72.09221243 45.53493064 76.7578125 52.69921875 C82.88679751 64.02451713 83.29983497 75.63487037 83.1953125 88.296875 C83.1924826 89.61165833 83.18965271 90.92644165 83.18673706 92.28106689 C83.1791939 95.73335743 83.15962872 99.18547278 83.1373291 102.63769531 C83.11666674 106.17771029 83.10769229 109.71775428 83.09765625 113.2578125 C83.07637137 120.1719531 83.04126843 127.08595004 83 134 C75.08 134 67.16 134 59 134 C58.98541748 132.12820068 58.97083496 130.25640137 58.95581055 128.32788086 C58.9040456 122.12513926 58.83872938 115.92265453 58.76428509 109.72014523 C58.71966585 105.96164556 58.68039163 102.20325218 58.65356445 98.44458008 C58.62744646 94.81336698 58.58698539 91.18256473 58.53681374 87.55160713 C58.52020212 86.17027481 58.50865243 84.78887152 58.50238609 83.40745354 C58.44962046 72.1546702 58.44962046 72.1546702 53.75 62.1875 C48.36765281 58.53519298 42.8282101 58.74773693 36.59375 59.44140625 C32.95228065 60.22563835 30.89297775 61.70045359 28 64 C27.34 64 26.68 64 26 64 C24.36429553 68.32301692 23.73585701 71.94272564 23.68115234 76.55615234 C23.66128265 77.83702728 23.64141296 79.11790222 23.62094116 80.43759155 C23.60906748 81.82037178 23.59740447 83.20315384 23.5859375 84.5859375 C23.56721021 86.01226909 23.54763565 87.43858979 23.5272522 88.86489868 C23.47608959 92.60318556 23.43637945 96.3415083 23.39910889 100.07995605 C23.35896922 103.90104934 23.30792252 107.72199551 23.2578125 111.54296875 C23.16124128 119.0285522 23.07778611 126.51419346 23 134 C15.41 134 7.82 134 0 134 C-0.72666009 130.36669956 -1.12535733 127.67958814 -1.12698364 124.08239746 C-1.12980347 123.11826935 -1.13262329 122.15414124 -1.13552856 121.16079712 C-1.13350433 120.11451141 -1.1314801 119.06822571 -1.12939453 117.99023438 C-1.13114685 116.87897186 -1.13289917 115.76770935 -1.13470459 114.62277222 C-1.13910764 110.94641561 -1.13618891 107.27010711 -1.1328125 103.59375 C-1.13348636 101.0312906 -1.13445708 98.46883126 -1.13571167 95.90637207 C-1.13718687 90.529697 -1.13513702 85.15303992 -1.13037109 79.77636719 C-1.12495119 73.59115281 -1.12667571 67.40597151 -1.1321975 61.22075796 C-1.13731634 55.24444219 -1.13673037 49.26814236 -1.13381577 43.29182434 C-1.13315206 40.76268001 -1.13395533 38.23353482 -1.13629532 35.70439148 C-1.13885952 32.15121289 -1.13492763 28.59809593 -1.12939453 25.04492188 C-1.13141876 24.01483002 -1.13344299 22.98473816 -1.13552856 21.9234314 C-1.1145207 14.57255448 -0.62691937 7.32452155 0 0 Z " fill="#1C379D" transform="translate(506,30)"/>
<path d="M0 0 C0.87624023 0.00757324 1.75248047 0.01514648 2.65527344 0.02294922 C13.03768482 0.28664784 21.51738053 3.2005908 29.125 10.4375 C41.49527651 23.64429111 42.125 37.75948841 42.125 55.4375 C21.995 55.7675 1.865 56.0975 -18.875 56.4375 C-18.875 63.18887812 -17.67563686 66.95581222 -13.875 72.4375 C-10.12162537 75.76710652 -5.93111305 78.04856823 -0.875 78.4375 C0.176875 78.52 1.22875 78.6025 2.3125 78.6875 C10.77324602 78.13269698 18.0830092 75.4794908 24.125 69.4375 C28.29993146 69.61031851 30.60438587 72.44968603 33.4375 75.25 C34.34113281 76.12269531 35.24476563 76.99539062 36.17578125 77.89453125 C38.125 80.4375 38.125 80.4375 38.22265625 82.51171875 C33.83029599 90.21788817 23.25862712 94.1950514 15.125 96.4375 C2.65450491 99.54462672 -11.38671922 98.10484527 -22.6171875 91.9296875 C-34.3802753 84.24256325 -40.48238783 74.92031995 -43.625 61.4375 C-46.16775501 48.33253185 -45.11711977 33.6076172 -38.4453125 21.7421875 C-28.97838604 7.8479422 -16.95837984 -0.20617096 0 0 Z M-13.625 23.5625 C-17.43036937 28.42491642 -19.875 33.2170606 -19.875 39.4375 C-7.335 39.4375 5.205 39.4375 18.125 39.4375 C17.27829384 29.54759734 17.27829384 29.54759734 11.75 22.1875 C3.23401269 16.51017513 -5.66276574 17.40986443 -13.625 23.5625 Z " fill="#1C379C" transform="translate(973.875,68.5625)"/>
<path d="M0 0 C11.8812687 8.98650176 16.05288535 19.71394745 18.10546875 34.08203125 C18.10546875 39.03203125 18.10546875 43.98203125 18.10546875 49.08203125 C-2.35453125 49.41203125 -22.81453125 49.74203125 -43.89453125 50.08203125 C-41.76243396 60.56679374 -41.76243396 60.56679374 -35.1875 68.43359375 C-29.47686455 71.89232285 -23.4868359 72.88379803 -16.89453125 72.08203125 C-10.03380517 70.28888693 -5.1249575 67.78941488 0.10546875 63.08203125 C3.10546875 63.08203125 3.10546875 63.08203125 5.35546875 65.14453125 C6.27394923 66.12199672 7.19037208 67.10139716 8.10546875 68.08203125 C9.37234518 69.3568092 10.64327859 70.62756648 11.91796875 71.89453125 C12.98046875 72.95703125 14.04296875 74.01953125 15.10546875 75.08203125 C8.70040761 84.04911684 -1.07284558 88.52863354 -11.6875 90.63671875 C-25.00769603 92.4862953 -38.74038056 91.45470915 -50.06640625 83.53125 C-59.17277643 76.31231124 -66.0057047 66.82603055 -67.89453125 55.08203125 C-67.98347834 53.26465754 -68.02513307 51.44454772 -68.02734375 49.625 C-68.02863281 48.59439453 -68.02992188 47.56378906 -68.03125 46.50195312 C-68.02738281 45.43525391 -68.02351562 44.36855469 -68.01953125 43.26953125 C-68.02339844 42.21443359 -68.02726563 41.15933594 -68.03125 40.07226562 C-68.0240737 34.31328251 -67.76006963 28.77672423 -66.89453125 23.08203125 C-66.23453125 23.08203125 -65.57453125 23.08203125 -64.89453125 23.08203125 C-64.80300781 22.36789063 -64.71148438 21.65375 -64.6171875 20.91796875 C-62.49653501 12.59584061 -54.80208688 4.91354557 -47.89453125 0.08203125 C-33.57316093 -8.33972404 -14.14046633 -9.3697287 0 0 Z M-38.76953125 18.89453125 C-42.46721778 23.48505325 -43.89453125 27.14658459 -43.89453125 33.08203125 C-31.35453125 33.08203125 -18.81453125 33.08203125 -5.89453125 33.08203125 C-6.48828008 23.74953039 -6.48828008 23.74953039 -11.54296875 16.640625 C-20.63335562 9.90913599 -31.03623658 10.50342521 -38.76953125 18.89453125 Z " fill="#1C369C" transform="translate(667.89453125,74.91796875)"/>
<path d="M0 0 C3.81248426 -0.02887236 7.6249407 -0.04675492 11.4375 -0.0625 C12.52611328 -0.07087891 13.61472656 -0.07925781 14.73632812 -0.08789062 C15.77080078 -0.09111328 16.80527344 -0.09433594 17.87109375 -0.09765625 C18.82943115 -0.10289307 19.78776855 -0.10812988 20.77514648 -0.11352539 C23 0 23 0 24 1 C24.10792335 2.96217442 24.14628347 4.92820362 24.15771484 6.89331055 C24.16797699 8.15519699 24.17823914 9.41708344 24.18881226 10.71720886 C24.19225018 11.39623953 24.1956881 12.0752702 24.19923019 12.77487755 C24.21100011 14.89801307 24.23045049 17.0209434 24.25234985 19.14399719 C24.31401017 25.18210976 24.36790975 31.22020521 24.40136719 37.25854492 C24.42236944 40.94923153 24.45772422 44.63955065 24.50212479 48.33002663 C24.5162498 49.7345222 24.52499931 51.13908286 24.52817917 52.54364586 C24.53311375 54.51574953 24.55792711 56.48777271 24.58349609 58.4597168 C24.59158295 59.58033005 24.5996698 60.7009433 24.60800171 61.85551453 C25.13678122 66.09721541 26.78174534 69.29444347 29.25 72.75 C33.9302964 76.09306886 39.15098234 76.39649394 44.65234375 75.61328125 C50.10968383 74.18765331 54.86045078 71.70932383 58 67 C58.32992609 64.02749123 58.32992609 64.02749123 58.31884766 60.60083008 C58.33391609 59.63456947 58.33391609 59.63456947 58.34928894 58.64878845 C58.38014705 56.52237835 58.39716293 54.3960943 58.4140625 52.26953125 C58.43277209 50.79407159 58.45234534 49.31862265 58.4727478 47.84318542 C58.52409736 43.96182575 58.56370781 40.08043137 58.60089111 36.19891357 C58.64091316 32.23733923 58.69201368 28.2759096 58.7421875 24.31445312 C58.83898018 16.54306799 58.9233741 8.77161291 59 1 C62.81211903 0.8041309 66.62470534 0.61970435 70.4375 0.4375 C71.52611328 0.38142578 72.61472656 0.32535156 73.73632812 0.26757812 C74.77080078 0.21923828 75.80527344 0.17089844 76.87109375 0.12109375 C77.82943115 0.0739624 78.78776855 0.02683105 79.77514648 -0.02172852 C82 0 82 0 83 1 C83.09523905 3.89143151 83.12553027 6.75892064 83.11352539 9.65063477 C83.11367142 10.55786285 83.11381744 11.46509094 83.1139679 12.39981079 C83.11326841 15.41369985 83.10547434 18.42752793 83.09765625 21.44140625 C83.0957922 23.52505967 83.09436824 25.60871354 83.09336853 27.69236755 C83.08954234 33.18823446 83.0797112 38.68407513 83.06866455 44.17993164 C83.0584526 49.78336227 83.05387137 55.38679713 83.04882812 60.99023438 C83.03808902 71.993503 83.02049141 82.99674521 83 94 C75.41 94 67.82 94 60 94 C59.505 90.04 59.505 90.04 59 86 C57.6078125 87.36125 57.6078125 87.36125 56.1875 88.75 C48.3458447 95.35514678 39.70110686 96.69516174 29.65234375 96.37890625 C20.42573456 95.42170722 13.13027057 92.02194628 7 85 C-0.8903639 74.53319075 -0.29400619 61.36117407 -0.1953125 48.828125 C-0.19157142 47.4103821 -0.18872964 45.99263657 -0.18673706 44.57489014 C-0.17918661 40.88586999 -0.15961462 37.19701326 -0.1373291 33.50805664 C-0.11668297 29.72674773 -0.10769567 25.94541181 -0.09765625 22.1640625 C-0.0763584 14.77596804 -0.04232962 7.38800712 0 0 Z " fill="#1C379E" transform="translate(798,70)"/>
<path d="M0 0 C1.17079102 0.01160156 1.17079102 0.01160156 2.36523438 0.0234375 C3.53022461 0.01183594 3.53022461 0.01183594 4.71875 0 C8.62825605 0.01346944 10.60720469 0.05975105 13.92773438 2.2734375 C14.30627441 4.81387329 14.30627441 4.81387329 14.3125 8.06494141 C14.32261108 9.28025543 14.33272217 10.49556946 14.34313965 11.74771118 C14.34158371 12.39939899 14.34002777 13.05108681 14.33842468 13.72252274 C14.3339478 15.76669943 14.34794532 17.81000956 14.36682129 19.85409546 C14.40365506 24.20219503 14.41730149 28.55020496 14.42773438 32.8984375 C14.43984251 37.91816461 14.46163729 42.93747235 14.50773621 47.95701218 C14.52121379 49.95979156 14.51695309 51.96266522 14.5123291 53.96548462 C14.56798466 60.75917653 14.87509808 66.14869183 17.92773438 72.2734375 C19.92098638 74.14654638 19.92098638 74.14654638 21.92773438 75.2734375 C22.42273438 76.2634375 22.42273438 76.2634375 22.92773438 77.2734375 C33.651906 77.77391035 33.651906 77.77391035 43.92773438 75.2734375 C44.25773437 74.6134375 44.58773437 73.9534375 44.92773438 73.2734375 C46.57420123 71.58681292 48.23956505 69.91832044 49.92773438 68.2734375 C49.59773438 67.2834375 49.26773438 66.2934375 48.92773438 65.2734375 C49.58773437 65.2734375 50.24773437 65.2734375 50.92773438 65.2734375 C50.92773438 44.4834375 50.92773438 23.6934375 50.92773438 2.2734375 C71.92773438 1.2734375 71.92773438 1.2734375 73.92773438 2.2734375 C73.92773438 32.9634375 73.92773438 63.6534375 73.92773438 95.2734375 C66.66773438 95.2734375 59.40773438 95.2734375 51.92773438 95.2734375 C51.43273437 91.3134375 51.43273437 91.3134375 50.92773438 87.2734375 C49.63458376 88.22976749 48.34326585 89.18857601 47.05273438 90.1484375 C46.3334375 90.68210937 45.61414063 91.21578125 44.87304688 91.765625 C42.84520806 93.27216912 42.84520806 93.27216912 40.92773438 95.2734375 C30.85496548 98.29526817 20.24390585 97.92402494 9.92773438 96.2734375 C9.92773438 95.6134375 9.92773438 94.9534375 9.92773438 94.2734375 C8.84492188 93.9021875 8.84492188 93.9021875 7.74023438 93.5234375 C2.68064081 91.27472925 -1.05845575 87.89461264 -4.07226562 83.2734375 C-7.01418085 75.58523239 -8.18943849 67.85519347 -8.2175293 59.63549805 C-8.22390915 58.36115402 -8.230289 57.08681 -8.23686218 55.77384949 C-8.23839004 54.4026188 -8.23950444 53.0313876 -8.24023438 51.66015625 C-8.24345119 50.24005602 -8.24681558 48.81995612 -8.25032043 47.39985657 C-8.2562826 44.43705475 -8.25816302 41.474282 -8.25756836 38.51147461 C-8.25746616 34.7104758 -8.27119012 30.90966138 -8.28834057 27.10870647 C-8.29943337 24.18255245 -8.30148852 21.25644367 -8.30095863 18.33027077 C-8.3021401 16.92800058 -8.30657118 15.52572928 -8.314291 14.12347984 C-8.32404811 12.17047901 -8.31995974 10.21742367 -8.31518555 8.2644043 C-8.31661057 7.15300583 -8.31803558 6.04160736 -8.31950378 4.89653015 C-7.81529288 -0.45293499 -4.63518698 0.01599719 0 0 Z " fill="#020202" transform="translate(219.072265625,68.7265625)"/>
<path d="M0 0 C7.09606933 5.03464137 12.32105847 11.0887802 16 19 C16 19.66 16 20.32 16 21 C9.4 23.31 2.8 25.62 -4 28 C-5.65 25.36 -7.3 22.72 -9 20 C-15.44295008 14.97449894 -21.02377924 14.2154537 -29 15 C-34.292301 16.61222415 -38.12340619 19.20567699 -41 24 C-45.50837193 35.14908193 -46.44314005 46.3651239 -43 58 C-40.32350774 63.83006321 -37.84899103 68.06206882 -32 71 C-26.03814728 72.97573026 -19.3373947 72.96544735 -13.625 70.3125 C-8.82072984 67.57135392 -6.37942814 63.88300035 -4 59 C2.85921925 60.61191652 9.46207289 62.35968328 16 65 C14.74291291 73.23608782 9.36213644 79.33917373 3.06640625 84.5 C-7.63723659 92.26975208 -20.14030154 93.17178795 -33 92 C-44.85621015 89.87326843 -54.42841909 84.26739599 -61.46875 74.4375 C-66.77128054 65.9967371 -69.08618673 57.89964371 -70 48 C-70.0721875 47.24203125 -70.144375 46.4840625 -70.21875 45.703125 C-70.83459419 32.05191201 -66.49190312 18.99213704 -57.6875 8.6875 C-53.79654299 4.5914184 -50.07853604 1.46886318 -45 -1 C-44.27167969 -1.39058594 -43.54335938 -1.78117187 -42.79296875 -2.18359375 C-30.08629233 -7.96663231 -11.91631937 -7.12316298 0 0 Z " fill="#1B369B" transform="translate(479,74)"/>
<path d="M0 0 C7.59 0 15.18 0 23 0 C23 44.22 23 88.44 23 134 C15.41 134 7.82 134 0 134 C0 89.78 0 45.56 0 0 Z " fill="#1C359B" transform="translate(895,30)"/>
<path d="M0 0 C6.6 0 13.2 0 20 0 C20 16.83 20 33.66 20 51 C20.66 51.33 21.32 51.66 22 52 C23 55 23 55 22 58 C23.98 58 25.96 58 28 58 C27.36771484 58.83144531 27.36771484 58.83144531 26.72265625 59.6796875 C26.17480469 60.40414062 25.62695312 61.12859375 25.0625 61.875 C24.51722656 62.59429687 23.97195313 63.31359375 23.41015625 64.0546875 C20.89499597 67.52435459 20.8541792 69.74314859 20.79467773 74.01025391 C20.77473251 75.27141022 20.75478729 76.53256653 20.73423767 77.8319397 C20.71725335 79.21347937 20.70037454 80.59502034 20.68359375 81.9765625 C20.6630244 83.38618582 20.64202793 84.79580297 20.62062073 86.20541382 C20.56539805 89.91747035 20.51598969 93.62958257 20.46777344 97.34173584 C20.41755982 101.12891603 20.36187303 104.91601526 20.30664062 108.703125 C20.19905664 116.13535005 20.09811797 123.56764285 20 131 C10.1 131.495 10.1 131.495 0 132 C-0.1545876 123.68837484 -0.30348971 115.37670329 -0.4429636 107.06481266 C-0.50797382 103.20337558 -0.5752705 99.34200929 -0.64819336 95.48071289 C-0.7187569 91.73953377 -0.78279158 87.99829001 -0.84269524 84.25692558 C-0.86637845 82.84469125 -0.89223568 81.43249127 -0.92053413 80.02034187 C-1.08608754 71.67394113 -0.91994414 63.43190748 -0.3710804 55.10405159 C0.03026122 48.93476194 0.13006983 42.80120989 0.09765625 36.62109375 C0.0962413 35.55754166 0.09482635 34.49398956 0.09336853 33.39820862 C0.08787416 30.07794088 0.07534381 26.75774654 0.0625 23.4375 C0.05747128 21.15429786 0.05291082 18.87109465 0.04882812 16.58789062 C0.03793975 11.05856647 0.02075202 5.52929557 0 0 Z " fill="#1C379F" transform="translate(507,31)"/>
<path d="M0 0 C9.10871478 6.60828327 11.8267534 14.74077231 13.57810974 25.56137085 C14.3032186 31.47139225 14.24439869 37.35050178 14.1953125 43.296875 C14.1924826 44.61165833 14.18965271 45.92644165 14.18673706 47.28106689 C14.1791939 50.73335743 14.15962872 54.18547278 14.1373291 57.63769531 C14.11666674 61.17771029 14.10769229 64.71775428 14.09765625 68.2578125 C14.07637137 75.1719531 14.04126843 82.08595004 14 89 C6.08 89 -1.84 89 -10 89 C-10.01458252 87.12820068 -10.02916504 85.25640137 -10.04418945 83.32788086 C-10.0959544 77.12513926 -10.16127062 70.92265453 -10.23571491 64.72014523 C-10.28033415 60.96164556 -10.31960837 57.20325218 -10.34643555 53.44458008 C-10.37255354 49.81336698 -10.41301461 46.18256473 -10.46318626 42.55160713 C-10.47979788 41.17027481 -10.49134757 39.78887152 -10.49761391 38.40745354 C-10.55037954 27.1546702 -10.55037954 27.1546702 -15.25 17.1875 C-20.63234719 13.53519298 -26.1717899 13.74773693 -32.40625 14.44140625 C-36.04771935 15.22563835 -38.10702225 16.70045359 -41 19 C-41.66 19 -42.32 19 -43 19 C-44.63570447 23.32301692 -45.26414299 26.94272564 -45.31884766 31.55615234 C-45.33871735 32.83702728 -45.35858704 34.11790222 -45.37905884 35.43759155 C-45.39093252 36.82037178 -45.40259553 38.20315384 -45.4140625 39.5859375 C-45.43278979 41.01226909 -45.45236435 42.43858979 -45.4727478 43.86489868 C-45.52391041 47.60318556 -45.56362055 51.3415083 -45.60089111 55.07995605 C-45.64103078 58.90104934 -45.69207748 62.72199551 -45.7421875 66.54296875 C-45.83875872 74.0285522 -45.92221389 81.51419346 -46 89 C-53.59 89 -61.18 89 -69 89 C-69.75386196 85.23069021 -70.12264991 82.40911329 -70.11352539 78.65893555 C-70.11344986 77.6182341 -70.11337433 76.57753265 -70.11329651 75.5052948 C-70.10813522 74.3936647 -70.10297394 73.28203461 -70.09765625 72.13671875 C-70.0962413 70.98959915 -70.09482635 69.84247955 -70.09336853 68.66059875 C-70.08777861 65.00287246 -70.07522789 61.34520775 -70.0625 57.6875 C-70.0574837 55.20507901 -70.05292102 52.72265706 -70.04882812 50.24023438 C-70.03781247 44.1601353 -70.0210843 38.08007205 -70 32 C-69.67 32 -69.34 32 -69 32 C-68.2323484 35.43143417 -67.85694069 38.64406124 -67.79467773 42.1574707 C-67.77473251 43.15813065 -67.75478729 44.15879059 -67.73423767 45.18977356 C-67.71752518 46.2576561 -67.70081268 47.32553864 -67.68359375 48.42578125 C-67.66281265 49.52850876 -67.64203156 50.63123627 -67.62062073 51.76737976 C-67.55535068 55.28235778 -67.49634505 58.79740912 -67.4375 62.3125 C-67.39429335 64.69857523 -67.35067837 67.08464309 -67.30664062 69.47070312 C-67.19969236 75.31372735 -67.09836143 81.15682517 -67 87 C-60.73 87 -54.46 87 -48 87 C-48.02094727 85.12296387 -48.04189453 83.24592773 -48.06347656 81.31201172 C-48.12808028 75.09750687 -48.17398549 68.88308173 -48.20724869 62.66833305 C-48.22808854 58.90174409 -48.25633908 55.13551976 -48.30175781 51.36914062 C-48.34534598 47.73163413 -48.36916419 44.09447747 -48.37950897 40.45672989 C-48.38687726 39.07167176 -48.40126605 37.68663193 -48.42292023 36.30172348 C-48.62295769 22.97331324 -48.62295769 22.97331324 -44 18 C-43.443125 17.278125 -42.88625 16.55625 -42.3125 15.8125 C-36.69347184 11.40839684 -29.95363346 10.33774919 -23 11 C-16.70961008 12.21289182 -13.70370583 14.92945496 -10.12890625 20.16015625 C-7.96896097 23.68034389 -7.8782064 25.85961334 -7.88647461 30.01025391 C-7.88655014 31.27141022 -7.88662567 32.53256653 -7.88670349 33.8319397 C-7.89181051 35.21348103 -7.89702651 36.59502196 -7.90234375 37.9765625 C-7.90420856 39.3861791 -7.90563217 40.79579634 -7.90663147 42.20541382 C-7.91045167 45.91753932 -7.92027772 49.62962578 -7.93133545 53.34173584 C-7.94156025 57.12886019 -7.94613138 60.91599083 -7.95117188 64.703125 C-7.96190043 72.13543654 -7.97949321 79.56770783 -8 87 C-1.73 87 4.54 87 11 87 C10.99476318 85.23889893 10.98952637 83.47779785 10.98413086 81.66333008 C10.96798695 75.83593387 10.95650663 70.00853844 10.94818783 64.18112659 C10.94297567 60.64897726 10.93590836 57.11685218 10.92456055 53.5847168 C10.91158805 49.52131928 10.906758 45.45794714 10.90234375 41.39453125 C10.89718246 40.1297847 10.89202118 38.86503815 10.88670349 37.56196594 C10.88662796 36.38111923 10.88655243 35.20027252 10.88647461 33.98364258 C10.884254 32.94661697 10.88203339 31.90959137 10.87974548 30.84114075 C10.99490007 28.12049128 11.38597624 25.64843958 12 23 C11.34 23 10.68 23 10 23 C9.938125 21.96875 9.87625 20.9375 9.8125 19.875 C8.80607052 15.07510553 7.20715447 13.60804878 4 10 C3.375 7.875 3.375 7.875 3 6 C2.01268258 4.65724831 1.01405257 3.32267727 0 2 C0 1.34 0 0.68 0 0 Z " fill="#142876" transform="translate(575,75)"/>
<path d="M0 0 C7.59 0 15.18 0 23 0 C23 44.22 23 88.44 23 134 C15.41 134 7.82 134 0 134 C0 89.78 0 45.56 0 0 Z M2 1 C2 44.23 2 87.46 2 132 C14.73108186 132.86657824 14.73108186 132.86657824 21 130 C21 87.43 21 44.86 21 1 C14.73 1 8.46 1 2 1 Z " fill="#102479" transform="translate(895,30)"/>
<path d="M0 0 C7.92 0 15.84 0 24 0 C24.02311843 17.32377402 24.04097893 34.6475419 24.05181217 51.97132778 C24.05697523 60.01450054 24.06401812 68.05766357 24.07543945 76.10083008 C24.08538598 83.1087296 24.09185335 90.11662208 24.09408849 97.12452847 C24.09539566 100.83743192 24.09848184 104.5503152 24.10573006 108.2632122 C24.11374332 112.40131411 24.11399116 116.53938061 24.11352539 120.67749023 C24.11712067 121.91754318 24.12071594 123.15759613 24.12442017 124.43522644 C24.1230455 125.55568359 24.12167084 126.67614075 24.12025452 127.83055115 C24.12117631 128.81041709 24.1220981 129.79028303 24.12304783 130.79984188 C24 133 24 133 23 134 C21.43827255 134.08685603 19.87270656 134.10702219 18.30859375 134.09765625 C17.36435547 134.09443359 16.42011719 134.09121094 15.44726562 134.08789062 C14.45404297 134.07951172 13.46082031 134.07113281 12.4375 134.0625 C11.44041016 134.05798828 10.44332031 134.05347656 9.41601562 134.04882812 C6.94395151 134.03700007 4.47200482 134.02051849 2 134 C2 133.67 2 133.34 2 133 C8.6 133 15.2 133 22 133 C22 89.44 22 45.88 22 1 C20.35 1.33 18.7 1.66 17 2 C12.38 2 7.76 2 3 2 C3 17.51 3 33.02 3 49 C-4 50 -4 50 -7 48 C-7.309375 47.32453125 -7.61875 46.6490625 -7.9375 45.953125 C-8.81923655 43.87505935 -8.81923655 43.87505935 -10.75 43.171875 C-16.52608225 42.08885958 -22.2607407 41.74295924 -28.125 41.625 C-28.87652344 41.59889648 -29.62804687 41.57279297 -30.40234375 41.54589844 C-35.5165346 41.53022447 -38.886435 42.58602168 -43.26904297 45.23583984 C-45 46 -45 46 -48 45 C-46.44148245 44.17988688 -44.87798284 43.36923787 -43.3125 42.5625 C-42.44238281 42.11003906 -41.57226562 41.65757813 -40.67578125 41.19140625 C-32.61657743 37.60300163 -21.38465057 37.71540475 -12.83984375 39.75390625 C-8.01755879 41.60863123 -5.1629635 43.6696292 -1 47 C-0.67 31.49 -0.34 15.98 0 0 Z " fill="#1B2F7A" transform="translate(761,30)"/>
<path d="M0 0 C3.81248426 -0.02887236 7.6249407 -0.04675492 11.4375 -0.0625 C12.52611328 -0.07087891 13.61472656 -0.07925781 14.73632812 -0.08789062 C15.77080078 -0.09111328 16.80527344 -0.09433594 17.87109375 -0.09765625 C18.82943115 -0.10289307 19.78776855 -0.10812988 20.77514648 -0.11352539 C23 0 23 0 24 1 C24.10792335 2.96217442 24.14628347 4.92820362 24.15771484 6.89331055 C24.16797699 8.15519699 24.17823914 9.41708344 24.18881226 10.71720886 C24.19225018 11.39623953 24.1956881 12.0752702 24.19923019 12.77487755 C24.21100011 14.89801307 24.23045049 17.0209434 24.25234985 19.14399719 C24.31401017 25.18210976 24.36790975 31.22020521 24.40136719 37.25854492 C24.42236944 40.94923153 24.45772422 44.63955065 24.50212479 48.33002663 C24.5162498 49.7345222 24.52499931 51.13908286 24.52817917 52.54364586 C24.53311375 54.51574953 24.55792711 56.48777271 24.58349609 58.4597168 C24.59158295 59.58033005 24.5996698 60.7009433 24.60800171 61.85551453 C25.13678122 66.09721541 26.78174534 69.29444347 29.25 72.75 C34.51615811 76.5115415 40.82561642 76.25201566 47 76 C45.375 78.0625 45.375 78.0625 43 80 C39.75 79.75 39.75 79.75 37 79 C37 78.34 37 77.68 37 77 C33.7 76.67 30.4 76.34 27 76 C27.495 74.515 27.495 74.515 28 73 C26.68 73 25.36 73 24 73 C22.47947353 66.48723463 21.76406745 60.48729118 21.9375 53.8125 C22.03138119 47.20829558 21.98909267 40.62432671 21.75 34.0234375 C21.72523087 33.33555649 21.70046173 32.64767548 21.67494202 31.93894958 C21.57316188 29.17709756 21.46827863 26.41546875 21.35153198 23.65420532 C21.26943449 21.71109255 21.19516118 19.76765418 21.12109375 17.82421875 C21.0739624 16.70104248 21.02683105 15.57786621 20.97827148 14.4206543 C21.00254948 10.59864248 21.52592821 6.79257428 22 3 C15.4 3 8.8 3 2 3 C1.97744477 10.67536977 1.95908247 18.35072729 1.94818783 26.02612209 C1.94296005 29.58977422 1.93586431 33.15340257 1.92456055 36.71704102 C1.91165824 40.81006097 1.90677094 44.9030558 1.90234375 48.99609375 C1.89718246 50.28148544 1.89202118 51.56687714 1.88670349 52.89122009 C1.88662796 54.07236893 1.88655243 55.25351776 1.88647461 56.47045898 C1.884254 57.51636703 1.88203339 58.56227509 1.87974548 59.63987732 C1.73349015 61.95689295 1.73349015 61.95689295 3 63 C3.23481693 65.18292774 3.41363323 67.37203174 3.5625 69.5625 C3.64628906 70.76003906 3.73007812 71.95757812 3.81640625 73.19140625 C3.87699219 74.11824219 3.93757812 75.04507813 4 76 C4.66 76 5.32 76 6 76 C6.433125 77.0725 6.86625 78.145 7.3125 79.25 C8.55321513 82.16272646 9.95070379 84.56036166 12 87 C11.505 87.99 11.505 87.99 11 89 C-0.15910285 77.3336652 -0.15732326 64.61157002 -0.09765625 49.21875 C-0.09578803 47.79528859 -0.09436603 46.37182654 -0.09336853 44.94836426 C-0.08957518 41.22646263 -0.07977257 37.50460087 -0.06866455 33.78271484 C-0.05838152 29.97494038 -0.05385623 26.16715939 -0.04882812 22.359375 C-0.03814702 14.90623195 -0.02110946 7.45312159 0 0 Z " fill="#132A88" transform="translate(798,70)"/>
<path d="M0 0 C0 30.69 0 61.38 0 93 C-7.59 93 -15.18 93 -23 93 C-23 90.36 -23 87.72 -23 85 C-22.67 85 -22.34 85 -22 85 C-22 87.31 -22 89.62 -22 92 C-15.07 92 -8.14 92 -1 92 C-1 61.97 -1 31.94 -1 1 C-11.395 1.495 -11.395 1.495 -22 2 C-22.07943454 13.27970503 -22.03473714 24.53338628 -21.7421875 35.80859375 C-21.71791183 36.75160339 -21.69363617 37.69461304 -21.66862488 38.66619873 C-21.54333646 43.46182102 -21.40983655 48.25709097 -21.26782227 53.05224609 C-21.21880086 54.84342142 -21.16988666 56.63459968 -21.12109375 58.42578125 C-21.0805336 59.67904457 -21.0805336 59.67904457 -21.03915405 60.95762634 C-20.88684416 66.77368832 -20.88684416 66.77368832 -22 69 C-22.598125 69.28875 -23.19625 69.5775 -23.8125 69.875 C-26.14041441 70.92467127 -26.14041441 70.92467127 -28 73.0625 C-30.07974178 75.07724985 -31.12915685 75.80861046 -34 76 C-34.66 75.34 -35.32 74.68 -36 74 C-35.37351562 73.67386719 -34.74703125 73.34773438 -34.1015625 73.01171875 C-33.28429687 72.57472656 -32.46703125 72.13773437 -31.625 71.6875 C-30.40683594 71.04361328 -30.40683594 71.04361328 -29.1640625 70.38671875 C-26.73165957 69.03221276 -26.73165957 69.03221276 -25 66 C-24.67007391 63.02749123 -24.67007391 63.02749123 -24.68115234 59.60083008 C-24.67110672 58.95665634 -24.6610611 58.3124826 -24.65071106 57.64878845 C-24.61985295 55.52237835 -24.60283707 53.3960943 -24.5859375 51.26953125 C-24.56722791 49.79407159 -24.54765466 48.31862265 -24.5272522 46.84318542 C-24.47590264 42.96182575 -24.43629219 39.08043137 -24.39910889 35.19891357 C-24.35908684 31.23733923 -24.30798632 27.2759096 -24.2578125 23.31445312 C-24.16101982 15.54306799 -24.0766259 7.77161291 -24 0 C-20.3754207 -0.19632025 -16.75032733 -0.38055978 -13.125 -0.5625 C-12.09246094 -0.61857422 -11.05992187 -0.67464844 -9.99609375 -0.73242188 C-9.00996094 -0.78076172 -8.02382813 -0.82910156 -7.0078125 -0.87890625 C-6.09660645 -0.9260376 -5.18540039 -0.97316895 -4.24658203 -1.02172852 C-2 -1 -2 -1 0 0 Z " fill="#1C2D71" transform="translate(881,71)"/>
<path d="M0 0 C7.59 0 15.18 0 23 0 C23.33 16.17 23.66 32.34 24 49 C25.32 47.68 26.64 46.36 28 45 C28.66 45 29.32 45 30 45 C30 47 30 47 27.625 49.5625 C25 52 25 52 23 53 C22.34 52.67 21.68 52.34 21 52 C21 35.17 21 18.34 21 1 C14.4 1 7.8 1 1 1 C1.0721875 2.43085937 1.144375 3.86171875 1.21875 5.3359375 C2.1989197 25.88810778 2.73626741 46.47483879 1 67 C0.67 67 0.34 67 0 67 C-0.78016615 55.86441662 -1.16033512 44.78628591 -1.13037109 33.62353516 C-1.12497113 31.23724108 -1.13038131 28.8511325 -1.13671875 26.46484375 C-1.1401545 17.58000283 -0.81311947 8.85396754 0 0 Z " fill="#1A307F" transform="translate(506,30)"/>
<path d="M0 0 C7.9216838 5.74710393 11.33385214 12.7902572 13.3125 22.3125 C16.18563213 43.72546586 13.64377334 66.45658513 13 88 C7.06 88 1.12 88 -5 88 C-5 87.67 -5 87.34 -5 87 C0.28 87 5.56 87 11 87 C10.99476318 85.23889893 10.98952637 83.47779785 10.98413086 81.66333008 C10.96798695 75.83593387 10.95650663 70.00853844 10.94818783 64.18112659 C10.94297567 60.64897726 10.93590836 57.11685218 10.92456055 53.5847168 C10.91158805 49.52131928 10.906758 45.45794714 10.90234375 41.39453125 C10.89718246 40.1297847 10.89202118 38.86503815 10.88670349 37.56196594 C10.88662796 36.38111923 10.88655243 35.20027252 10.88647461 33.98364258 C10.884254 32.94661697 10.88203339 31.90959137 10.87974548 30.84114075 C10.99490007 28.12049128 11.38597624 25.64843958 12 23 C11.34 23 10.68 23 10 23 C9.938125 21.96875 9.87625 20.9375 9.8125 19.875 C8.80607052 15.07510553 7.20715447 13.60804878 4 10 C3.375 7.875 3.375 7.875 3 6 C2.01268258 4.65724831 1.01405257 3.32267727 0 2 C0 1.34 0 0.68 0 0 Z " fill="#132D85" transform="translate(575,75)"/>
<path d="M0 0 C3.03700421 2.52505207 3.93712468 5.09454378 5.125 8.8125 C5.45757813 9.82957031 5.79015625 10.84664062 6.1328125 11.89453125 C7.77865296 17.78841938 8.13386213 23.30372977 8.0625 29.375 C8.05798828 30.11105469 8.05347656 30.84710938 8.04882812 31.60546875 C8.03715142 33.40368158 8.01922011 35.20185197 8 37 C0.08123253 37.15371916 -7.83761071 37.30190064 -15.75661278 37.4429636 C-19.43350279 37.50863598 -23.11033661 37.57623368 -26.78710938 37.64819336 C-30.33371585 37.71753528 -33.8803807 37.78186953 -37.4271431 37.84269524 C-38.78199196 37.86681786 -40.13680964 37.89276147 -41.49158859 37.92053413 C-43.38541443 37.95904959 -45.27937886 37.99055898 -47.17333984 38.02172852 C-48.25255707 38.04171402 -49.33177429 38.06169952 -50.44369507 38.08229065 C-53 38 -53 38 -55 37 C-55 36.34 -55 35.68 -55 35 C-54.34 35 -53.68 35 -53 35 C-52.67 34.34 -52.34 33.68 -52 33 C-51.67 33.33 -51.34 33.66 -51 34 C-49.28681054 34.09881593 -47.56955197 34.12798969 -45.85351562 34.12939453 C-44.75567749 34.13254669 -43.65783936 34.13569885 -42.5267334 34.13894653 C-41.33197388 34.1369223 -40.13721436 34.13489807 -38.90625 34.1328125 C-37.08075623 34.13424759 -37.08075623 34.13424759 -35.21838379 34.13571167 C-32.63924101 34.13639372 -30.06009653 34.13453772 -27.48095703 34.13037109 C-23.51721364 34.12502322 -19.55358358 34.13031529 -15.58984375 34.13671875 C-13.09114558 34.13605797 -10.59244748 34.13477682 -8.09375 34.1328125 C-6.30161072 34.13584885 -6.30161072 34.13584885 -4.4732666 34.13894653 C-3.37542847 34.13579437 -2.27759033 34.13264221 -1.14648438 34.12939453 C-0.1746521 34.12859894 0.79718018 34.12780334 1.79846191 34.12698364 C3.97542617 34.24631235 3.97542617 34.24631235 5 33 C5.09854655 31.35659133 5.12972411 29.7088539 5.125 28.0625 C5.12757813 27.16660156 5.13015625 26.27070312 5.1328125 25.34765625 C5.15421413 22.97844445 5.15421413 22.97844445 4 21 C3.8462808 19.62791385 3.72575528 18.25198888 3.625 16.875 C3.29916018 13.55784376 2.67418162 10.78210706 1.4375 7.6875 C0 4 0 4 0 0 Z " fill="#0F288E" transform="translate(1008,87)"/>
<path d="M0 0 C5.28 0 10.56 0 16 0 C16 0.33 16 0.66 16 1 C11.38 1 6.76 1 2 1 C2 16.51 2 32.02 2 48 C-5 49 -5 49 -8 47 C-8.309375 46.32453125 -8.61875 45.6490625 -8.9375 44.953125 C-9.81923655 42.87505935 -9.81923655 42.87505935 -11.75 42.171875 C-17.52608225 41.08885958 -23.2607407 40.74295924 -29.125 40.625 C-29.87652344 40.59889648 -30.62804687 40.57279297 -31.40234375 40.54589844 C-36.5165346 40.53022447 -39.886435 41.58602168 -44.26904297 44.23583984 C-46 45 -46 45 -49 44 C-47.44148245 43.17988688 -45.87798284 42.36923787 -44.3125 41.5625 C-43.44238281 41.11003906 -42.57226562 40.65757813 -41.67578125 40.19140625 C-33.63877736 36.61288627 -22.39606195 36.69820005 -13.875 38.75390625 C-9.0248268 40.63926321 -5.41563499 43.05624334 -1 46 C-0.67 30.82 -0.34 15.64 0 0 Z " fill="#183295" transform="translate(762,31)"/>
<path d="M0 0 C4.17493146 0.17281851 6.47938587 3.01218603 9.3125 5.8125 C10.66794922 7.12154297 10.66794922 7.12154297 12.05078125 8.45703125 C14 11 14 11 13.9765625 13.15234375 C12.2817747 16.35888226 9.91249698 17.8602063 7 20 C6.34 20 5.68 20 5 20 C5.144375 19.30132812 5.28875 18.60265625 5.4375 17.8828125 C5.7159375 16.51769531 5.7159375 16.51769531 6 15.125 C6.2784375 13.76761719 6.2784375 13.76761719 6.5625 12.3828125 C7.06019595 10.07592097 7.06019595 10.07592097 7 8 C6.01 8.33 5.02 8.66 4 9 C1.8125 8.0625 1.8125 8.0625 0 7 C0 6.34 0 5.68 0 5 C-0.62648438 5.3609375 -1.25296875 5.721875 -1.8984375 6.09375 C-2.71570313 6.5578125 -3.53296875 7.021875 -4.375 7.5 C-5.18710937 7.9640625 -5.99921875 8.428125 -6.8359375 8.90625 C-9 10 -9 10 -11 10 C-11 10.66 -11 11.32 -11 12 C-16.94 12 -22.88 12 -29 12 C-29 11.01 -29 10.02 -29 9 C-28.32195313 9.03480469 -27.64390625 9.06960937 -26.9453125 9.10546875 C-17.4959322 9.38031222 -9.56218333 7.86069208 -2 2 C-1.34 1.34 -0.68 0.68 0 0 Z " fill="#1A3493" transform="translate(998,138)"/>
<path d="M0 0 C0.721875 0.7425 1.44375 1.485 2.1875 2.25 C6.04687136 6.02360755 10.41673041 10 16 10 C16 10.66 16 11.32 16 12 C24.6612586 13.25981943 33.27001243 13.09020653 42 13 C39.21066566 15.78933434 36.43432082 15.49105086 32.6875 15.6875 C31.37136719 15.77386719 30.05523437 15.86023438 28.69921875 15.94921875 C25.51614311 15.99291461 23.05850499 15.76334547 20 15 C19.16210938 14.85949219 18.32421875 14.71898437 17.4609375 14.57421875 C10.58138444 12.9689897 3.73280592 8.18934668 -1 3 C-1 2.34 -1 1.68 -1 1 C-2.98 1.66 -4.96 2.32 -7 3 C-7 3.66 -7 4.32 -7 5 C-7.969375 5.45375 -8.93875 5.9075 -9.9375 6.375 C-13.07079582 7.65786221 -13.07079582 7.65786221 -14 10 C-13.01 10.33 -12.02 10.66 -11 11 C-11.66 11 -12.32 11 -13 11 C-12.50849617 13.65412069 -11.81816071 15.2937404 -10.375 17.625 C-9.92125 18.40875 -9.4675 19.1925 -9 20 C-9.33 20.66 -9.66 21.32 -10 22 C-11.29243468 20.8758824 -12.58392075 19.75067408 -13.875 18.625 C-14.59429687 17.99851563 -15.31359375 17.37203125 -16.0546875 16.7265625 C-17.4076598 15.52573166 -18.7208345 14.2791655 -20 13 C-19.79634524 10.45114333 -19.3726148 9.33698936 -17.46533203 7.61206055 C-16.81935059 7.20769775 -16.17336914 6.80333496 -15.5078125 6.38671875 C-14.80269531 5.94392578 -14.09757812 5.50113281 -13.37109375 5.04492188 C-12.62988281 4.59697266 -11.88867188 4.14902344 -11.125 3.6875 C-10.39152344 3.22021484 -9.65804688 2.75292969 -8.90234375 2.27148438 C-3.38714945 -1.12904982 -3.38714945 -1.12904982 0 0 Z " fill="#182974" transform="translate(322,132)"/>
<path d="M0 0 C0.99 0.495 0.99 0.495 2 1 C0.60483088 5.18550737 -2.39932602 6.75591571 -5.875 9.1875 C-6.83212891 9.88262695 -6.83212891 9.88262695 -7.80859375 10.59179688 C-12.61722202 14 -12.61722202 14 -16 14 C-18.015625 12.79296875 -18.015625 12.79296875 -20.25 11.1875 C-29.21010214 5.10896671 -37.80973819 3.23028377 -48.66015625 4.25 C-54.530138 5.37768088 -59.72879629 7.72879629 -64 12 C-63.52189064 7.69701575 -61.27927918 5.6513321 -58 3 C-48.47369331 -0.70467482 -36.62158523 -0.14174211 -27 3 C-27 3.66 -27 4.32 -27 5 C-26.46375 5.103125 -25.9275 5.20625 -25.375 5.3125 C-22.34987072 6.18819532 -19.7495511 7.47247161 -17 9 C-16.505 9.99 -16.505 9.99 -16 11 C-14.02 10.67 -12.04 10.34 -10 10 C-10 9.34 -10 8.68 -10 8 C-8.69417053 6.96434215 -7.35622245 5.96873032 -6 5 C-4.98198643 4.01834406 -3.9753197 3.02408568 -3 2 C-2.01 2.33 -1.02 2.66 0 3 C0 2.01 0 1.02 0 0 Z " fill="#182C81" transform="translate(397,46)"/>
<path d="M0 0 C0.33 0 0.66 0 1 0 C1 4.95 1 9.9 1 15 C-29.69 15.495 -29.69 15.495 -61 16 C-59.55693592 22.51344075 -59.55693592 22.51344075 -58 29 C-58.66 28.67 -59.32 28.34 -60 28 C-60 27.34 -60 26.68 -60 26 C-60.66 26 -61.32 26 -62 26 C-62 21.71 -62 17.42 -62 13 C-54.48965241 12.84675597 -46.97924196 12.69796805 -39.46865368 12.5570364 C-35.98123739 12.49141868 -32.49388185 12.42384417 -29.0065918 12.35180664 C-24.99798175 12.26908572 -20.98925365 12.19486001 -16.98046875 12.12109375 C-15.72727341 12.09405869 -14.47407806 12.06702362 -13.1829071 12.03916931 C-11.44144157 12.00902489 -11.44144157 12.00902489 -9.66479492 11.97827148 C-8.64109299 11.95828598 -7.61739105 11.93830048 -6.56266785 11.91770935 C-4 12 -4 12 -1 13 C-0.505 6.565 -0.505 6.565 0 0 Z " fill="#162C82" transform="translate(685,109)"/>
<path d="M0 0 C1.32 0 2.64 0 4 0 C4 0.66 4 1.32 4 2 C5.794375 1.87625 5.794375 1.87625 7.625 1.75 C12.155657 1.77401408 14.55395406 2.94555019 18 6 C19.73315011 8.30388534 20.78769424 10.33292732 22 13 C21.67 13.99 21.34 14.98 21 16 C20.72027344 15.46890625 20.44054687 14.9378125 20.15234375 14.390625 C17.24626165 9.26994015 14.61389327 6.03823926 9 4 C1.99278254 2.1004531 -3.90363563 3.39227235 -10.25 6.6875 C-15.8014794 11.35578949 -17.73430689 17.01922765 -19 24 C-19.23455611 26.88300334 -19.23689141 29.73430258 -19.1875 32.625 C-19.18685547 33.34945312 -19.18621094 34.07390625 -19.18554688 34.8203125 C-19.15163286 38.98043216 -18.80771142 42.90328767 -18 47 C-18.99 47.495 -18.99 47.495 -20 48 C-21.7604039 42.69084537 -22.30985334 38.07633638 -22.25 32.5 C-22.25773438 31.77941406 -22.26546875 31.05882813 -22.2734375 30.31640625 C-22.24901108 23.56250119 -20.43419533 17.7898753 -17.875 11.5625 C-17.52179687 10.69753906 -17.16859375 9.83257812 -16.8046875 8.94140625 C-16.53914062 8.30074219 -16.27359375 7.66007812 -16 7 C-15.01 7 -14.02 7 -13 7 C-12.67 6.01 -12.34 5.02 -12 4 C-8.63943196 1.67345289 -4.97260211 1.5246833 -1 1 C-0.67 0.67 -0.34 0.34 0 0 Z " fill="#172B7D" transform="translate(739,85)"/>
<path d="M0 0 C7.59 0 15.18 0 23 0 C23 0.99 23 1.98 23 3 C15.74 2.67 8.48 2.34 1 2 C1.10791807 9.80584252 1.21995775 17.61159926 1.33933926 25.41727352 C1.39460097 29.0414158 1.448026 32.6655661 1.49731445 36.28979492 C1.54491032 39.78467099 1.5972511 43.2794462 1.65294075 46.77420235 C1.68336413 48.76233823 1.70881982 50.75054809 1.73423767 52.73875427 C1.75418289 53.93992386 1.77412811 55.14109344 1.79467773 56.37866211 C1.81022202 57.44233505 1.8257663 58.506008 1.84178162 59.60191345 C1.73228552 61.95195928 1.73228552 61.95195928 3 63 C3.23481693 65.18292774 3.41363323 67.37203174 3.5625 69.5625 C3.64628906 70.76003906 3.73007812 71.95757812 3.81640625 73.19140625 C3.87699219 74.11824219 3.93757812 75.04507813 4 76 C4.66 76 5.32 76 6 76 C6.433125 77.0725 6.86625 78.145 7.3125 79.25 C8.55321513 82.16272646 9.95070379 84.56036166 12 87 C11.505 87.99 11.505 87.99 11 89 C-0.15910285 77.3336652 -0.15732326 64.61157002 -0.09765625 49.21875 C-0.09578803 47.79528859 -0.09436603 46.37182654 -0.09336853 44.94836426 C-0.08957518 41.22646263 -0.07977257 37.50460087 -0.06866455 33.78271484 C-0.05838152 29.97494038 -0.05385623 26.16715939 -0.04882812 22.359375 C-0.03814702 14.90622984 -0.0205765 7.45312562 0 0 Z " fill="#182871" transform="translate(798,70)"/>
<path d="M0 0 C0 0.99 0 1.98 0 3 C-3.33333333 6 -3.33333333 6 -6 6 C-6 6.66 -6 7.32 -6 8 C-7.875 10.125 -7.875 10.125 -10 12 C-10.66 12 -11.32 12 -12 12 C-12.268125 13.0725 -12.53625 14.145 -12.8125 15.25 C-14 19 -14 19 -15.5234375 20.88671875 C-18.84509818 25.64073576 -18.303604 32.571168 -17.609375 38.125 C-17.26090018 39.99680759 -16.88481806 41.86383378 -16.47265625 43.72265625 C-16 46 -16 46 -16 49 C-16.66 49 -17.32 49 -18 49 C-21.29947466 36.23084666 -22.20286765 25.96116116 -16 14 C-11.94334066 7.85354645 -6.00286919 4.14208487 0 0 Z " fill="#17297D" transform="translate(328,34)"/>
<path d="M0 0 C6.31391253 2.65551579 10.63907903 8.66091708 14 14.4375 C15 17 15 17 15 19 C13.73160474 19.50615298 12.46016898 20.00469099 11.1875 20.5 C10.47980469 20.7784375 9.77210938 21.056875 9.04296875 21.34375 C7 22 7 22 4 22 C4 21.34 4 20.68 4 20 C4.66 20 5.32 20 6 20 C6 18.68 6 17.36 6 16 C5.34 16 4.68 16 4 16 C4 12 4 12 5.5 10.25 C5.995 9.8375 6.49 9.425 7 9 C6.38125 8.7525 5.7625 8.505 5.125 8.25 C1.74963396 6.26449057 1.2020372 3.60611161 0 0 Z " fill="#183691" transform="translate(480,76)"/>
<path d="M0 0 C2.52775351 3.79163027 2.22443035 6.80874031 2.125 11.1875 C2.11597656 11.93708984 2.10695313 12.68667969 2.09765625 13.45898438 C2.07412578 15.30612654 2.03825561 17.15310412 2 19 C2.66 19.33 3.32 19.66 4 20 C4.34375 22.00390625 4.34375 22.00390625 4.5 24.5625 C4.87082744 29.24841039 5.74326085 33.47573904 7 38 C7.99 38 8.98 38 10 38 C10.103125 38.5775 10.20625 39.155 10.3125 39.75 C11.09792798 42.32049158 12.30504197 43.93657284 14 46 C13.67 46.66 13.34 47.32 13 48 C3.35224013 38.05413519 -1.05648229 26.1066543 -1.25 12.125 C-1.09707868 8.04964689 -0.58669983 4.03356134 0 0 Z " fill="#15287C" transform="translate(930,106)"/>
<path d="M0 0 C3.58014366 1.652374 6.73531182 3.79988405 10 6 C10.66 6.33 11.32 6.66 12 7 C12.61875 7.495 13.2375 7.99 13.875 8.5 C15.98532067 9.98963812 17.48528282 10.55094336 20 11 C20 11.66 20 12.32 20 13 C20.64324219 13.17015625 21.28648437 13.3403125 21.94921875 13.515625 C29.3561249 15.50207059 36.68228539 17.70812436 44 20 C44 20.66 44 21.32 44 22 C45.60875 22.185625 45.60875 22.185625 47.25 22.375 C50.37863615 22.89643936 52.33480424 23.40088254 55 25 C55 25.66 55 26.32 55 27 C53.75863281 26.58363281 52.51726562 26.16726562 51.23828125 25.73828125 C47.59753311 24.52327498 43.94823881 23.33851451 40.29296875 22.16796875 C11.22181981 12.79284162 11.22181981 12.79284162 0 1 C0 0.67 0 0.34 0 0 Z " fill="#1A2B79" transform="translate(313,87)"/>
<path d="M0 0 C0.33 0.99 0.66 1.98 1 3 C-0.33225709 4.66752709 -1.665812 6.33401743 -3 8 C-4.05526916 10.55141897 -4.92247676 12.92916095 -5.6875 15.5625 C-5.90100098 16.28977295 -6.11450195 17.0170459 -6.33447266 17.76635742 C-8.93480227 27.42224806 -10.56317502 39.2111721 -8 49 C-7.96213099 50.66623639 -7.95372155 52.33397597 -8 54 C-11.45482509 50.54517491 -11.12711809 46.22987189 -11.1328125 41.54296875 C-11.13410156 40.51236328 -11.13539063 39.48175781 -11.13671875 38.41992188 C-11.13285156 37.35322266 -11.12898437 36.28652344 -11.125 35.1875 C-11.12886719 34.13240234 -11.13273438 33.07730469 -11.13671875 31.99023438 C-11.12954245 26.23125126 -10.86553838 20.69469298 -10 15 C-9.34 15 -8.68 15 -8 15 C-7.90847656 14.28457031 -7.81695313 13.56914063 -7.72265625 12.83203125 C-6.87165786 9.49703757 -5.46671273 7.45460827 -3.4375 4.6875 C-2.79683594 3.80449219 -2.15617188 2.92148438 -1.49609375 2.01171875 C-1.00238281 1.34785156 -0.50867188 0.68398437 0 0 Z " fill="#122685" transform="translate(611,83)"/>
<path d="M0 0 C0.33 0 0.66 0 1 0 C1 24.75 1 49.5 1 75 C-5.27 75 -11.54 75 -18 75 C-17.01 74.01 -16.02 73.02 -15 72 C-14.67 72.33 -14.34 72.66 -14 73 C-9.38 73 -4.76 73 0 73 C0 48.91 0 24.82 0 0 Z " fill="#143099" transform="translate(782,88)"/>
<path d="M0 0 C2.00450656 1.56201063 3.39489011 3.00744979 5 5 C3.9275 4.690625 2.855 4.38125 1.75 4.0625 C-0.82866222 3.33187904 -3.39512102 2.62517096 -6 2 C-5.67 1.34 -5.34 0.68 -5 0 C-11.04849253 -0.89607297 -17.02012957 -1.13773542 -23.125 -1.1875 C-24.2704126 -1.20683594 -24.2704126 -1.20683594 -25.43896484 -1.2265625 C-29.13078049 -1.23295387 -32.33009406 -1.02961435 -35.8671875 0.07421875 C-39 1 -39 1 -42 0 C-29.53855356 -5.619868 -12.23615999 -7.07933101 0 0 Z " fill="#182F82" transform="translate(665,73)"/>
<path d="M0 0 C4.20848335 0.60121191 7.97584978 1.65861659 12 3 C16.25873252 3.80717137 20.4932174 4.27945739 24.8125 4.625 C25.95332031 4.72039062 27.09414063 4.81578125 28.26953125 4.9140625 C29.62111328 4.95660156 29.62111328 4.95660156 31 5 C31.33 4.67 31.66 4.34 32 4 C33.51928038 3.92820036 35.04167482 3.91607993 36.5625 3.9375 C37.38878906 3.94652344 38.21507812 3.95554688 39.06640625 3.96484375 C39.70449219 3.97644531 40.34257812 3.98804688 41 4 C41 3.34 41 2.68 41 2 C43.97 1.34 46.94 0.68 50 0 C41.31720805 7.59744296 29.10545725 7.65715173 18.19042969 7.19238281 C11.78884674 6.63013946 4.29473661 5.09817373 0 0 Z " fill="#182C82" transform="translate(430,159)"/>
<path d="M0 0 C4.83628305 0.99043705 9.47618873 1.95698846 14 4 C12.6686921 12.80830458 6.78263434 18.70954522 0 24 C-0.33 23.01 -0.66 22.02 -1 21 C0.65 20.34 2.3 19.68 4 19 C4 18.34 4 17.68 4 17 C4.66 17 5.32 17 6 17 C6.33 15.35 6.66 13.7 7 12 C7.99 12 8.98 12 10 12 C10 10.68 10 9.36 10 8 C8.02 8 6.04 8 4 8 C3.896875 7.4225 3.79375 6.845 3.6875 6.25 C2.90207202 3.67950842 1.69495803 2.06342716 0 0 Z " fill="#1D359B" transform="translate(481,135)"/>
<path d="M0 0 C1.94331271 1.56618581 3.39256369 3.07107643 5 5 C2.0280615 3.87548273 -0.33440687 2.77706209 -3 1 C-9.15077341 -1.10660738 -15.68584453 -1.2574803 -22.125 -1.375 C-22.876604 -1.40094238 -23.62820801 -1.42688477 -24.40258789 -1.45361328 C-29.51670614 -1.47040842 -32.88665228 -0.41384696 -37.26904297 2.23583984 C-39 3 -39 3 -42 2 C-40.44148245 1.17988688 -38.87798284 0.36923787 -37.3125 -0.4375 C-36.44238281 -0.88996094 -35.57226562 -1.34242187 -34.67578125 -1.80859375 C-24.6983393 -6.2511044 -9.32275344 -5.81279249 0 0 Z " fill="#1C2F82" transform="translate(755,73)"/>
<path d="M0 0 C0 0.99 0 1.98 0 3 C-0.928125 2.67 -1.85625 2.34 -2.8125 2 C-9.30816825 0.18542061 -16.22220797 -0.17663644 -22.4375 2.6875 C-27.51680477 5.63744387 -30.1099841 9.48745363 -32 15 C-33.4606285 12.35261084 -34 11.10551666 -34 8 C-33.34 8 -32.68 8 -32 8 C-31.67 7.34 -31.34 6.68 -31 6 C-21.82226541 -4.18504692 -12.22074447 -4.07358149 0 0 Z " fill="#172C88" transform="translate(468,88)"/>
<path d="M0 0 C2 3.75 2 3.75 2 6 C1.01 6.495 1.01 6.495 0 7 C0 10.63 0 14.26 0 18 C-4.29 17.67 -8.58 17.34 -13 17 C-13 16.34 -13 15.68 -13 15 C-13.99 14.67 -14.98 14.34 -16 14 C-15.41992188 13.86464844 -14.83984375 13.72929687 -14.2421875 13.58984375 C-8.11212312 11.90053558 -4.32249738 9.51771885 -1 4 C-0.33165836 1.86720413 -0.33165836 1.86720413 0 0 Z " fill="#1A3498" transform="translate(760,133)"/>
<path d="M0 0 C0.74507812 0.00451172 1.49015625 0.00902344 2.2578125 0.01367188 C4.0885764 0.02540754 5.91929873 0.0433415 7.75 0.0625 C7.75 0.3925 7.75 0.7225 7.75 1.0625 C1.48 1.3925 -4.79 1.7225 -11.25 2.0625 C-11.25 2.7225 -11.25 3.3825 -11.25 4.0625 C-11.91 4.0625 -12.57 4.0625 -13.25 4.0625 C-13.25 4.7225 -13.25 5.3825 -13.25 6.0625 C-12.59 6.3925 -11.93 6.7225 -11.25 7.0625 C-12.24 8.0525 -13.23 9.0425 -14.25 10.0625 C-14.91 8.7425 -15.57 7.4225 -16.25 6.0625 C-16.683125 7.0215625 -16.683125 7.0215625 -17.125 8 C-18.25 10.0625 -18.25 10.0625 -20.25 11.0625 C-19.92 12.7125 -19.59 14.3625 -19.25 16.0625 C-21.23 17.0525 -21.23 17.0525 -23.25 18.0625 C-24.57 16.7425 -25.89 15.4225 -27.25 14.0625 C-22.625 9.1875 -22.625 9.1875 -19.25 8.0625 C-19.25 7.0725 -19.25 6.0825 -19.25 5.0625 C-12.463162 1.01650042 -7.98475863 -0.09169776 0 0 Z " fill="#1A328F" transform="translate(555.25,68.9375)"/>
<path d="M0 0 C0.33 0 0.66 0 1 0 C1 5.28 1 10.56 1 16 C-6.91878173 16.15312561 -14.83760824 16.3019006 -22.75661278 16.4429636 C-26.43350279 16.50863598 -30.11033661 16.57623368 -33.78710938 16.64819336 C-37.33371585 16.71753528 -40.8803807 16.78186953 -44.4271431 16.84269524 C-45.78199196 16.86681786 -47.13680964 16.89276147 -48.49158859 16.92053413 C-50.38541443 16.95904959 -52.27937886 16.99055898 -54.17333984 17.02172852 C-55.25255707 17.04171402 -56.33177429 17.06169952 -57.44369507 17.08229065 C-60 17 -60 17 -62 16 C-62 15.34 -62 14.68 -62 14 C-61.34 14 -60.68 14 -60 14 C-59.67 13.34 -59.34 12.68 -59 12 C-58.18024689 12.48513565 -58.18024689 12.48513565 -57.34393311 12.98007202 C-54.56892998 14.18757377 -52.51942831 14.27725557 -49.49707031 14.31884766 C-47.84581146 14.34865219 -47.84581146 14.34865219 -46.16119385 14.37905884 C-44.97878113 14.39061005 -43.79636841 14.40216125 -42.578125 14.4140625 C-41.36300232 14.43342865 -40.14787964 14.4527948 -38.89593506 14.4727478 C-35.01402816 14.53253806 -31.1320916 14.57892746 -27.25 14.625 C-24.61847663 14.66318022 -21.98696576 14.70223198 -19.35546875 14.7421875 C-12.90374725 14.83823943 -6.45196724 14.92227307 0 15 C0 10.05 0 5.1 0 0 Z " fill="#152876" transform="translate(1015,108)"/>
<path d="M0 0 C0.66 0 1.32 0 2 0 C2 3.3 2 6.6 2 10 C1.67 10 1.34 10 1 10 C0.505 7.03 0.505 7.03 0 4 C-0.47308594 4.39832031 -0.94617188 4.79664063 -1.43359375 5.20703125 C-11.19601808 13.02838875 -19.81491501 13.43346152 -32 13 C-29.04450209 11.02966806 -28.15347675 10.71466151 -24.8046875 10.4375 C-23.60779297 10.32535156 -23.60779297 10.32535156 -22.38671875 10.2109375 C-20.70448167 10.06966098 -19.02218926 9.92904194 -17.33984375 9.7890625 C-15.21960476 9.58975316 -13.10809893 9.30175571 -11 9 C-10.67 8.34 -10.34 7.68 -10 7 C-9.2575 6.731875 -8.515 6.46375 -7.75 6.1875 C-4.38720726 4.73538495 -2.53411346 2.60260301 0 0 Z " fill="#152780" transform="translate(761,153)"/>
<path d="M0 0 C-0.03480469 0.72445312 -0.06960938 1.44890625 -0.10546875 2.1953125 C-0.33341893 10.03282332 -0.33341893 10.03282332 3 17 C5.55139853 19.34325664 5.55139853 19.34325664 8 21 C3.47907032 22.45606519 0.48351204 21.27032841 -4 20 C-3.34 19.34 -2.68 18.68 -2 18 C-2.35299007 14.55834679 -3.04581692 12.93127462 -5 10 C-5.046875 7.7734375 -5.046875 7.7734375 -4.75 5.375 C-4.66234375 4.57835937 -4.5746875 3.78171875 -4.484375 2.9609375 C-4.24460937 1.99027344 -4.24460937 1.99027344 -4 1 C-2 0 -2 0 0 0 Z " fill="#172D89" transform="translate(333,58)"/>
<path d="M0 0 C7.40838728 -0.45357473 12.77758824 0.3021669 18.6875 5.25 C24.97608758 12.72832037 24.97608758 12.72832037 25.0234375 17.2265625 C24.78354477 19.16626661 24.40264381 21.0874419 24 23 C23.67 23 23.34 23 23 23 C22.82984375 22.19175781 22.6596875 21.38351563 22.484375 20.55078125 C20.85886904 12.42668056 20.85886904 12.42668056 16 6 C9.17020846 2.26294425 3.46435889 2.54353973 -4 4 C-4 3.34 -4 2.68 -4 2 C-2.68 2 -1.36 2 0 2 C0 1.34 0 0.68 0 0 Z " fill="#18297D" transform="translate(969,85)"/>
<path d="M0 0 C0.33 0 0.66 0 1 0 C3.11775908 7.75953624 3.27059192 15.0467261 3.1875 23.0625 C3.18105469 24.34278076 3.17460937 25.62306152 3.16796875 26.94213867 C3.09461252 35.99074416 2.79501808 44.9850629 2 54 C1.67 54 1.34 54 1 54 C0.12807139 41.7959485 -0.12653137 29.66990854 -0.0625 17.4375 C-0.05746548 15.73242322 -0.05290609 14.02734496 -0.04882812 12.32226562 C-0.03799884 8.21480622 -0.02084659 4.10742027 0 0 Z " fill="#0E1D59" transform="translate(505,43)"/>
<path d="M0 0 C-13.07777175 7.14558662 -23.4172998 8.32566824 -38 8 C-35.04911527 6.03274351 -34.17238998 5.71497153 -30.83203125 5.4375 C-30.02056641 5.36273438 -29.20910156 5.28796875 -28.37304688 5.2109375 C-27.52806641 5.14132813 -26.68308594 5.07171875 -25.8125 5 C-19.66801151 4.4819635 -13.95113691 3.64737354 -8 2 C-8 1.34 -8 0.68 -8 0 C-4.71303767 -0.79953138 -3.28976808 -1.09658936 0 0 Z " fill="#172B86" transform="translate(675,158)"/>
<path d="M0 0 C3.50202263 2.33468175 4.33823637 4.20168313 6 8 C6 8.66 6 9.32 6 10 C6.66 10.33 7.32 10.66 8 11 C8.87468822 12.06683285 9.72563134 13.15324905 10.5625 14.25 C15.63856449 20.2917548 22.82702527 23.10028681 30 26 C27.25509273 27.09142742 26.1091624 27.03727116 23.265625 26.06640625 C12.5256038 20.71030759 5.15734575 13.99843053 0 3 C0 2.01 0 1.02 0 0 Z " fill="#142576" transform="translate(698,138)"/>
<path d="M0 0 C0.33 0 0.66 0 1 0 C1.03758423 1.36934692 1.03758423 1.36934692 1.07592773 2.76635742 C1.17131607 6.16767631 1.27053402 9.56883939 1.37231445 12.9699707 C1.41550705 14.43932768 1.45719256 15.9087298 1.49731445 17.37817383 C1.55539882 19.49574355 1.61898098 21.61308937 1.68359375 23.73046875 C1.72025146 25.00301514 1.75690918 26.27556152 1.79467773 27.58666992 C1.90240948 30.92710433 1.90240948 30.92710433 2.64477539 33.8293457 C2.76199951 34.54566162 2.87922363 35.26197754 3 36 C2.34 36.66 1.68 37.32 1 38 C-0.84166377 30.97547218 -1.27670374 24.55678257 -1.1875 17.3125 C-1.18685547 16.30638672 -1.18621094 15.30027344 -1.18554688 14.26367188 C-1.15672076 9.40487015 -1.01663968 4.77413992 0 0 Z " fill="#142D79" transform="translate(696,100)"/>
<path d="M0 0 C3 0 3 0 5.25 2.0625 C6.16848048 3.03996547 7.08490333 4.01936591 8 5 C9.26687643 6.27477795 10.53780984 7.54553523 11.8125 8.8125 C12.875 9.875 13.9375 10.9375 15 12 C10.375 17.875 10.375 17.875 7 19 C7.185625 18.401875 7.37125 17.80375 7.5625 17.1875 C8.22093687 14.83591238 8.22093687 14.83591238 7 12 C7.66 11.67 8.32 11.34 9 11 C6.36 8.03 3.72 5.06 1 2 C-0.98 2.99 -0.98 2.99 -3 4 C-1.6875 2 -1.6875 2 0 0 Z " fill="#132B83" transform="translate(668,138)"/>
<path d="M0 0 C0.33 0 0.66 0 1 0 C1.16738578 5.94466225 1.32796884 11.88945397 1.48217773 17.83447266 C1.53563266 19.85796079 1.59096466 21.88140023 1.64819336 23.90478516 C1.73000696 26.80881243 1.80512562 29.71294644 1.87890625 32.6171875 C1.90594131 33.52556366 1.93297638 34.43393982 1.96083069 35.36984253 C1.98092697 36.21056305 2.00102325 37.05128357 2.02172852 37.91748047 C2.04171402 38.65916473 2.06169952 39.400849 2.08229065 40.16500854 C2 42 2 42 1 44 C0.401875 44.28875 -0.19625 44.5775 -0.8125 44.875 C-3.14041441 45.92467127 -3.14041441 45.92467127 -5 48.0625 C-7.07974178 50.07724985 -8.12915685 50.80861046 -11 51 C-11.66 50.34 -12.32 49.68 -13 49 C-12.38511719 48.66226563 -11.77023437 48.32453125 -11.13671875 47.9765625 C-10.32847656 47.53054687 -9.52023437 47.08453125 -8.6875 46.625 C-7.88699219 46.18414062 -7.08648438 45.74328125 -6.26171875 45.2890625 C-4.46472057 44.26486665 -2.72099292 43.14732862 -1 42 C-0.52640971 40.11185494 -0.52640971 40.11185494 -0.56762695 37.91748047 C-0.54783279 37.07675995 -0.52803864 36.23603943 -0.50764465 35.36984253 C-0.50125473 34.46146637 -0.49486481 33.55309021 -0.48828125 32.6171875 C-0.47033005 31.68778351 -0.45237885 30.75837952 -0.43388367 29.80081177 C-0.37960152 26.82558767 -0.3458278 23.85052557 -0.3125 20.875 C-0.27934271 18.86065444 -0.24485456 16.84633032 -0.20898438 14.83203125 C-0.12386485 9.88813744 -0.05713939 4.94429318 0 0 Z " fill="#1A3191" transform="translate(858,96)"/>
<path d="M0 0 C-3.18522534 2.12348356 -3.8959746 2.23690376 -7.52734375 2.16015625 C-8.40197266 2.14919922 -9.27660156 2.13824219 -10.17773438 2.12695312 C-11.08845703 2.10568359 -11.99917969 2.08441406 -12.9375 2.0625 C-14.73819874 2.02794501 -16.53898949 1.99783376 -18.33984375 1.97265625 C-19.13769287 1.95468994 -19.93554199 1.93672363 -20.75756836 1.91821289 C-22.98947587 1.99961616 -24.84828347 2.43480004 -27 3 C-28.99963028 3.03845443 -31.00051633 3.04544281 -33 3 C-33 3.66 -33 4.32 -33 5 C-33.99 5 -34.98 5 -36 5 C-36 4.34 -36 3.68 -36 3 C-24.04364668 -0.89561512 -12.45576458 -2.21435815 0 0 Z " fill="#163084" transform="translate(367,30)"/>
<path d="M0 0 C5.90184049 3.34969325 5.90184049 3.34969325 8 6 C8 6.99 8 7.98 8 9 C8.66 9 9.32 9 10 9 C11.51054417 15.79744878 10.62873799 20.95603055 7 27 C6.01 27.33 5.02 27.66 4 28 C4 28.66 4 29.32 4 30 C-0.43076923 32.09230769 -0.43076923 32.09230769 -3.3125 31.625 C-4.1478125 31.315625 -4.1478125 31.315625 -5 31 C-3.948125 30.62875 -2.89625 30.2575 -1.8125 29.875 C2.32960637 28.06020289 4.55878491 25.87722397 7 22 C8.51857748 17.20449218 8.46965463 13.27864097 6.375 8.6875 C4.4627388 5.33769979 2.23276535 3.1551769 -1 1 C-0.67 0.67 -0.34 0.34 0 0 Z " fill="#1A2E82" transform="translate(369,113)"/>
<path d="M0 0 C3.91385035 0.31310803 6.44635373 0.60729741 9.6875 2.90625 C13.68569789 5.43341282 17.2931013 6.30255654 21.875 7.25 C22.65875 7.42273438 23.4425 7.59546875 24.25 7.7734375 C26.1642128 8.19363055 28.08179684 8.59841627 30 9 C29.34 9.66 28.68 10.32 28 11 C18.13271358 10.83824121 7.73869428 7.19095543 0 1 C0 0.67 0 0.34 0 0 Z " fill="#182C7E" transform="translate(313,154)"/>
<path d="M0 0 C2.125 0.375 2.125 0.375 4 1 C3.34 1.66 2.68 2.32 2 3 C1.01 3 0.02 3 -1 3 C-1 3.66 -1 4.32 -1 5 C-2.6796875 6.2890625 -2.6796875 6.2890625 -4.875 7.625 C-5.59429688 8.07101563 -6.31359375 8.51703125 -7.0546875 8.9765625 C-9 10 -9 10 -11 10 C-11 10.66 -11 11.32 -11 12 C-16.94 12 -22.88 12 -29 12 C-29 11.01 -29 10.02 -29 9 C-28.32195313 9.03480469 -27.64390625 9.06960937 -26.9453125 9.10546875 C-17.4959322 9.38031222 -9.56218333 7.86069208 -2 2 C-1.34 1.34 -0.68 0.68 0 0 Z " fill="#192E86" transform="translate(998,138)"/>
<path d="M0 0 C-1 2 -1 2 -3.51171875 3.03515625 C-4.55972656 3.37417969 -5.60773438 3.71320313 -6.6875 4.0625 C-7.72261719 4.40410156 -8.75773437 4.74570313 -9.82421875 5.09765625 C-16.73464584 7.06113553 -23.24089889 7.1223344 -30.375 7.0625 C-31.39722656 7.05798828 -32.41945313 7.05347656 -33.47265625 7.04882812 C-35.98183194 7.037103 -38.4908849 7.02069176 -41 7 C-41 6.67 -41 6.34 -41 6 C-34.07 6 -27.14 6 -20 6 C-20 5.34 -20 4.68 -20 4 C-18.75283203 3.69255859 -18.75283203 3.69255859 -17.48046875 3.37890625 C-16.39378906 3.10949219 -15.30710937 2.84007812 -14.1875 2.5625 C-12.56908203 2.16224609 -12.56908203 2.16224609 -10.91796875 1.75390625 C-3.73846349 -0.10103955 -3.73846349 -0.10103955 0 0 Z " fill="#1A2E80" transform="translate(383,159)"/>
<path d="M0 0 C0.33 0 0.66 0 1 0 C1.52870314 11.22025549 0.59680679 20.56886685 -6.59765625 29.5390625 C-8 31 -8 31 -10 32 C-8.90821334 28.72464003 -7.85608712 26.84169583 -5.5 24.25 C-1.70438068 19.24871337 -1.87127846 12.80339163 -1.359375 6.765625 C-1 3 -1 3 0 0 Z " fill="#192E7C" transform="translate(401,121)"/>
<path d="M0 0 C1.5 1.3125 1.5 1.3125 3 3 C3 3.99 3 4.98 3 6 C2.34 6 1.68 6 1 6 C1 19.53 1 33.06 1 47 C0.67 47 0.34 47 0 47 C-1.70710974 10.45604714 -1.70710974 10.45604714 0 0 Z " fill="#163099" transform="translate(507,89)"/>
<path d="M0 0 C0.33 0 0.66 0 1 0 C1.07476562 0.67804688 1.14953125 1.35609375 1.2265625 2.0546875 C2.24978886 9.2975251 4.28694557 15.29752331 9 21 C11.88380814 22.92694825 14.87724507 24.49645133 18 26 C14.03780265 26.4831948 11.63072987 26.07595777 8.375 23.875 C3.01555286 19.66316075 0.26760471 14.68373393 -1 8 C-0.869778 5.25569188 -0.47657304 2.71646635 0 0 Z " fill="#182D80" transform="translate(433,121)"/>
<path d="M0 0 C0.33 0.66 0.66 1.32 1 2 C1.66 2 2.32 2 3 2 C6 7.75 6 7.75 6 10 C6.66 10 7.32 10 8 10 C8.515625 10.86625 9.03125 11.7325 9.5625 12.625 C11.95368623 16.49120916 15.33582759 18.40149655 19.171875 20.703125 C19.77515625 21.13109375 20.3784375 21.5590625 21 22 C21 22.66 21 23.32 21 24 C13.02788433 21.87642334 7.83389418 16.12776568 3.24609375 9.4453125 C0 3.80395299 0 3.80395299 0 0 Z " fill="#192A7C" transform="translate(603,137)"/>
<path d="M0 0 C0.99 0.495 0.99 0.495 2 1 C2.4140625 3.94140625 2.4140625 3.94140625 2.625 7.5625 C2.69976563 8.76003906 2.77453125 9.95757812 2.8515625 11.19140625 C2.90054688 12.11824219 2.94953125 13.04507813 3 14 C3.66 14 4.32 14 5 14 C5.433125 15.0725 5.86625 16.145 6.3125 17.25 C7.55321513 20.16272646 8.95070379 22.56036166 11 25 C10.67 25.66 10.34 26.32 10 27 C3.64961255 20.36095858 -0.22343644 13.76522011 -0.25 4.375 C-0.18713531 2.91564104 -0.11155758 1.45644618 0 0 Z " fill="#14297D" transform="translate(799,132)"/>
<path d="M0 0 C0 3.34246683 -0.49628267 4.07121337 -2.3125 6.75 C-6.03334198 12.49943662 -8.25432345 18.42014225 -10 25 C-10.66 25 -11.32 25 -12 25 C-11.43267738 14.78819279 -6.87761706 7.35745081 0 0 Z " fill="#172980" transform="translate(943,81)"/>
<path d="M0 0 C0.58136719 0.21785156 1.16273438 0.43570313 1.76171875 0.66015625 C0.38671875 2.16015625 0.38671875 2.16015625 -1.23828125 3.66015625 C-1.89828125 3.66015625 -2.55828125 3.66015625 -3.23828125 3.66015625 C-5.02026602 6.96726311 -6.1998519 10.34230624 -7.36328125 13.91015625 C-7.71648438 14.9878125 -8.0696875 16.06546875 -8.43359375 17.17578125 C-8.69914063 17.995625 -8.9646875 18.81546875 -9.23828125 19.66015625 C-9.56828125 19.66015625 -9.89828125 19.66015625 -10.23828125 19.66015625 C-10.23828125 17.02015625 -10.23828125 14.38015625 -10.23828125 11.66015625 C-9.57828125 11.66015625 -8.91828125 11.66015625 -8.23828125 11.66015625 C-8.54765625 10.79390625 -8.85703125 9.92765625 -9.17578125 9.03515625 C-9.23828125 5.66015625 -9.23828125 5.66015625 -7.88671875 3.890625 C-3.08819182 -0.46888776 -3.08819182 -0.46888776 0 0 Z " fill="#182E7E" transform="translate(963.23828125,88.33984375)"/>
<path d="M0 0 C1.9375 0.5625 1.9375 0.5625 4 2 C4.17087661 3.57206482 4.33252647 5.1456434 4.44921875 6.72265625 C5.49923326 11.06420562 8.22955878 14.689641 10.6015625 18.42578125 C11.06304687 19.27527344 11.52453125 20.12476563 12 21 C11.67 21.66 11.34 22.32 11 23 C5.54493456 16.45767066 0 8.76625993 0 0 Z " fill="#172B7F" transform="translate(411,131)"/>
<path d="M0 0 C2.03875926 3.0581389 2.25490139 3.71060009 2.265625 7.16015625 C2.26949219 8.3502832 2.26949219 8.3502832 2.2734375 9.56445312 C2.26570312 10.38880859 2.25796875 11.21316406 2.25 12.0625 C2.25773438 12.89072266 2.26546875 13.71894531 2.2734375 14.57226562 C2.27085937 15.36439453 2.26828125 16.15652344 2.265625 16.97265625 C2.26336914 17.69718994 2.26111328 18.42172363 2.25878906 19.16821289 C2 21 2 21 0 23 C-1.59497345 15.22450441 -1.13425151 7.7979791 0 0 Z " fill="#0B1E7B" transform="translate(930,106)"/>
<path d="M0 0 C1.5 1.3125 1.5 1.3125 3 3 C3 3.99 3 4.98 3 6 C2.34 6 1.68 6 1 6 C0.67 13.26 0.34 20.52 0 28 C-0.33 28 -0.66 28 -1 28 C-2.42566489 18.19855386 -2.03400692 9.71601522 0 0 Z " fill="#1C3083" transform="translate(411,102)"/>
<path d="M0 0 C2.5625 -0.5 2.5625 -0.5 6 0 C8.74942655 2.35429938 11.03501885 4.95951141 13 8 C13 8.99 13 9.98 13 11 C13.66 11 14.32 11 15 11 C15.66 13.97 16.32 16.94 17 20 C16.01 20.33 15.02 20.66 14 21 C13.84144531 20.19175781 13.68289063 19.38351563 13.51953125 18.55078125 C11.76345212 10.12436115 11.76345212 10.12436115 6 4 C2.83354526 2.20679176 2.83354526 2.20679176 0 1 C0 0.67 0 0.34 0 0 Z " fill="#1A2A7B" transform="translate(648,87)"/>
<path d="M0 0 C1.98 0 3.96 0 6 0 C5.01 0.495 5.01 0.495 4 1 C4.49150383 3.65412069 5.18183929 5.2937404 6.625 7.625 C7.305625 8.800625 7.305625 8.800625 8 10 C7.67 10.66 7.34 11.32 7 12 C4.36 9.69 1.72 7.38 -1 5 C-0.67 3.35 -0.34 1.7 0 0 Z " fill="#19308B" transform="translate(305,142)"/>
<path d="M0 0 C0.33 0 0.66 0 1 0 C1 15.18 1 30.36 1 46 C0.67 46 0.34 46 0 46 C0 30.82 0 15.64 0 0 Z " fill="#000000" transform="translate(14,116)"/>
<path d="M0 0 C1.09019484 3.27058451 0.85006822 3.84987552 0 7 C-0.09000848 8.61268029 -0.13062644 10.22856132 -0.1328125 11.84375 C-0.13410156 12.76027344 -0.13539063 13.67679688 -0.13671875 14.62109375 C-0.13285156 15.57113281 -0.12898437 16.52117187 -0.125 17.5 C-0.12886719 18.45003906 -0.13273438 19.40007812 -0.13671875 20.37890625 C-0.13542969 21.29542969 -0.13414062 22.21195313 -0.1328125 23.15625 C-0.13168457 23.98962891 -0.13055664 24.82300781 -0.12939453 25.68164062 C-0.00425341 27.92379165 0.42655742 29.83730227 1 32 C1.03786901 33.66623639 1.04627845 35.33397597 1 37 C-3.61935567 32.38064433 -2.18384113 24.16916205 -2.1875 18.0625 C-2.19974609 16.99064453 -2.21199219 15.91878906 -2.22460938 14.81445312 C-2.23449372 9.49338293 -2.18354599 4.96260452 0 0 Z " fill="#152A7A" transform="translate(602,100)"/>
<path d="M0 0 C0 1.65 0 3.3 0 5 C-4 5 -8 5 -12 5 C-8.98541648 1.5216344 -4.71726343 -2.35863172 0 0 Z " fill="#173393" transform="translate(720,75)"/>
<path d="M0 0 C2.09375 0.20703125 2.09375 0.20703125 4.5 0.8125 C5.2940625 1.00457031 6.088125 1.19664062 6.90625 1.39453125 C9 2 9 2 11 3 C13.54615009 3.23172827 16.07396225 3.41894529 18.625 3.5625 C19.33140625 3.60568359 20.0378125 3.64886719 20.765625 3.69335938 C22.51018537 3.79944751 24.25506697 3.90022889 26 4 C26 4.33 26 4.66 26 5 C16.19293733 5.31042285 7.36818258 5.39925415 -2 2 C-1.34 1.34 -0.68 0.68 0 0 Z " fill="#1E2E7E" transform="translate(958,161)"/>
<path d="M0 0 C2.87950786 2.6008458 4.21737013 4.21728897 5 8 C5.66 8.33 6.32 8.66 7 9 C7 11.64 7 14.28 7 17 C6.34 17.33 5.68 17.66 5 18 C4.35105763 15.93847611 3.7059736 13.87573742 3.0625 11.8125 C2.52302734 10.08966797 2.52302734 10.08966797 1.97265625 8.33203125 C1.16243964 5.55646994 0.50865693 2.84312452 0 0 Z " fill="#17327F" transform="translate(394,104)"/>
<path d="M0 0 C0.66 0.33 1.32 0.66 2 1 C-3.21534689 6.03606934 -8.41615967 10 -16 10 C-16 9.34 -16 8.68 -16 8 C-14.3767313 7.3291288 -12.75132422 6.66342971 -11.125 6 C-10.22007812 5.62875 -9.31515625 5.2575 -8.3828125 4.875 C-6 4 -6 4 -4 4 C-4 3.34 -4 2.68 -4 2 C-2.125 0.9375 -2.125 0.9375 0 0 Z " fill="#1D2F84" transform="translate(855,155)"/>
<path d="M0 0 C0.33 0.66 0.66 1.32 1 2 C-2.69379408 8.08867157 -6.3750207 12.61251614 -12 17 C-12.33 16.01 -12.66 15.02 -13 14 C-11.35 13.34 -9.7 12.68 -8 12 C-8 11.34 -8 10.68 -8 10 C-7.34 10 -6.68 10 -6 10 C-5.67 8.35 -5.34 6.7 -5 5 C-4.01 5 -3.02 5 -2 5 C-1.855625 4.360625 -1.71125 3.72125 -1.5625 3.0625 C-1 1 -1 1 0 0 Z " fill="#192980" transform="translate(493,142)"/>
<path d="M0 0 C2 3.75 2 3.75 2 6 C0.125 8.125 0.125 8.125 -2 10 C-2.66 10 -3.32 10 -4 10 C-4.33 10.99 -4.66 11.98 -5 13 C-8.71055417 15.01430083 -11.82851735 15.19402245 -16 15 C-16 14.67 -16 14.34 -16 14 C-15.41992188 13.86464844 -14.83984375 13.72929687 -14.2421875 13.58984375 C-8.11212312 11.90053558 -4.32249738 9.51771885 -1 4 C-0.33165836 1.86720413 -0.33165836 1.86720413 0 0 Z " fill="#182C7B" transform="translate(760,133)"/>
<path d="M0 0 C3.04911568 2.53364913 3.97515381 5.14970635 5.1875 8.875 C5.70376953 10.41800781 5.70376953 10.41800781 6.23046875 11.9921875 C6.95288831 14.81585785 7.15491337 17.10472261 7 20 C2.35630388 14.37049129 0.93744622 7.12459129 0 0 Z " fill="#17297B" transform="translate(1008,87)"/>
<path d="M0 0 C0.66902344 0.0721875 1.33804687 0.144375 2.02734375 0.21875 C11.03493682 1.08928248 19.96256141 1.09637079 29 1 C26.21066566 3.78933434 23.43432082 3.49105086 19.6875 3.6875 C18.37136719 3.77386719 17.05523437 3.86023438 15.69921875 3.94921875 C12.53954849 3.99259332 10.03934528 3.75983632 7 3 C6.113125 2.855625 5.22625 2.71125 4.3125 2.5625 C2 2 2 2 0 0 Z " fill="#1B2E82" transform="translate(335,144)"/>
<path d="M0 0 C0.61746094 0.2165625 1.23492188 0.433125 1.87109375 0.65625 C7.83640307 2.61744758 12.72880367 3.30344498 19 3 C17.375 5.0625 17.375 5.0625 15 7 C11.75 6.75 11.75 6.75 9 6 C9 5.34 9 4.68 9 4 C5.7 3.67 2.4 3.34 -1 3 C-0.67 2.01 -0.34 1.02 0 0 Z " fill="#193184" transform="translate(826,143)"/>
<path d="M0 0 C0.99 0.33 1.98 0.66 3 1 C2.60167969 1.40089844 2.20335937 1.80179687 1.79296875 2.21484375 C-2.45461733 6.77247261 -4.44706823 10.99260603 -6 17 C-6.33 17 -6.66 17 -7 17 C-7.50242861 10.84524951 -6.34686941 7.97249169 -3 3 C-1.25 1.0625 -1.25 1.0625 0 0 Z " fill="#192B80" transform="translate(630,90)"/>
<path d="M0 0 C0.33 0.99 0.66 1.98 1 3 C0.07421875 4.796875 0.07421875 4.796875 -1.3125 6.75 C-3.78981162 10.46596743 -5.0059463 13.66231115 -6 18 C-6.66 18 -7.32 18 -8 18 C-7.70942826 11.31684998 -4.79299918 4.79299918 0 0 Z " fill="#152578" transform="translate(420,84)"/>
<path d="M0 0 C6.40140935 0.46555704 11.26769829 2.14711836 17 5 C17 5.33 17 5.66 17 6 C13.37 5.67 9.74 5.34 6 5 C6 4.34 6 3.68 6 3 C3.03 2.505 3.03 2.505 0 2 C0 1.34 0 0.68 0 0 Z " fill="#1C2F86" transform="translate(367,31)"/>
<path d="M0 0 C3.01730953 2.52309504 4.00667888 5.12428995 5.25 8.8125 C5.78367187 10.33810547 5.78367187 10.33810547 6.328125 11.89453125 C7.06316292 15.29194487 6.7836018 17.63955382 6 21 C5.67 21 5.34 21 5 21 C4.83564453 19.948125 4.83564453 19.948125 4.66796875 18.875 C3.66887015 12.89665392 2.24810596 7.6202649 0 2 C0 1.34 0 0.68 0 0 Z " fill="#192B7A" transform="translate(678,87)"/>
<path d="M0 0 C1 3 1 3 0.109375 5.375 C-0.33921875 6.24125 -0.7878125 7.1075 -1.25 8 C-1.68828125 8.86625 -2.1265625 9.7325 -2.578125 10.625 C-3.87579238 12.79253233 -5.12777789 14.32601317 -7 16 C-7 14.02 -7 12.04 -7 10 C-6.34 10 -5.68 10 -5 10 C-4.731875 9.0925 -4.46375 8.185 -4.1875 7.25 C-3.10423706 4.28528037 -2.01640543 2.3830246 0 0 Z " fill="#132678" transform="translate(704,84)"/>
<path d="M0 0 C0 0.66 0 1.32 0 2 C-0.74765625 2.13277344 -1.4953125 2.26554687 -2.265625 2.40234375 C-3.74289062 2.66724609 -3.74289062 2.66724609 -5.25 2.9375 C-6.22453125 3.11152344 -7.1990625 3.28554687 -8.203125 3.46484375 C-10.49721795 3.90379729 -12.74291971 4.40348592 -15 5 C-14.67 3.68 -14.34 2.36 -14 1 C-9.32798795 -0.20568053 -4.78503708 -0.09382426 0 0 Z " fill="#182C82" transform="translate(648,85)"/>
<path d="M0 0 C0.33 0 0.66 0 1 0 C1 11.22 1 22.44 1 34 C0.67 34 0.34 34 0 34 C0 22.78 0 11.56 0 0 Z " fill="#000000" transform="translate(14,40)"/>
<path d="M0 0 C5.54050113 0.56825653 10.03715966 2.62886517 15 5 C14.01 5.66 13.02 6.32 12 7 C11.01 6.67 10.02 6.34 9 6 C9 5.34 9 4.68 9 4 C8.2575 4.04125 7.515 4.0825 6.75 4.125 C3.91241048 3.99601866 2.41226062 3.42948778 0 2 C0 1.34 0 0.68 0 0 Z " fill="#182D81" transform="translate(368,89)"/>
<path d="M0 0 C3.21043882 1.38188453 5.04936365 2.92421903 7.25 5.625 C8.03117187 6.57246094 8.03117187 6.57246094 8.828125 7.5390625 C9.40820312 8.26222656 9.40820312 8.26222656 10 9 C6.82629722 9 5.6205332 8.69066658 3 7 C1.5933587 4.70495367 0.85523694 2.56571081 0 0 Z " fill="#172C7C" transform="translate(480,76)"/>
<path d="M0 0 C0 0.66 0 1.32 0 2 C-0.72574219 2.26554687 -1.45148437 2.53109375 -2.19921875 2.8046875 C-5.00170928 4.00072948 -7.30479352 5.40329107 -9.8125 7.125 C-10.60269531 7.66382812 -11.39289062 8.20265625 -12.20703125 8.7578125 C-12.79871094 9.16773437 -13.39039063 9.57765625 -14 10 C-14.66 9.67 -15.32 9.34 -16 9 C-4.52427184 0 -4.52427184 0 0 0 Z " fill="#192D80" transform="translate(960,71)"/>
<path d="M0 0 C1.98244892 0.78341119 3.96088859 1.57697486 5.9375 2.375 C7.03964844 2.81585938 8.14179687 3.25671875 9.27734375 3.7109375 C12 5 12 5 13 7 C7.29290936 6.53411505 3.84060277 5.06242216 -1 2 C-0.67 1.34 -0.34 0.68 0 0 Z " fill="#172C81" transform="translate(715,158)"/>
<path d="M0 0 C2.97 0 5.94 0 9 0 C6.47671768 2.52328232 5.1655624 3.71399027 2 5 C1.01 5 0.02 5 -1 5 C-0.67 3.35 -0.34 1.7 0 0 Z " fill="#172F87" transform="translate(994,158)"/>
<path d="M0 0 C2.24993359 -0.02707139 4.49996095 -0.04642829 6.75 -0.0625 C8.00296875 -0.07410156 9.2559375 -0.08570312 10.546875 -0.09765625 C13.28536501 -0.02021027 15.41880293 0.17219185 18 1 C18 1.99 18 2.98 18 4 C17.071875 3.690625 16.14375 3.38125 15.1875 3.0625 C10.22128454 1.6216844 5.13794694 1.35305964 0 1 C0 0.67 0 0.34 0 0 Z " fill="#1B2D7B" transform="translate(450,87)"/>
<path d="M0 0 C4.99275057 1.27721526 7.57611908 3.17330957 11 7 C9.4221875 6.5359375 9.4221875 6.5359375 7.8125 6.0625 C4.87247604 5.24314906 1.99838377 4.54516069 -1 4 C-0.67 2.68 -0.34 1.36 0 0 Z " fill="#192D88" transform="translate(991,72)"/>
<path d="M0 0 C1.33917261 0.30903983 2.67088318 0.65023242 4 1 C5.051875 1.268125 6.10375 1.53625 7.1875 1.8125 C10 3 10 3 10.875 5.125 C10.936875 6.053125 10.936875 6.053125 11 7 C6.89188572 5.55007731 3.53144334 3.54592427 0 1 C0 0.67 0 0.34 0 0 Z " fill="#162A7C" transform="translate(945,155)"/>
<path d="M0 0 C0.33 0 0.66 0 1 0 C1 3.96 1 7.92 1 12 C0.01 12.33 -0.98 12.66 -2 13 C-1.85851011 11.3954444 -1.71164314 9.79136233 -1.5625 8.1875 C-1.48128906 7.29417969 -1.40007812 6.40085937 -1.31640625 5.48046875 C-1 3 -1 3 0 0 Z " fill="#183288" transform="translate(401,121)"/>
<path d="M0 0 C0 3 0 3 -1.75 5.125 C-3.96573509 6.97144591 -5.14169516 7.80944634 -8 8 C-8.66 7.34 -9.32 6.68 -10 6 C-9.36191406 5.65066406 -8.72382812 5.30132812 -8.06640625 4.94140625 C-7.24011719 4.48636719 -6.41382813 4.03132812 -5.5625 3.5625 C-4.73878906 3.11003906 -3.91507813 2.65757812 -3.06640625 2.19140625 C-1.07691202 1.16337603 -1.07691202 1.16337603 0 0 Z " fill="#162878" transform="translate(855,139)"/>
<path d="M0 0 C4.83628305 0.99043705 9.47618873 1.95698846 14 4 C13.67 4.99 13.34 5.98 13 7 C12.67 6.34 12.34 5.68 12 5 C9.46425873 4.39625208 6.92544828 4.04218874 4.34765625 3.66015625 C2 3 2 3 0 0 Z " fill="#192976" transform="translate(481,135)"/>
<path d="M0 0 C6.24675325 3.54545455 6.24675325 3.54545455 8 6 C8.6875 9.6875 8.6875 9.6875 9 13 C7 10 7 10 5.6875 7.5625 C3.80632199 4.70589636 1.74829392 3.00551178 -1 1 C-0.67 0.67 -0.34 0.34 0 0 Z " fill="#172674" transform="translate(369,113)"/>
<path d="M0 0 C0 0.33 0 0.66 0 1 C-10.37357631 4.44419134 -10.37357631 4.44419134 -16 4 C-11.22024772 -0.2282424 -6.1489708 -0.14640407 0 0 Z " fill="#1A2E90" transform="translate(448,71)"/>
<path d="M0 0 C6.875 3.75 6.875 3.75 8 6 C5.03 5.67 2.06 5.34 -1 5 C-0.34 4.67 0.32 4.34 1 4 C0.67 2.68 0.34 1.36 0 0 Z " fill="#1B2F82" transform="translate(388,39)"/>
<path d="M0 0 C0.66 0.33 1.32 0.66 2 1 C4.54615009 1.23172827 7.07396225 1.41894529 9.625 1.5625 C10.33140625 1.60568359 11.0378125 1.64886719 11.765625 1.69335938 C13.51018537 1.79944751 15.25506697 1.90022889 17 2 C17 2.33 17 2.66 17 3 C10.73 3 4.46 3 -2 3 C-1.34 2.01 -0.68 1.02 0 0 Z " fill="#0B2991" transform="translate(766,160)"/>
<path d="M0 0 C3 0 3 0 5.625 2.375 C8 5 8 5 9 7 C5.62496331 5.8141763 3.35277269 4.72426311 1 2 C-0.98 2.99 -0.98 2.99 -3 4 C-1.6875 2 -1.6875 2 0 0 Z " fill="#1E307E" transform="translate(668,138)"/>
<path d="M0 0 C0.66 0 1.32 0 2 0 C2.33 2.64 2.66 5.28 3 8 C1.68 7.67 0.36 7.34 -1 7 C-1.04254356 5.00045254 -1.04080783 2.99958364 -1 1 C-0.67 0.67 -0.34 0.34 0 0 Z " fill="#132D8C" transform="translate(932,126)"/>
<path d="M0 0 C4.24480464 -0.33292585 6.35542625 -0.43885872 9.9375 2 C10.618125 2.66 11.29875 3.32 12 4 C7.6822542 3.49202991 3.96697886 2.80317221 0 1 C0 0.67 0 0.34 0 0 Z " fill="#1C2D7D" transform="translate(624,161)"/>
<path d="M0 0 C0.33 0.66 0.66 1.32 1 2 C0.67 2.99 0.34 3.98 0 5 C0.66 5.33 1.32 5.66 2 6 C1.01 6.495 1.01 6.495 0 7 C-0.46523063 8.89533342 -0.46523063 8.89533342 -0.625 11.0625 C-0.74875 12.361875 -0.8725 13.66125 -1 15 C-1.33 15 -1.66 15 -2 15 C-2.05406122 13.06280622 -2.09282025 11.12518079 -2.125 9.1875 C-2.14820313 8.10855469 -2.17140625 7.02960938 -2.1953125 5.91796875 C-2 3 -2 3 0 0 Z " fill="#142F96" transform="translate(699,97)"/>
<path d="M0 0 C0.66 0.33 1.32 0.66 2 1 C1.67 3.97 1.34 6.94 1 10 C-1 8 -1 8 -1.1875 4.4375 C-1 1 -1 1 0 0 Z " fill="#17308D" transform="translate(433,102)"/>
<path d="M0 0 C0.99 0.495 0.99 0.495 2 1 C3.090125 5.81471876 3.26440734 7.47118531 1 12 C0.67 8.04 0.34 4.08 0 0 Z " fill="#172D87" transform="translate(991,96)"/>
<path d="M0 0 C2.1640625 0.2421875 2.1640625 0.2421875 4.625 0.875 C5.44226563 1.07867187 6.25953125 1.28234375 7.1015625 1.4921875 C8.04128906 1.74355469 8.04128906 1.74355469 9 2 C6 4 6 4 3.95703125 3.7578125 C1.97135417 3.171875 -0.01432292 2.5859375 -2 2 C-1.34 1.34 -0.68 0.68 0 0 Z " fill="#15297A" transform="translate(958,161)"/>
<path d="M0 0 C0.66 0.33 1.32 0.66 2 1 C0.8803014 2.00593243 -0.2459412 3.0045849 -1.375 4 C-2.00148438 4.556875 -2.62796875 5.11375 -3.2734375 5.6875 C-5 7 -5 7 -7 7 C-6.67 6.01 -6.34 5.02 -6 4 C-5.34 4 -4.68 4 -4 4 C-4 3.34 -4 2.68 -4 2 C-2.125 0.9375 -2.125 0.9375 0 0 Z " fill="#142275" transform="translate(855,155)"/>
<path d="M0 0 C0.66 0.33 1.32 0.66 2 1 C0.375 3 0.375 3 -2 5 C-5.25 5.25 -5.25 5.25 -8 5 C-2.6 1.4 -2.6 1.4 0 0 Z " fill="#1F2D84" transform="translate(663,142)"/>
<path d="M0 0 C3.53233755 1.17744585 3.86308075 1.95605641 5.6875 5.0625 C6.12449219 5.79597656 6.56148437 6.52945313 7.01171875 7.28515625 C7.33785156 7.85105469 7.66398438 8.41695312 8 9 C6.68 8.34 5.36 7.68 4 7 C4 6.34 4 5.68 4 5 C3.01 4.67 2.02 4.34 1 4 C0.3125 1.9375 0.3125 1.9375 0 0 Z " fill="#182A85" transform="translate(720,135)"/>
<path d="M0 0 C0.99 0.33 1.98 0.66 3 1 C1.38405168 3.04119788 -0.2856382 5.04072937 -2 7 C-2.66 7 -3.32 7 -4 7 C-3.43628586 3.73045798 -2.50037734 2.17424117 0 0 Z " fill="#14266F" transform="translate(630,90)"/>
<path d="M0 0 C3.10551666 3.10551666 3.81323934 4.89198233 5 9 C4.01 9 3.02 9 2 9 C1.34 6.03 0.68 3.06 0 0 Z " fill="#1C2C75" transform="translate(490,86)"/>
<path d="M0 0 C0.66 0.66 1.32 1.32 2 2 C-1.13498292 3.85776765 -3.37471432 4.20140476 -7 4 C-6.67 3.01 -6.34 2.02 -6 1 C-3.125 0.375 -3.125 0.375 0 0 Z " fill="#193191" transform="translate(856,153)"/>
<path d="M0 0 C5.445 1.485 5.445 1.485 11 3 C11 3.33 11 3.66 11 4 C9.741875 4.04125 8.48375 4.0825 7.1875 4.125 C6.47980469 4.14820313 5.77210938 4.17140625 5.04296875 4.1953125 C3 4 3 4 0 2 C0 1.34 0 0.68 0 0 Z " fill="#1D2D77" transform="translate(728,144)"/>
<path d="M0 0 C2.97 0.99 5.94 1.98 9 3 C8.01 3.66 7.02 4.32 6 5 C4.02 4.01 2.04 3.02 0 2 C0 1.34 0 0.68 0 0 Z " fill="#162884" transform="translate(337,101)"/>
<path d="M0 0 C1.5 1.25 1.5 1.25 3 3 C3 4.32 3 5.64 3 7 C1.68 6.34 0.36 5.68 -1 5 C-0.67 3.35 -0.34 1.7 0 0 Z " fill="#1B38A3" transform="translate(489,88)"/>
<path d="M0 0 C4.875 4.625 4.875 4.625 6 8 C2.57701423 6.85900474 1.85241234 5.99914379 0 3 C0 2.01 0 1.02 0 0 Z " fill="#172778" transform="translate(672,79)"/>
<path d="M0 0 C0.66 0 1.32 0 2 0 C2 2 2 2 -0.3125 4.625 C-3 7 -3 7 -6 7 C-5.34 6.67 -4.68 6.34 -4 6 C-3.3162955 4.67532254 -2.65035814 3.34136367 -2 2 C-1.34 1.34 -0.68 0.68 0 0 Z " fill="#132682" transform="translate(534,75)"/>
<path d="M0 0 C1.98 0.99 3.96 1.98 6 3 C6 3.99 6 4.98 6 6 C2.34683329 4.75023244 1.21934164 4.32901247 -1 1 C-0.67 0.67 -0.34 0.34 0 0 Z " fill="#162881" transform="translate(424,153)"/>
<path d="M0 0 C0 0.66 0 1.32 0 2 C-2.64 2.33 -5.28 2.66 -8 3 C-8.33 2.34 -8.66 1.68 -9 1 C-5.8035914 -0.06546953 -3.34252724 -0.07427838 0 0 Z " fill="#15309B" transform="translate(745,148)"/>
<path d="M0 0 C0.33 0 0.66 0 1 0 C0.67 2.97 0.34 5.94 0 9 C-2 5 -2 5 -2 2 C-1.34 2 -0.68 2 0 2 C0 1.34 0 0.68 0 0 Z " fill="#122D8C" transform="translate(436,94)"/>
<path d="M0 0 C2.5 2.3125 2.5 2.3125 5 5 C5 5.99 5 6.98 5 8 C4.34 7.67 3.68 7.34 3 7 C3 6.34 3 5.68 3 5 C2.34 5 1.68 5 1 5 C0.67 3.35 0.34 1.7 0 0 Z " fill="#1E3287" transform="translate(1002,79)"/>
<path d="M0 0 C0.33 0 0.66 0 1 0 C1 4.95 1 9.9 1 15 C0.67 15 0.34 15 0 15 C0 10.05 0 5.1 0 0 Z " fill="#000000" transform="translate(198,100)"/>
<path d="M0 0 C4.62 0 9.24 0 14 0 C14 0.33 14 0.66 14 1 C9.38 1 4.76 1 0 1 C0 0.67 0 0.34 0 0 Z " fill="#000000" transform="translate(67,86)"/>
<path d="M0 0 C4.29 0 8.58 0 13 0 C13 0.33 13 0.66 13 1 C8.71 1 4.42 1 0 1 C0 0.67 0 0.34 0 0 Z " fill="#000000" transform="translate(53,86)"/>
<path d="M0 0 C3.3 0 6.6 0 10 0 C10 0.33 10 0.66 10 1 C6.7 1 3.4 1 0 1 C0 0.67 0 0.34 0 0 Z " fill="#000000" transform="translate(271,69)"/>
<path d="M0 0 C0.33 0 0.66 0 1 0 C1 2.97 1 5.94 1 9 C0.67 9 0.34 9 0 9 C0 6.03 0 3.06 0 0 Z " fill="#000717" transform="translate(530,69)"/>
<path d="M0 0 C2.31 0 4.62 0 7 0 C7 0.33 7 0.66 7 1 C4.69 1 2.38 1 0 1 C0 0.67 0 0.34 0 0 Z " fill="#000000" transform="translate(39,86)"/>
<path d="M0 0 C2.31 0 4.62 0 7 0 C7 0.33 7 0.66 7 1 C4.69 1 2.38 1 0 1 C0 0.67 0 0.34 0 0 Z " fill="#000000" transform="translate(148,67)"/>
<path d="M0 0 C0.33 0 0.66 0 1 0 C1 1.65 1 3.3 1 5 C0.67 5 0.34 5 0 5 C0 3.35 0 1.7 0 0 Z " fill="#000000" transform="translate(268,72)"/>
<path d="M0 0 C1 4 1 4 1 4 Z " fill="#000000" transform="translate(14,34)"/>
<path d="M0 0 C3 1 3 1 3 1 Z " fill="#000000" transform="translate(147,167)"/>
<path d="" fill="#000000" transform="translate(0,0)"/>
<path d="" fill="#000000" transform="translate(0,0)"/>
<path d="" fill="#000000" transform="translate(0,0)"/>
<path d="" fill="#000000" transform="translate(0,0)"/>
<path d="M0 0 C2 1 2 1 2 1 Z " fill="#000000" transform="translate(254,145)"/>
<path d="" fill="#000000" transform="translate(0,0)"/>
<path d="" fill="#000000" transform="translate(0,0)"/>
<path d="M0 0 C2 1 2 1 2 1 Z " fill="#000000" transform="translate(86,86)"/>
<path d="M0 0 C2 1 2 1 2 1 Z " fill="#000000" transform="translate(193,27)"/>
<path d="" fill="#000000" transform="translate(0,0)"/>
<path d="" fill="#000000" transform="translate(0,0)"/>
<path d="" fill="#000000" transform="translate(0,0)"/>
<path d="" fill="#000000" transform="translate(0,0)"/>
<path d="" fill="#000000" transform="translate(0,0)"/>
<path d="" fill="#000000" transform="translate(0,0)"/>
<path d="" fill="#000000" transform="translate(0,0)"/>
<path d="" fill="#000000" transform="translate(0,0)"/>
<path d="" fill="#000000" transform="translate(0,0)"/>
<path d="" fill="#000000" transform="translate(0,0)"/>
<path d="" fill="#000000" transform="translate(0,0)"/>
<path d="" fill="#000000" transform="translate(0,0)"/>
<path d="" fill="#000000" transform="translate(0,0)"/>
<path d="" fill="#000000" transform="translate(0,0)"/>
<path d="" fill="#000000" transform="translate(0,0)"/>
<path d="" fill="#000000" transform="translate(0,0)"/>
<path d="" fill="#000000" transform="translate(0,0)"/>
<path d="" fill="#000000" transform="translate(0,0)"/>
<path d="" fill="#000000" transform="translate(0,0)"/>
<path d="" fill="#000000" transform="translate(0,0)"/>
<path d="" fill="#000000" transform="translate(0,0)"/>
<path d="" fill="#000000" transform="translate(0,0)"/>
<path d="" fill="#000000" transform="translate(0,0)"/>
<path d="" fill="#000000" transform="translate(0,0)"/>
<path d="" fill="#000000" transform="translate(0,0)"/>
<path d="" fill="#000000" transform="translate(0,0)"/>
<path d="" fill="#000000" transform="translate(0,0)"/>
<path d="" fill="#000000" transform="translate(0,0)"/>
<path d="" fill="#000000" transform="translate(0,0)"/>
<path d="" fill="#000000" transform="translate(0,0)"/>
<path d="" fill="#000000" transform="translate(0,0)"/>
<path d="" fill="#000000" transform="translate(0,0)"/>
<path d="" fill="#000000" transform="translate(0,0)"/>
<path d="" fill="#000000" transform="translate(0,0)"/>
<path d="" fill="#000000" transform="translate(0,0)"/>
</svg>
